<?xml version="1.0" encoding="UTF-8"?>
<svg width="18px" height="18px" viewBox="0 0 18 18" version="1.1" xmlns="http://www.w3.org/2000/svg" xmlns:xlink="http://www.w3.org/1999/xlink">
    <!-- Generator: Sketch 53.1 (72631) - https://sketchapp.com -->
    <title>湿度</title>
    <desc>Created with Sketch.</desc>
    <g id="Page-1" stroke="none" stroke-width="1" fill="none" fill-rule="evenodd">
        <g id="细节" transform="translate(-106.000000, -298.000000)">
            <g id="湿度" transform="translate(106.000000, 298.000000)">
                <rect id="矩形-copy-9" x="0" y="0" width="18" height="18"></rect>
                <path d="M8,13.6099702 C6.61928813,13.6099702 5.5,12.4906821 5.5,11.1099702 C5.5,10.8338278 5.72385763,10.6099702 6,10.6099702 C6.27614237,10.6099702 6.5,10.8338278 6.5,11.1099702 C6.5,11.9383973 7.17157288,12.6099702 8,12.6099702 C8.27614237,12.6099702 8.5,12.8338278 8.5,13.1099702 C8.5,13.3861126 8.27614237,13.6099702 8,13.6099702 Z M8,15 C10.2281645,15 12,13.3801717 12,11.4289541 C12,10.1773814 10.669002,7.61997958 7.9999897,3.96339593 C5.3310013,7.61997325 4,10.1773797 4,11.4289541 C4,13.3801717 5.77183548,15 8,15 Z M8,16 C5.23857625,16 3,13.9534731 3,11.4289541 C3,9.88786625 4.39742597,7.20283042 7.19227791,3.37384662 C7.25327341,3.29028199 7.32686686,3.21668856 7.4104315,3.15569308 C7.85653202,2.83007554 8.48213313,2.92774629 8.80775067,3.37384681 C11.6025774,7.20283684 13,9.8878681 13,11.4289541 C13,13.9534731 10.7614237,16 8,16 Z M14,7 C14.5399889,7 15,6.51475422 15,5.89028652 C15,5.53510108 14.6727798,4.72008939 13.9999897,3.56448335 C13.3272232,4.72008196 13,5.53509917 13,5.89028652 C13,6.51475422 13.4600111,7 14,7 Z M14,8 C12.8954305,8 12,7.0554491 12,5.89028652 C12,5.30491926 12.3785952,4.3619496 13.1357855,3.06137754 C13.2228699,2.91179888 13.3472856,2.78738325 13.4968643,2.70029899 C13.974167,2.42241492 14.5863667,2.58407561 14.8642508,3.06137824 C15.621408,4.36195748 16,5.3049217 16,5.89028652 C16,7.0554491 15.1045695,8 14,8 Z" fill="#CCCCCC" fill-rule="nonzero"></path>
            </g>
        </g>
    </g>
</svg>