<?xml version="1.0" encoding="UTF-8"?>
<svg width="18px" height="18px" viewBox="0 0 18 18" version="1.1" xmlns="http://www.w3.org/2000/svg" xmlns:xlink="http://www.w3.org/1999/xlink">
    <!-- Generator: Sketch 53.1 (72631) - https://sketchapp.com -->
    <title>闪电</title>
    <desc>Created with Sketch.</desc>
    <g id="Page-1" stroke="none" stroke-width="1" fill="none" fill-rule="evenodd">
        <g id="细节" transform="translate(-106.000000, -658.000000)">
            <g id="闪电" transform="translate(106.000000, 658.000000)">
                <rect id="矩形" x="0" y="0" width="18" height="18"></rect>
                <path d="M8.30901699,2 C8.11963097,2 7.94649941,2.10700119 7.8618034,2.2763932 L4.3618034,9.2763932 C4.32708954,9.34582092 4.30901699,9.42237745 4.30901699,9.5 C4.30901699,9.77614237 4.53287462,10 4.80901699,10 L7.30628706,10 C7.3600281,10 7.41341771,10.0086639 7.46440094,10.0256584 C7.7263726,10.1129822 7.86795259,10.3961422 7.78062871,10.6581139 L6.30812755,15.0756173 C6.28282755,15.1515173 6.3051945,15.2351919 6.36499144,15.2883448 C6.447548,15.3617284 6.57396247,15.3542922 6.64734608,15.2717357 L13.2602827,7.83218192 C13.3416388,7.74065636 13.3865781,7.62245708 13.3865781,7.5 C13.3865781,7.22385763 13.1627205,7 12.8865781,7 L9.88309519,7 C9.79247322,7 9.70355501,6.97537108 9.62584731,6.92874646 C9.38905718,6.78667238 9.31227465,6.47954226 9.45434873,6.24275212 L11.5456513,2.75724788 C11.5922759,2.67954018 11.6169048,2.59062197 11.6169048,2.5 C11.6169048,2.22385763 11.3930472,2 11.1169048,2 L8.30901699,2 Z M10.7661904,6 L12.8865781,6 C13.7150052,6 14.3865781,6.67157288 14.3865781,7.5 C14.3865781,7.86737124 14.2517602,8.22196907 14.0076921,8.49654576 L7.39475539,15.9360995 C6.95445377,16.4314388 6.19596693,16.4760557 5.7006276,16.0357541 C5.34184592,15.716837 5.20764426,15.2147896 5.35944425,14.7593896 L6.61257411,11 L4.80901699,11 C3.98058987,11 3.30901699,10.3284271 3.30901699,9.5 C3.30901699,9.26713236 3.36323463,9.03746276 3.46737621,8.82917961 L6.96737621,1.82917961 C7.22146423,1.32100356 7.74085891,1 8.30901699,1 L11.1169048,1 C11.9453319,1 12.6169048,1.67157288 12.6169048,2.5 C12.6169048,2.77186592 12.5430181,3.03862053 12.4031442,3.27174363 L10.7661904,6 Z" fill="#CCCCCC" fill-rule="nonzero"></path>
            </g>
        </g>
    </g>
</svg>