<?xml version="1.0" encoding="UTF-8"?>
<svg width="18px" height="18px" viewBox="0 0 18 18" version="1.1" xmlns="http://www.w3.org/2000/svg" xmlns:xlink="http://www.w3.org/1999/xlink">
    <!-- Generator: Sketch 53.1 (72631) - https://sketchapp.com -->
    <title>雨</title>
    <desc>Created with Sketch.</desc>
    <g id="Page-1" stroke="none" stroke-width="1" fill="none" fill-rule="evenodd">
        <g id="细节" transform="translate(-106.000000, -406.000000)">
            <g id="雨" transform="translate(106.000000, 406.000000)">
                <rect id="square-36px" x="0" y="0" width="18" height="18"></rect>
                <path d="M4.85909509,11.479871 C2.97172927,11.2843833 1.5,9.68906204 1.5,7.75 C1.5,5.67893219 3.17893219,4 5.25,4 C5.65624248,4 6.05035688,4.06520348 6.42092926,4.1869463 C7.23659152,2.27757693 9.12216309,1 11.25,1 C14.1494949,1 16.5,3.35050506 16.5,6.25 C16.5,9.14949494 14.1494949,11.5 11.25,11.5 L5,11.5 C4.95107215,11.5 4.90378572,11.4929722 4.85909509,11.479871 Z M5.25000026,10.5 L11.25,10.5 C13.5972102,10.5 15.5,8.59721019 15.5,6.25 C15.5,3.90278981 13.5972102,2 11.25,2 C9.51104853,2 7.97185706,3.05404784 7.32197384,4.62393556 C7.9449893,5.03698548 8.44240649,5.6344175 8.73103364,6.35308202 C8.83394722,6.60933074 8.70964452,6.90048931 8.4533958,7.00340289 C8.19714708,7.10631647 7.90598851,6.98201378 7.80307494,6.72576506 C7.38781789,5.69179959 6.38328114,5 5.25,5 C3.73121694,5 2.5,6.23121694 2.5,7.75 C2.5,9.26878306 3.73121694,10.5 5.25,10.5 Z M8,12.5 C8.27614237,12.5 8.5,12.7238576 8.5,13 L8.5,16.5 C8.5,16.7761424 8.27614237,17 8,17 C7.72385763,17 7.5,16.7761424 7.5,16.5 L7.5,13 C7.5,12.7238576 7.72385763,12.5 8,12.5 Z M5.5,12.5 C5.77614237,12.5 6,12.7238576 6,13 L6,15 C6,15.2761424 5.77614237,15.5 5.5,15.5 C5.22385763,15.5 5,15.2761424 5,15 L5,13 C5,12.7238576 5.22385763,12.5 5.5,12.5 Z M10.5,12.5 C10.7761424,12.5 11,12.7238576 11,13 L11,15 C11,15.2761424 10.7761424,15.5 10.5,15.5 C10.2238576,15.5 10,15.2761424 10,15 L10,13 C10,12.7238576 10.2238576,12.5 10.5,12.5 Z M13,12.5 C13.2761424,12.5 13.5,12.7238576 13.5,13 L13.5,16.5 C13.5,16.7761424 13.2761424,17 13,17 C12.7238576,17 12.5,16.7761424 12.5,16.5 L12.5,13 C12.5,12.7238576 12.7238576,12.5 13,12.5 Z" fill="#CCCCCC"></path>
            </g>
        </g>
    </g>
</svg>