<?xml version="1.0" encoding="UTF-8"?>
<svg width="18px" height="18px" viewBox="0 0 18 18" version="1.1" xmlns="http://www.w3.org/2000/svg" xmlns:xlink="http://www.w3.org/1999/xlink">
    <!-- Generator: Sketch 53.1 (72631) - https://sketchapp.com -->
    <title>温度</title>
    <desc>Created with Sketch.</desc>
    <g id="Page-1" stroke="none" stroke-width="1" fill="none" fill-rule="evenodd">
        <g id="细节" transform="translate(-106.000000, -262.000000)">
            <g id="温度" transform="translate(106.000000, 262.000000)">
                <rect id="矩形" x="0" y="0" width="18" height="18"></rect>
                <path d="M3.5,3 L8.5,3 C8.77614237,3 9,3.22385763 9,3.5 C9,3.77614237 8.77614237,4 8.5,4 L3.5,4 C3.22385763,4 3,3.77614237 3,3.5 C3,3.22385763 3.22385763,3 3.5,3 Z M4.5,5 L8.5,5 C8.77614237,5 9,5.22385763 9,5.5 C9,5.77614237 8.77614237,6 8.5,6 L4.5,6 C4.22385763,6 4,5.77614237 4,5.5 C4,5.22385763 4.22385763,5 4.5,5 Z M5.5,9 L8.5,9 C8.77614237,9 9,9.22385763 9,9.5 C9,9.77614237 8.77614237,10 8.5,10 L5.5,10 C5.22385763,10 5,9.77614237 5,9.5 C5,9.22385763 5.22385763,9 5.5,9 Z M3.5,7 L8.5,7 C8.77614237,7 9,7.22385763 9,7.5 C9,7.77614237 8.77614237,8 8.5,8 L3.5,8 C3.22385763,8 3,7.77614237 3,7.5 C3,7.22385763 3.22385763,7 3.5,7 Z M12.5709077,11.2400762 L12,10.9688676 L12,2.5 C12,2.22385763 11.7761424,2 11.5,2 C11.2238576,2 11,2.22385763 11,2.5 L11,10.9688676 L10.4290923,11.2400762 C9.56318251,11.6514251 9,12.5246125 9,13.5 C9,14.8807119 10.1192881,16 11.5,16 C12.8807119,16 14,14.8807119 14,13.5 C14,12.5246125 13.4368175,11.6514251 12.5709077,11.2400762 Z M13,10.3368156 C14.1824737,10.8985475 15,12.103802 15,13.5 C15,15.4329966 13.4329966,17 11.5,17 C9.56700338,17 8,15.4329966 8,13.5 C8,12.103802 8.81752633,10.8985475 10,10.3368156 L10,2.5 C10,1.67157288 10.6715729,1 11.5,1 C12.3284271,1 13,1.67157288 13,2.5 L13,10.3368156 Z M11.5,15 C12.3284271,15 13,14.3284271 13,13.5 C13,12.6715729 12.3284271,12 11.5,12 C10.6715729,12 10,12.6715729 10,13.5 C10,14.3284271 10.6715729,15 11.5,15 Z" fill="#CCCCCC"></path>
            </g>
        </g>
    </g>
</svg>