<?xml version="1.0" standalone="no"?>
<!DOCTYPE svg PUBLIC "-//W3C//DTD SVG 1.1//EN" "http://www.w3.org/Graphics/SVG/1.1/DTD/svg11.dtd" >
<svg xmlns="http://www.w3.org/2000/svg">
<metadata>Generated by IcoMoon</metadata>
<defs>
<font id="weather_icon" horiz-adv-x="1024">
<font-face units-per-em="1024" ascent="960" descent="-64" />
<missing-glyph horiz-adv-x="1024" />
<glyph unicode="&#x20;" horiz-adv-x="512" d="" />
<glyph unicode="&#xe900;" glyph-name="moderate_snow_o" d="M276.429 306.923c-107.37 11.121-191.095 101.877-191.095 212.188 0 117.821 95.513 213.333 213.333 213.333 23.111 0 45.531-3.709 66.613-10.635 46.402 108.622 153.67 181.302 274.72 181.302 164.949 0 298.667-133.718 298.667-298.667s-133.718-298.667-298.667-298.667h-355.556c-2.783 0-5.474 0.4-8.016 1.145zM298.667 362.667h341.333c133.53 0 241.778 108.248 241.778 241.778s-108.248 241.778-241.778 241.778c-98.927 0-186.49-59.964-223.461-149.273 35.443-23.498 63.74-57.485 80.16-98.369 5.855-14.578-1.217-31.141-15.795-36.996s-31.141 1.217-36.996 15.795c-23.624 58.821-80.77 98.177-145.242 98.177-86.402 0-156.444-70.043-156.444-156.444s70.043-156.444 156.444-156.444zM373.589 106.667h-74.922c-7.855 0-14.222 6.368-14.222 14.222s6.368 14.222 14.222 14.222h74.922l-37.461 64.884c-3.927 6.802-1.597 15.501 5.206 19.428s15.501 1.597 19.428-5.206l37.461-64.884 37.461 64.884c3.927 6.802 12.626 9.133 19.428 5.206s9.133-12.626 5.206-19.428l-37.461-64.884h74.922c7.855 0 14.222-6.368 14.222-14.222s-6.368-14.222-14.222-14.222h-74.922l37.461-64.884c3.927-6.802 1.597-15.501-5.206-19.428s-15.501-1.597-19.428 5.206l-37.461 64.884-37.461-64.884c-3.927-6.802-12.626-9.133-19.428-5.206s-9.133 12.626-5.206 19.428l37.461 64.884zM629.589 163.556h-46.477c-7.855 0-14.222 6.368-14.222 14.222s6.368 14.222 14.222 14.222h46.477l-23.239 40.251c-3.927 6.802-1.597 15.501 5.206 19.428s15.501 1.597 19.428-5.206l23.239-40.251 23.239 40.251c3.927 6.802 12.626 9.133 19.428 5.206s9.133-12.626 5.206-19.428l-23.239-40.251h46.477c7.855 0 14.222-6.368 14.222-14.222s-6.368-14.222-14.222-14.222h-46.477l23.239-40.251c3.927-6.802 1.597-15.501-5.206-19.428s-15.501-1.597-19.428 5.206l-23.239 40.251-23.239-40.251c-3.927-6.802-12.626-9.133-19.428-5.206s-9.133 12.626-5.206 19.428l23.239 40.251z" />
<glyph unicode="&#xe901;" glyph-name="moderate_snow" d="M373.589 106.667h-74.922c-7.855 0-14.222 6.368-14.222 14.222s6.368 14.222 14.222 14.222h74.922l-37.461 64.884c-3.927 6.802-1.597 15.501 5.206 19.428s15.501 1.597 19.428-5.206l37.461-64.884 37.461 64.884c3.927 6.802 12.626 9.133 19.428 5.206s9.133-12.626 5.206-19.428l-37.461-64.884h74.922c7.855 0 14.222-6.368 14.222-14.222s-6.368-14.222-14.222-14.222h-74.922l37.461-64.884c3.927-6.802 1.597-15.501-5.206-19.428s-15.501-1.597-19.428 5.206l-37.461 64.884-37.461-64.884c-3.927-6.802-12.626-9.133-19.428-5.206s-9.133 12.626-5.206 19.428l37.461 64.884zM629.589 163.556h-46.477c-7.855 0-14.222 6.368-14.222 14.222s6.368 14.222 14.222 14.222h46.477l-23.239 40.251c-3.927 6.802-1.597 15.501 5.206 19.428s15.501 1.597 19.428-5.206l23.239-40.251 23.239 40.251c3.927 6.802 12.626 9.133 19.428 5.206s9.133-12.626 5.206-19.428l-23.239-40.251h46.477c7.855 0 14.222-6.368 14.222-14.222s-6.368-14.222-14.222-14.222h-46.477l23.239-40.251c3.927-6.802 1.597-15.501-5.206-19.428s-15.501-1.597-19.428 5.206l-23.239 40.251-23.239-40.251c-3.927-6.802-12.626-9.133-19.428-5.206s-9.133 12.626-5.206 19.428l23.239 40.251zM654.222 306.11v-0.333h-355.556c-117.821 0-213.333 95.513-213.333 213.333s95.513 213.333 213.333 213.333c23.265 0 45.66-3.724 66.621-10.608 45.608 106.59 151.438 181.275 274.712 181.275 164.949 0 298.667-133.718 298.667-298.667 0-160.181-126.099-290.911-284.444-298.334z" />
<glyph unicode="&#xe935;" glyph-name="cloudy_o" d="M284.444 192h369.778c141.385 0 256 114.615 256 256s-114.615 256-256 256c-104.356 0-196.806-63.019-236.203-157.090 40.277-29.202 70.854-71.45 85.18-121.381 4.332-15.1-4.397-30.853-19.497-35.186s-30.853 4.397-35.186 19.497c-20.813 72.542-87.446 123.493-164.071 123.493-94.257 0-170.667-76.41-170.667-170.667s76.41-170.667 170.667-170.667zM367.913 574.391c49.415 111.933 160.816 186.498 286.309 186.498 172.804 0 312.889-140.085 312.889-312.889s-140.085-312.889-312.889-312.889h-369.778c-125.675 0-227.556 101.88-227.556 227.556s101.88 227.556 227.556 227.556c29.295 0 57.493-5.584 83.469-15.831z" />
<glyph unicode="&#xe936;" glyph-name="heavy_rain_o" d="M276.429 306.923c-107.37 11.121-191.095 101.877-191.095 212.188 0 117.821 95.513 213.333 213.333 213.333 23.111 0 45.531-3.709 66.613-10.635 46.402 108.622 153.67 181.302 274.72 181.302 164.949 0 298.667-133.718 298.667-298.667s-133.718-298.667-298.667-298.667h-355.556c-2.783 0-5.474 0.4-8.016 1.145zM298.667 362.667h341.333c133.53 0 241.778 108.248 241.778 241.778s-108.248 241.778-241.778 241.778c-98.927 0-186.49-59.964-223.461-149.273 35.443-23.498 63.74-57.485 80.16-98.369 5.855-14.578-1.217-31.141-15.795-36.996s-31.141 1.217-36.996 15.795c-23.624 58.821-80.77 98.177-145.242 98.177-86.402 0-156.444-70.043-156.444-156.444s70.043-156.444 156.444-156.444zM455.111 248.889c15.709 0 28.444-12.735 28.444-28.444v-199.111c0-15.709-12.735-28.444-28.444-28.444s-28.444 12.735-28.444 28.444v199.111c0 15.709 12.735 28.444 28.444 28.444zM312.889 248.889c15.709 0 28.444-12.735 28.444-28.444v-113.778c0-15.709-12.735-28.444-28.444-28.444s-28.444 12.735-28.444 28.444v113.778c0 15.709 12.735 28.444 28.444 28.444zM597.333 248.889c15.709 0 28.444-12.735 28.444-28.444v-113.778c0-15.709-12.735-28.444-28.444-28.444s-28.444 12.735-28.444 28.444v113.778c0 15.709 12.735 28.444 28.444 28.444zM739.556 248.889c15.709 0 28.444-12.735 28.444-28.444v-199.111c0-15.709-12.735-28.444-28.444-28.444s-28.444 12.735-28.444 28.444v199.111c0 15.709 12.735 28.444 28.444 28.444z" />
<glyph unicode="&#xe937;" glyph-name="heavy_snow_o" d="M276.429 306.923c-107.37 11.121-191.095 101.877-191.095 212.188 0 117.821 95.513 213.333 213.333 213.333 23.111 0 45.531-3.709 66.613-10.635 46.402 108.622 153.67 181.302 274.72 181.302 164.949 0 298.667-133.718 298.667-298.667s-133.718-298.667-298.667-298.667h-355.556c-2.783 0-5.474 0.4-8.016 1.145zM298.667 362.667h341.333c133.53 0 241.778 108.248 241.778 241.778s-108.248 241.778-241.778 241.778c-98.927 0-186.49-59.964-223.461-149.273 35.443-23.498 63.74-57.485 80.16-98.369 5.855-14.578-1.217-31.141-15.795-36.996s-31.141 1.217-36.996 15.795c-23.624 58.821-80.77 98.177-145.242 98.177-86.402 0-156.444-70.043-156.444-156.444s70.043-156.444 156.444-156.444zM711.111 220.444v42.667c0 7.855 6.368 14.222 14.222 14.222s14.222-6.368 14.222-14.222v-42.667h42.667c7.855 0 14.222-6.368 14.222-14.222s-6.368-14.222-14.222-14.222h-42.667v-42.667c0-7.855-6.368-14.222-14.222-14.222s-14.222 6.368-14.222 14.222v42.667h-42.667c-7.855 0-14.222 6.368-14.222 14.222s6.368 14.222 14.222 14.222h42.667zM534.96 78.222h-65.626c-7.855 0-14.222 6.368-14.222 14.222s6.368 14.222 14.222 14.222h62.342l-29.529 51.145c-3.927 6.802-1.597 15.501 5.206 19.428s15.501 1.597 19.428-5.206l31.171-53.99 29.529 51.145c3.927 6.802 12.626 9.133 19.428 5.206s9.133-12.626 5.206-19.428l-27.886-48.301h55.773c7.855 0 14.222-6.368 14.222-14.222s-6.368-14.222-14.222-14.222h-59.057l31.171-53.99c3.927-6.802 1.597-15.501-5.206-19.428s-15.501-1.597-19.428 5.206l-29.529 51.145-31.171-53.99c-3.927-6.802-12.626-9.133-19.428-5.206s-9.133 12.626-5.206 19.428l32.813 56.834zM316.7 163.556h-46.477c-7.855 0-14.222 6.368-14.222 14.222s6.368 14.222 14.222 14.222h46.477l-23.239 40.251c-3.927 6.802-1.597 15.501 5.206 19.428s15.501 1.597 19.428-5.206l23.239-40.251 23.239 40.251c3.927 6.802 12.626 9.133 19.428 5.206s9.133-12.626 5.206-19.428l-23.239-40.251h46.477c7.855 0 14.222-6.368 14.222-14.222s-6.368-14.222-14.222-14.222h-46.477l23.239-40.251c3.927-6.802 1.597-15.501-5.206-19.428s-15.501-1.597-19.428 5.206l-23.239 40.251-23.239-40.251c-3.927-6.802-12.626-9.133-19.428-5.206s-9.133 12.626-5.206 19.428l23.239 40.251z" />
<glyph unicode="&#xe938;" glyph-name="light_rain_o" d="M276.429 278.478c-107.37 11.121-191.095 101.877-191.095 212.188 0 117.821 95.513 213.333 213.333 213.333 23.111 0 45.531-3.709 66.613-10.635 46.402 108.622 153.67 181.302 274.72 181.302 164.949 0 298.667-133.718 298.667-298.667s-133.718-298.667-298.667-298.667h-355.556c-2.783 0-5.474 0.4-8.016 1.145zM298.667 334.222h341.333c133.53 0 241.778 108.248 241.778 241.778s-108.248 241.778-241.778 241.778c-98.927 0-186.49-59.964-223.461-149.273 35.443-23.498 63.74-57.485 80.16-98.369 5.855-14.578-1.217-31.141-15.795-36.996s-31.141 1.217-36.996 15.795c-23.624 58.821-80.77 98.177-145.242 98.177-86.402 0-156.444-70.043-156.444-156.444s70.043-156.444 156.444-156.444zM398.222 220.444c15.709 0 28.444-12.735 28.444-28.444v-85.333c0-15.709-12.735-28.444-28.444-28.444s-28.444 12.735-28.444 28.444v85.333c0 15.709 12.735 28.444 28.444 28.444zM625.778 220.444c15.709 0 28.444-12.735 28.444-28.444v-142.222c0-15.709-12.735-28.444-28.444-28.444s-28.444 12.735-28.444 28.444v142.222c0 15.709 12.735 28.444 28.444 28.444z" />
<glyph unicode="&#xe939;" glyph-name="light_snow_o" d="M487.366 106.667h-74.922c-7.855 0-14.222 6.368-14.222 14.222s6.368 14.222 14.222 14.222h74.922l-37.461 64.884c-3.927 6.802-1.597 15.501 5.206 19.428s15.501 1.597 19.428-5.206l37.461-64.884 37.461 64.884c3.927 6.802 12.626 9.133 19.428 5.206s9.133-12.626 5.206-19.428l-37.461-64.884h74.922c7.855 0 14.222-6.368 14.222-14.222s-6.368-14.222-14.222-14.222h-74.922l37.461-64.884c3.927-6.802 1.597-15.501-5.206-19.428s-15.501-1.597-19.428 5.206l-37.461 64.884-37.461-64.884c-3.927-6.802-12.626-9.133-19.428-5.206s-9.133 12.626-5.206 19.428l37.461 64.884zM276.429 306.923c-107.37 11.121-191.095 101.877-191.095 212.188 0 117.821 95.513 213.333 213.333 213.333 23.111 0 45.531-3.709 66.613-10.635 46.402 108.622 153.67 181.302 274.72 181.302 164.949 0 298.667-133.718 298.667-298.667s-133.718-298.667-298.667-298.667h-355.556c-2.783 0-5.474 0.4-8.016 1.145zM298.667 362.667h341.333c133.53 0 241.778 108.248 241.778 241.778s-108.248 241.778-241.778 241.778c-98.927 0-186.49-59.964-223.461-149.273 35.443-23.498 63.74-57.485 80.16-98.369 5.855-14.578-1.217-31.141-15.795-36.996s-31.141 1.217-36.996 15.795c-23.624 58.821-80.77 98.177-145.242 98.177-86.402 0-156.444-70.043-156.444-156.444s70.043-156.444 156.444-156.444z" />
<glyph unicode="&#xe93a;" glyph-name="moderate_rain_o" d="M276.429 306.923c-107.37 11.121-191.095 101.877-191.095 212.188 0 117.821 95.513 213.333 213.333 213.333 23.111 0 45.531-3.709 66.613-10.635 46.402 108.622 153.67 181.302 274.72 181.302 164.949 0 298.667-133.718 298.667-298.667s-133.718-298.667-298.667-298.667h-355.556c-2.783 0-5.474 0.4-8.016 1.145zM298.667 362.667h341.333c133.53 0 241.778 108.248 241.778 241.778s-108.248 241.778-241.778 241.778c-98.927 0-186.49-59.964-223.461-149.273 35.443-23.498 63.74-57.485 80.16-98.369 5.855-14.578-1.217-31.141-15.795-36.996s-31.141 1.217-36.996 15.795c-23.624 58.821-80.77 98.177-145.242 98.177-86.402 0-156.444-70.043-156.444-156.444s70.043-156.444 156.444-156.444zM512 248.889c15.709 0 28.444-12.735 28.444-28.444v-113.778c0-15.709-12.735-28.444-28.444-28.444s-28.444 12.735-28.444 28.444v113.778c0 15.709 12.735 28.444 28.444 28.444zM341.333 248.889c15.709 0 28.444-12.735 28.444-28.444v-56.889c0-15.709-12.735-28.444-28.444-28.444s-28.444 12.735-28.444 28.444v56.889c0 15.709 12.735 28.444 28.444 28.444zM682.667 248.889c15.709 0 28.444-12.735 28.444-28.444v-199.111c0-15.709-12.735-28.444-28.444-28.444s-28.444 12.735-28.444 28.444v199.111c0 15.709 12.735 28.444 28.444 28.444z" />
<glyph unicode="&#xe93b;" d="M432.524 629.83c-20.748 27.757-53.871 45.725-91.191 45.725-62.838 0-113.778-50.94-113.778-113.778 0-13.045 2.195-25.577 6.237-37.247-18.557-5.156-36.215-12.47-52.689-21.654-6.751 18.359-10.437 38.2-10.437 58.901 0 94.257 76.41 170.667 170.667 170.667 56.821 0 107.156-27.768 138.176-70.474-16.574-9.335-32.296-20.093-46.985-32.14zM458.922 822.336c7.855 13.605 25.251 18.266 38.856 10.411s18.266-25.251 10.411-38.856l-14.222-24.634c-7.855-13.605-25.251-18.266-38.856-10.411s-18.266 25.251-10.411 38.856l14.222 24.634zM56.889 533.333c-15.709 0-28.444 12.735-28.444 28.444s12.735 28.444 28.444 28.444h28.444c15.709 0 28.444-12.735 28.444-28.444s-12.735-28.444-28.444-28.444h-28.444zM174.477 793.892c-7.855 13.605-3.193 31.001 10.411 38.856s31.001 3.193 38.856-10.411l14.222-24.634c7.855-13.605 3.193-31.001-10.411-38.856s-31.001-3.193-38.856 10.411l-14.222 24.634z" />
<glyph unicode="&#xe93c;" d="M276.429 79.367c-107.37 11.121-191.095 101.877-191.095 212.188 0 117.821 95.513 213.333 213.333 213.333 23.111 0 45.531-3.709 66.613-10.635 46.402 108.622 153.67 181.302 274.72 181.302 164.949 0 298.667-133.718 298.667-298.667s-133.718-298.667-298.667-298.667h-355.556c-2.783 0-5.474 0.4-8.016 1.145zM298.667 135.111h341.333c133.53 0 241.778 108.248 241.778 241.778s-108.248 241.778-241.778 241.778c-98.927 0-186.49-59.964-223.461-149.273 35.443-23.498 63.74-57.485 80.16-98.369 5.855-14.578-1.217-31.141-15.795-36.996s-31.141 1.217-36.996 15.795c-23.624 58.821-80.77 98.177-145.242 98.177-86.402 0-156.444-70.043-156.444-156.444s70.043-156.444 156.444-156.444z" />
<glyph unicode="&#xe93d;" d="M276.429 164.701c-107.37 11.121-191.095 101.877-191.095 212.188 0 117.821 95.513 213.333 213.333 213.333 23.111 0 45.531-3.709 66.613-10.635 46.402 108.622 153.67 181.302 274.72 181.302 164.949 0 298.667-133.718 298.667-298.667s-133.718-298.667-298.667-298.667h-355.556c-2.783 0-5.474 0.4-8.016 1.145zM298.667 220.444h341.333c133.53 0 241.778 108.248 241.778 241.778s-108.248 241.778-241.778 241.778c-98.927 0-186.49-59.964-223.461-149.273 35.443-23.498 63.74-57.485 80.16-98.369 5.855-14.578-1.217-31.141-15.795-36.996s-31.141 1.217-36.996 15.795c-23.624 58.821-80.77 98.177-145.242 98.177-86.402 0-156.444-70.043-156.444-156.444s70.043-156.444 156.444-156.444zM312.889 106.667c15.709 0 28.444-12.735 28.444-28.444v-56.889c0-15.709-12.735-28.444-28.444-28.444s-28.444 12.735-28.444 28.444v56.889c0 15.709 12.735 28.444 28.444 28.444zM512 106.667c15.709 0 28.444-12.735 28.444-28.444v-28.444c0-15.709-12.735-28.444-28.444-28.444s-28.444 12.735-28.444 28.444v28.444c0 15.709 12.735 28.444 28.444 28.444zM711.111 106.667c15.709 0 28.444-12.735 28.444-28.444v-56.889c0-15.709-12.735-28.444-28.444-28.444s-28.444 12.735-28.444 28.444v56.889c0 15.709 12.735 28.444 28.444 28.444z" />
<glyph unicode="&#xe93e;" d="M432.524 715.164c-20.748 27.757-53.871 45.725-91.191 45.725-62.838 0-113.778-50.94-113.778-113.778 0-13.045 2.195-25.577 6.237-37.247-18.557-5.156-36.215-12.47-52.689-21.654-6.751 18.359-10.437 38.2-10.437 58.901 0 94.257 76.41 170.667 170.667 170.667 56.821 0 107.156-27.768 138.176-70.474-16.574-9.335-32.296-20.093-46.985-32.14zM458.922 907.669c7.855 13.605 25.251 18.266 38.856 10.411s18.266-25.251 10.411-38.856l-14.222-24.634c-7.855-13.605-25.251-18.266-38.856-10.411s-18.266 25.251-10.411 38.856l14.222 24.634zM56.889 618.667c-15.709 0-28.444 12.735-28.444 28.444s12.735 28.444 28.444 28.444h28.444c15.709 0 28.444-12.735 28.444-28.444s-12.735-28.444-28.444-28.444h-28.444zM174.477 879.225c-7.855 13.605-3.193 31.001 10.411 38.856s31.001 3.193 38.856-10.411l14.222-24.634c7.855-13.605 3.193-31.001-10.411-38.856s-31.001-3.193-38.856 10.411l-14.222 24.634z" />
<glyph unicode="&#xe93f;" glyph-name="sleet_o" d="M276.429 306.923c-107.37 11.121-191.095 101.877-191.095 212.188 0 117.821 95.513 213.333 213.333 213.333 23.111 0 45.531-3.709 66.613-10.635 46.402 108.622 153.67 181.302 274.72 181.302 164.949 0 298.667-133.718 298.667-298.667s-133.718-298.667-298.667-298.667h-355.556c-2.783 0-5.474 0.4-8.016 1.145zM298.667 362.667h341.333c133.53 0 241.778 108.248 241.778 241.778s-108.248 241.778-241.778 241.778c-98.927 0-186.49-59.964-223.461-149.273 35.443-23.498 63.74-57.485 80.16-98.369 5.855-14.578-1.217-31.141-15.795-36.996s-31.141 1.217-36.996 15.795c-23.624 58.821-80.77 98.177-145.242 98.177-86.402 0-156.444-70.043-156.444-156.444s70.043-156.444 156.444-156.444zM455.111 78.222v42.667c0 7.855 6.368 14.222 14.222 14.222s14.222-6.368 14.222-14.222v-42.667h42.667c7.855 0 14.222-6.368 14.222-14.222s-6.368-14.222-14.222-14.222h-42.667v-42.667c0-7.855-6.368-14.222-14.222-14.222s-14.222 6.368-14.222 14.222v42.667h-42.667c-7.855 0-14.222 6.368-14.222 14.222s6.368 14.222 14.222 14.222h42.667zM288.255 163.556h-46.477c-7.855 0-14.222 6.368-14.222 14.222s6.368 14.222 14.222 14.222h46.477l-23.239 40.251c-3.927 6.802-1.597 15.501 5.206 19.428s15.501 1.597 19.428-5.206l23.239-40.251 23.239 40.251c3.927 6.802 12.626 9.133 19.428 5.206s9.133-12.626 5.206-19.428l-23.239-40.251h46.477c7.855 0 14.222-6.368 14.222-14.222s-6.368-14.222-14.222-14.222h-46.477l23.239-40.251c3.927-6.802 1.597-15.501-5.206-19.428s-15.501-1.597-19.428 5.206l-23.239 40.251-23.239-40.251c-3.927-6.802-12.626-9.133-19.428-5.206s-9.133 12.626-5.206 19.428l23.239 40.251zM597.333 248.889c15.709 0 28.444-12.735 28.444-28.444v-56.889c0-15.709-12.735-28.444-28.444-28.444s-28.444 12.735-28.444 28.444v56.889c0 15.709 12.735 28.444 28.444 28.444zM739.556 248.889c15.709 0 28.444-12.735 28.444-28.444v-199.111c0-15.709-12.735-28.444-28.444-28.444s-28.444 12.735-28.444 28.444v199.111c0 15.709 12.735 28.444 28.444 28.444z" />
<glyph unicode="&#xe940;" glyph-name="sunny_o" d="M540.444 817.778c0-15.709-12.735-28.444-28.444-28.444s-28.444 12.735-28.444 28.444v56.889c0 15.709 12.735 28.444 28.444 28.444s28.444-12.735 28.444-28.444v-56.889zM846.459 608.255c-13.605-7.855-31.001-3.193-38.856 10.411s-3.193 31.001 10.411 38.856l49.267 28.444c13.605 7.855 31.001 3.193 38.856-10.411s3.193-31.001-10.411-38.856l-49.267-28.444zM818.015 238.477c-13.605 7.855-18.266 25.251-10.411 38.856s25.251 18.266 38.856 10.411l49.267-28.444c13.605-7.855 18.266-25.251 10.411-38.856s-25.251-18.266-38.856-10.411l-49.267 28.444zM483.556 78.222c0 15.709 12.735 28.444 28.444 28.444s28.444-12.735 28.444-28.444v-56.889c0-15.709-12.735-28.444-28.444-28.444s-28.444 12.735-28.444 28.444v56.889zM177.541 287.745c13.605 7.855 31.001 3.193 38.856-10.411s3.193-31.001-10.411-38.856l-49.267-28.444c-13.605-7.855-31.001-3.193-38.856 10.411s-3.193 31.001 10.411 38.856l49.267 28.444zM205.985 657.523c13.605-7.855 18.266-25.251 10.411-38.856s-25.251-18.266-38.856-10.411l-49.267 28.444c-13.605 7.855-18.266 25.251-10.411 38.856s25.251 18.266 38.856 10.411l49.267-28.444zM512 192c-141.385 0-256 114.615-256 256s114.615 256 256 256c141.385 0 256-114.615 256-256s-114.615-256-256-256zM512 248.889c109.966 0 199.111 89.145 199.111 199.111s-89.145 199.111-199.111 199.111c-109.966 0-199.111-89.145-199.111-199.111s89.145-199.111 199.111-199.111z" />
<glyph unicode="&#xe941;" d="M620.897 305.778l16.662 16.662c22.216 22.216 22.216 58.237 0 80.453s-58.237 22.216-80.453 0l-97.115-97.115h-175.547c-2.783 0-5.474 0.4-8.016 1.145-107.37 11.121-191.095 101.877-191.095 212.188 0 117.821 95.513 213.333 213.333 213.333 23.111 0 45.531-3.709 66.613-10.635 46.402 108.622 153.67 181.302 274.72 181.302 164.949 0 298.667-133.718 298.667-298.667s-133.718-298.667-298.667-298.667h-19.103zM516.88 362.667l40.227 40.227c22.216 22.216 58.237 22.216 80.453 0 11.004-11.004 16.557-25.394 16.661-39.815 126.911 7.361 227.557 112.61 227.557 241.367 0 133.53-108.248 241.778-241.778 241.778-98.927 0-186.49-59.964-223.461-149.273 35.443-23.498 63.74-57.485 80.16-98.369 5.855-14.578-1.217-31.141-15.795-36.996s-31.141 1.217-36.996 15.795c-23.624 58.821-80.77 98.177-145.242 98.177-86.402 0-156.444-70.043-156.444-156.444s70.043-156.444 156.444-156.444h218.214z" />
<glyph unicode="&#xe942;" d="M426.667 163.556h96.899l-117.435-122.541c-10.869-11.342-10.486-29.348 0.856-40.217s29.348-10.486 40.217 0.856l163.556 170.667c17.333 18.086 4.514 48.125-20.537 48.125h-94.885l122.109 122.109c11.108 11.108 11.108 29.118 0 40.227s-29.118 11.108-40.227 0l-170.667-170.667c-17.919-17.919-5.228-48.558 20.113-48.558z" />
<glyph unicode="&#xe943;" glyph-name="cloudy" d="M682.667 136.387v-1.276h-398.222c-125.675 0-227.556 101.88-227.556 227.556s101.88 227.556 227.556 227.556c29.471 0 57.634-5.602 83.481-15.8 48.569 109.83 158.483 186.467 286.297 186.467 172.804 0 312.889-140.085 312.889-312.889 0-163.215-124.971-297.242-284.444-311.613z" />
<glyph unicode="&#xe944;" glyph-name="heavy_rain" d="M654.222 306.11v-0.333h-355.556c-117.821 0-213.333 95.513-213.333 213.333s95.513 213.333 213.333 213.333c23.265 0 45.66-3.724 66.621-10.608 45.608 106.59 151.438 181.275 274.712 181.275 164.949 0 298.667-133.718 298.667-298.667 0-160.181-126.099-290.911-284.444-298.334zM455.111 248.889c15.709 0 28.444-12.735 28.444-28.444v-199.111c0-15.709-12.735-28.444-28.444-28.444s-28.444 12.735-28.444 28.444v199.111c0 15.709 12.735 28.444 28.444 28.444zM312.889 248.889c15.709 0 28.444-12.735 28.444-28.444v-113.778c0-15.709-12.735-28.444-28.444-28.444s-28.444 12.735-28.444 28.444v113.778c0 15.709 12.735 28.444 28.444 28.444zM597.333 248.889c15.709 0 28.444-12.735 28.444-28.444v-113.778c0-15.709-12.735-28.444-28.444-28.444s-28.444 12.735-28.444 28.444v113.778c0 15.709 12.735 28.444 28.444 28.444zM739.556 248.889c15.709 0 28.444-12.735 28.444-28.444v-199.111c0-15.709-12.735-28.444-28.444-28.444s-28.444 12.735-28.444 28.444v199.111c0 15.709 12.735 28.444 28.444 28.444z" />
<glyph unicode="&#xe945;" glyph-name="heavy_snow" d="M711.111 220.444v42.667c0 7.855 6.368 14.222 14.222 14.222s14.222-6.368 14.222-14.222v-42.667h42.667c7.855 0 14.222-6.368 14.222-14.222s-6.368-14.222-14.222-14.222h-42.667v-42.667c0-7.855-6.368-14.222-14.222-14.222s-14.222 6.368-14.222 14.222v42.667h-42.667c-7.855 0-14.222 6.368-14.222 14.222s6.368 14.222 14.222 14.222h42.667zM534.96 78.222h-65.626c-7.855 0-14.222 6.368-14.222 14.222s6.368 14.222 14.222 14.222h62.342l-29.529 51.145c-3.927 6.802-1.597 15.501 5.206 19.428s15.501 1.597 19.428-5.206l31.171-53.99 29.529 51.145c3.927 6.802 12.626 9.133 19.428 5.206s9.133-12.626 5.206-19.428l-27.886-48.301h55.773c7.855 0 14.222-6.368 14.222-14.222s-6.368-14.222-14.222-14.222h-59.057l31.171-53.99c3.927-6.802 1.597-15.501-5.206-19.428s-15.501-1.597-19.428 5.206l-29.529 51.145-31.171-53.99c-3.927-6.802-12.626-9.133-19.428-5.206s-9.133 12.626-5.206 19.428l32.813 56.834zM316.7 163.556h-46.477c-7.855 0-14.222 6.368-14.222 14.222s6.368 14.222 14.222 14.222h46.477l-23.239 40.251c-3.927 6.802-1.597 15.501 5.206 19.428s15.501 1.597 19.428-5.206l23.239-40.251 23.239 40.251c3.927 6.802 12.626 9.133 19.428 5.206s9.133-12.626 5.206-19.428l-23.239-40.251h46.477c7.855 0 14.222-6.368 14.222-14.222s-6.368-14.222-14.222-14.222h-46.477l23.239-40.251c3.927-6.802 1.597-15.501-5.206-19.428s-15.501-1.597-19.428 5.206l-23.239 40.251-23.239-40.251c-3.927-6.802-12.626-9.133-19.428-5.206s-9.133 12.626-5.206 19.428l23.239 40.251zM654.222 306.11v-0.333h-355.556c-117.821 0-213.333 95.513-213.333 213.333s95.513 213.333 213.333 213.333c23.265 0 45.66-3.724 66.621-10.608 45.608 106.59 151.438 181.275 274.712 181.275 164.949 0 298.667-133.718 298.667-298.667 0-160.181-126.099-290.911-284.444-298.334z" />
<glyph unicode="&#xe946;" glyph-name="light_rain" d="M654.222 277.666v-0.333h-355.556c-117.821 0-213.333 95.513-213.333 213.333s95.513 213.333 213.333 213.333c23.265 0 45.66-3.724 66.621-10.608 45.608 106.59 151.438 181.275 274.712 181.275 164.949 0 298.667-133.718 298.667-298.667 0-160.181-126.099-290.911-284.444-298.334zM398.222 220.444c15.709 0 28.444-12.735 28.444-28.444v-85.333c0-15.709-12.735-28.444-28.444-28.444s-28.444 12.735-28.444 28.444v85.333c0 15.709 12.735 28.444 28.444 28.444zM625.778 220.444c15.709 0 28.444-12.735 28.444-28.444v-142.222c0-15.709-12.735-28.444-28.444-28.444s-28.444 12.735-28.444 28.444v142.222c0 15.709 12.735 28.444 28.444 28.444z" />
<glyph unicode="&#xe947;" glyph-name="light_snow" d="M487.366 106.667h-74.922c-7.855 0-14.222 6.368-14.222 14.222s6.368 14.222 14.222 14.222h74.922l-37.461 64.884c-3.927 6.802-1.597 15.501 5.206 19.428s15.501 1.597 19.428-5.206l37.461-64.884 37.461 64.884c3.927 6.802 12.626 9.133 19.428 5.206s9.133-12.626 5.206-19.428l-37.461-64.884h74.922c7.855 0 14.222-6.368 14.222-14.222s-6.368-14.222-14.222-14.222h-74.922l37.461-64.884c3.927-6.802 1.597-15.501-5.206-19.428s-15.501-1.597-19.428 5.206l-37.461 64.884-37.461-64.884c-3.927-6.802-12.626-9.133-19.428-5.206s-9.133 12.626-5.206 19.428l37.461 64.884zM654.222 306.11v-0.333h-355.556c-117.821 0-213.333 95.513-213.333 213.333s95.513 213.333 213.333 213.333c23.265 0 45.66-3.724 66.621-10.608 45.608 106.59 151.438 181.275 274.712 181.275 164.949 0 298.667-133.718 298.667-298.667 0-160.181-126.099-290.911-284.444-298.334z" />
<glyph unicode="&#xe948;" glyph-name="moderate_rain" d="M654.222 306.11v-0.333h-355.556c-117.821 0-213.333 95.513-213.333 213.333s95.513 213.333 213.333 213.333c23.265 0 45.66-3.724 66.621-10.608 45.608 106.59 151.438 181.275 274.712 181.275 164.949 0 298.667-133.718 298.667-298.667 0-160.181-126.099-290.911-284.444-298.334zM512 248.889c15.709 0 28.444-12.735 28.444-28.444v-113.778c0-15.709-12.735-28.444-28.444-28.444s-28.444 12.735-28.444 28.444v113.778c0 15.709 12.735 28.444 28.444 28.444zM341.333 248.889c15.709 0 28.444-12.735 28.444-28.444v-56.889c0-15.709-12.735-28.444-28.444-28.444s-28.444 12.735-28.444 28.444v56.889c0 15.709 12.735 28.444 28.444 28.444zM682.667 248.889c15.709 0 28.444-12.735 28.444-28.444v-199.111c0-15.709-12.735-28.444-28.444-28.444s-28.444 12.735-28.444 28.444v199.111c0 15.709 12.735 28.444 28.444 28.444z" />
<glyph unicode="&#xe949;" d="M181.103 502.877c-6.751 18.359-10.437 38.2-10.437 58.901 0 94.257 76.41 170.667 170.667 170.667 56.821 0 107.156-27.768 138.176-70.474-54.684-30.799-100.088-77.092-129.746-134.053-16.658 3.586-33.762 5.415-51.097 5.415-42.672 0-82.763-11.055-117.563-30.457zM458.922 822.336c7.855 13.605 25.251 18.266 38.856 10.411s18.266-25.251 10.411-38.856l-14.222-24.634c-7.855-13.605-25.251-18.266-38.856-10.411s-18.266 25.251-10.411 38.856l14.222 24.634zM56.889 533.333c-15.709 0-28.444 12.735-28.444 28.444s12.735 28.444 28.444 28.444h28.444c15.709 0 28.444-12.735 28.444-28.444s-12.735-28.444-28.444-28.444h-28.444zM174.477 793.892c-7.855 13.605-3.193 31.001 10.411 38.856s31.001 3.193 38.856-10.411l14.222-24.634c7.855-13.605 3.193-31.001-10.411-38.856s-31.001-3.193-38.856 10.411l-14.222 24.634z" />
<glyph unicode="&#xe94a;" d="M654.222 78.555v-0.333h-355.556c-117.821 0-213.333 95.513-213.333 213.333s95.513 213.333 213.333 213.333c23.265 0 45.66-3.724 66.621-10.608 45.608 106.59 151.438 181.275 274.712 181.275 164.949 0 298.667-133.718 298.667-298.667 0-160.181-126.099-290.911-284.444-298.334z" />
<glyph unicode="&#xe94b;" d="M654.222 163.888v-0.333h-355.556c-117.821 0-213.333 95.513-213.333 213.333s95.513 213.333 213.333 213.333c23.265 0 45.66-3.724 66.621-10.608 45.608 106.59 151.438 181.275 274.712 181.275 164.949 0 298.667-133.718 298.667-298.667 0-160.181-126.099-290.911-284.444-298.334zM312.889 106.667c15.709 0 28.444-12.735 28.444-28.444v-56.889c0-15.709-12.735-28.444-28.444-28.444s-28.444 12.735-28.444 28.444v56.889c0 15.709 12.735 28.444 28.444 28.444zM512 106.667c15.709 0 28.444-12.735 28.444-28.444v-28.444c0-15.709-12.735-28.444-28.444-28.444s-28.444 12.735-28.444 28.444v28.444c0 15.709 12.735 28.444 28.444 28.444zM711.111 106.667c15.709 0 28.444-12.735 28.444-28.444v-56.889c0-15.709-12.735-28.444-28.444-28.444s-28.444 12.735-28.444 28.444v56.889c0 15.709 12.735 28.444 28.444 28.444z" />
<glyph unicode="&#xe94c;" d="M181.103 588.21c-6.751 18.359-10.437 38.2-10.437 58.901 0 94.257 76.41 170.667 170.667 170.667 56.821 0 107.156-27.768 138.176-70.474-54.684-30.799-100.088-77.092-129.746-134.053-16.658 3.586-33.762 5.415-51.097 5.415-42.672 0-82.763-11.055-117.563-30.457zM458.922 907.669c7.855 13.605 25.251 18.266 38.856 10.411s18.266-25.251 10.411-38.856l-14.222-24.634c-7.855-13.605-25.251-18.266-38.856-10.411s-18.266 25.251-10.411 38.856l14.222 24.634zM56.889 618.667c-15.709 0-28.444 12.735-28.444 28.444s12.735 28.444 28.444 28.444h28.444c15.709 0 28.444-12.735 28.444-28.444s-12.735-28.444-28.444-28.444h-28.444zM174.477 879.225c-7.855 13.605-3.193 31.001 10.411 38.856s31.001 3.193 38.856-10.411l14.222-24.634c7.855-13.605 3.193-31.001-10.411-38.856s-31.001-3.193-38.856 10.411l-14.222 24.634z" />
<glyph unicode="&#xe94d;" glyph-name="sleet" d="M455.111 78.222v42.667c0 7.855 6.368 14.222 14.222 14.222s14.222-6.368 14.222-14.222v-42.667h42.667c7.855 0 14.222-6.368 14.222-14.222s-6.368-14.222-14.222-14.222h-42.667v-42.667c0-7.855-6.368-14.222-14.222-14.222s-14.222 6.368-14.222 14.222v42.667h-42.667c-7.855 0-14.222 6.368-14.222 14.222s6.368 14.222 14.222 14.222h42.667zM288.255 163.556h-46.477c-7.855 0-14.222 6.368-14.222 14.222s6.368 14.222 14.222 14.222h46.477l-23.239 40.251c-3.927 6.802-1.597 15.501 5.206 19.428s15.501 1.597 19.428-5.206l23.239-40.251 23.239 40.251c3.927 6.802 12.626 9.133 19.428 5.206s9.133-12.626 5.206-19.428l-23.239-40.251h46.477c7.855 0 14.222-6.368 14.222-14.222s-6.368-14.222-14.222-14.222h-46.477l23.239-40.251c3.927-6.802 1.597-15.501-5.206-19.428s-15.501-1.597-19.428 5.206l-23.239 40.251-23.239-40.251c-3.927-6.802-12.626-9.133-19.428-5.206s-9.133 12.626-5.206 19.428l23.239 40.251zM654.222 306.11v-0.333h-355.556c-117.821 0-213.333 95.513-213.333 213.333s95.513 213.333 213.333 213.333c23.265 0 45.66-3.724 66.621-10.608 45.608 106.59 151.438 181.275 274.712 181.275 164.949 0 298.667-133.718 298.667-298.667 0-160.181-126.099-290.911-284.444-298.334zM597.333 248.889c15.709 0 28.444-12.735 28.444-28.444v-56.889c0-15.709-12.735-28.444-28.444-28.444s-28.444 12.735-28.444 28.444v56.889c0 15.709 12.735 28.444 28.444 28.444zM739.556 248.889c15.709 0 28.444-12.735 28.444-28.444v-199.111c0-15.709-12.735-28.444-28.444-28.444s-28.444 12.735-28.444 28.444v199.111c0 15.709 12.735 28.444 28.444 28.444z" />
<glyph unicode="&#xe94e;" glyph-name="sunny" d="M768 448c0-141.385-114.615-256-256-256s-256 114.615-256 256c0 141.385 114.615 256 256 256s256-114.615 256-256zM540.444 817.778c0-15.709-12.735-28.444-28.444-28.444s-28.444 12.735-28.444 28.444v56.889c0 15.709 12.735 28.444 28.444 28.444s28.444-12.735 28.444-28.444v-56.889zM846.459 608.255c-13.605-7.855-31.001-3.193-38.856 10.411s-3.193 31.001 10.411 38.856l49.267 28.444c13.605 7.855 31.001 3.193 38.856-10.411s3.193-31.001-10.411-38.856l-49.267-28.444zM818.015 238.477c-13.605 7.855-18.266 25.251-10.411 38.856s25.251 18.266 38.856 10.411l49.267-28.444c13.605-7.855 18.266-25.251 10.411-38.856s-25.251-18.266-38.856-10.411l-49.267 28.444zM483.556 78.222c0 15.709 12.735 28.444 28.444 28.444s28.444-12.735 28.444-28.444v-56.889c0-15.709-12.735-28.444-28.444-28.444s-28.444 12.735-28.444 28.444v56.889zM177.541 287.745c13.605 7.855 31.001 3.193 38.856-10.411s3.193-31.001-10.411-38.856l-49.267-28.444c-13.605-7.855-31.001-3.193-38.856 10.411s-3.193 31.001 10.411 38.856l49.267 28.444zM205.985 657.523c13.605-7.855 18.266-25.251 10.411-38.856s-25.251-18.266-38.856-10.411l-49.267 28.444c-13.605 7.855-18.266 25.251-10.411 38.856s25.251 18.266 38.856 10.411l49.267-28.444z" />
<glyph unicode="&#xe94f;" d="M394.865 305.778h-96.198c-117.821 0-213.333 95.513-213.333 213.333s95.513 213.333 213.333 213.333c23.265 0 45.66-3.724 66.621-10.608 45.608 106.59 151.438 181.275 274.712 181.275 164.949 0 298.667-133.718 298.667-298.667 0-160.181-126.099-290.911-284.444-298.334v-0.333h-53.531l42.667 85.333h-205.826l-42.667-85.333z" />
<glyph unicode="&#xe950;" d="M455.111 362.667h142.222l-56.889-113.778h85.333l-256-256 85.333 199.111h-85.333z" />
</font>
</defs>
</svg>
