<?xml version="1.0" encoding="UTF-8"?>
<svg width="18px" height="18px" viewBox="0 0 18 18" version="1.1" xmlns="http://www.w3.org/2000/svg" xmlns:xlink="http://www.w3.org/1999/xlink">
    <!-- Generator: Sketch 53.1 (72631) - https://sketchapp.com -->
    <title>风</title>
    <desc>Created with Sketch.</desc>
    <g id="Page-1" stroke="none" stroke-width="1" fill="none" fill-rule="evenodd">
        <g id="细节" transform="translate(-106.000000, -154.000000)">
            <g id="风" transform="translate(106.000000, 154.000000)">
                <rect id="square-36px" x="0" y="0" width="18" height="18"></rect>
                <path d="M14.0661877,7.96666667 C14.1391032,7.96666666 14.2114789,7.9632048 14.2831431,7.95633705 C15.3354691,7.8554902 16.1321839,7.03491814 16.1321839,6.06666667 C16.1321839,5.02507594 15.2144027,4.16666667 14.0661876,4.16666667 C13.1927918,4.16666667 12.4278658,4.66912113 12.1299063,5.40263133 C12.0259814,5.65847154 11.7343341,5.78162318 11.4784939,5.67769822 C11.2226537,5.57377326 11.099502,5.28212596 11.203427,5.02628575 C11.6562513,3.91153264 12.7902194,3.16666667 14.0661876,3.16666667 C15.7522938,3.16666667 17.1321839,4.45729059 17.1321839,6.06666667 C17.1321839,7.52518679 15.9933615,8.73695367 14.5017483,8.9375941 C14.4491252,8.95641536 14.3924264,8.96666667 14.3333333,8.96666667 L1.54661733,8.96666667 C1.27047496,8.96666667 1.04661733,8.74280904 1.04661733,8.46666667 C1.04661733,8.19052429 1.27047496,7.96666667 1.54661733,7.96666667 L14.0661877,7.96666667 Z M11.717706,10.9692275 C13.1533246,11.0305757 14.3039486,12.1813049 14.3039486,13.5999878 C14.3039486,15.0582018 13.0883079,16.2333211 11.597052,16.2333211 C11.3209097,16.2333211 11.097052,16.0094635 11.097052,15.7333211 C11.097052,15.4571788 11.3209097,15.2333211 11.597052,15.2333211 C12.5434668,15.2333211 13.3039486,14.4981888 13.3039486,13.5999878 C13.3039486,12.7017868 12.5434668,11.9666545 11.597052,11.9666545 L1.54661733,11.9666545 C1.27047496,11.9666545 1.04661733,11.7427968 1.04661733,11.4666545 C1.04661733,11.1905121 1.27047496,10.9666545 1.54661733,10.9666545 L11.6666667,10.9666545 C11.6838973,10.9666545 11.7009243,10.967526 11.717706,10.9692275 Z M7.3303854,4.96667887 C8.27680019,4.96667886 9.03728193,4.23154651 9.03728193,3.33334554 C9.03728193,2.43514457 8.27680018,1.70001221 7.33038538,1.70001221 C6.6113069,1.70001221 5.97955626,2.12890083 5.73201448,2.75872447 C5.63100311,3.01572898 5.3407739,3.14218639 5.0837694,3.04117502 C4.8267649,2.94016365 4.70030748,2.64993444 4.80131885,2.39292993 C5.19949206,1.37985286 6.20089369,0.700012207 7.33038538,0.700012207 C8.8216412,0.700012207 10.0372819,1.87513158 10.0372819,3.33334554 C10.0372819,4.62236633 9.08737166,5.690175 7.83686653,5.92061237 C7.77303725,5.95017893 7.70192088,5.96667887 7.62695075,5.96667887 L1.54661733,5.96667887 C1.27047496,5.96667887 1.04661733,5.74282125 1.04661733,5.46667887 C1.04661733,5.1905365 1.27047496,4.96667887 1.54661733,4.96667887 L7.3303859,4.96667887 Z" fill="#CCCCCC" fill-rule="nonzero"></path>
            </g>
        </g>
    </g>
</svg>