<?xml version="1.0" encoding="UTF-8"?>
<svg width="16px" height="16px" viewBox="0 0 16 16" version="1.1" xmlns="http://www.w3.org/2000/svg" xmlns:xlink="http://www.w3.org/1999/xlink">
    <!-- Generator: Sketch 53.2 (72643) - https://sketchapp.com -->
    <title>delete_o</title>
    <desc>Created with Sketch.</desc>
    <g id="待办工作" stroke="none" stroke-width="1" fill="none" fill-rule="evenodd">
        <g id="搜索-历史记录" transform="translate(-338.000000, -86.000000)">
            <g id="delete_o" transform="translate(337.000000, 85.000000)">
                <rect x="0" y="0" width="18" height="18"></rect>
                <path d="M16,6 L16,16 C16,16.5522847 15.5522847,17 15,17 L3,17 C2.44771525,17 2,16.5522847 2,16 L2,6 C1.44771525,6 1,5.55228475 1,5 C1,4.44771525 1.44771525,4 2,4 L16,4 C16.5522847,4 17,4.44771525 17,5 C17,5.55228475 16.5522847,6 16,6 Z M14,6 L4,6 L4,15 L14,15 L14,6 Z M6,2 C6,1.44771525 6.44771525,1 7,1 L11,1 C11.5522847,1 12,1.44771525 12,2 C12,2.55228475 11.5522847,3 11,3 L7,3 C6.44771525,3 6,2.55228475 6,2 Z M7,7 C7.55228475,7 8,7.44771525 8,8 L8,13 C8,13.5522847 7.55228475,14 7,14 C6.44771525,14 6,13.5522847 6,13 L6,8 C6,7.44771525 6.44771525,7 7,7 Z M11,7 C11.5522847,7 12,7.44771525 12,8 L12,13 C12,13.5522847 11.5522847,14 11,14 C10.4477153,14 10,13.5522847 10,13 L10,8 C10,7.44771525 10.4477153,7 11,7 Z" fill="#3C3E47" fill-rule="nonzero"></path>
            </g>
        </g>
    </g>
</svg>