<?xml version="1.0" encoding="UTF-8"?>
<svg width="80px" height="80px" viewBox="0 0 80 80" version="1.1" xmlns="http://www.w3.org/2000/svg" xmlns:xlink="http://www.w3.org/1999/xlink">
    <!-- Generator: Sketch 53.2 (72643) - https://sketchapp.com -->
    <title>分组</title>
    <desc>Created with Sketch.</desc>
    <g id="SP1030" stroke="none" stroke-width="1" fill="none" fill-rule="evenodd">
        <g id="搜索-无结果" transform="translate(-148.000000, -196.000000)" fill="#D7DBE0">
            <g id="分组" transform="translate(148.000000, 196.000000)">
                <path d="M75.9544296,31.691624 C75.4126748,29.6408006 73.4843161,28.1725049 70.2342743,27.3092351 C69.8658694,27.2009142 69.4761486,27.1148975 69.0643332,27.0282021 C68.2625051,26.8553929 67.5043794,27.3740143 67.3310295,28.172117 C67.1728636,28.9642073 67.6853212,29.7351571 68.478876,29.8991415 C68.8259651,29.9639207 69.1723727,30.0503252 69.4757593,30.1366328 C71.5775652,30.69802 72.8557404,31.518136 73.1375191,32.4466699 L73.1375191,32.4681983 C73.5709423,34.0656645 71.404118,36.6774872 66.9409194,39.570149 C66.8108827,37.8431245 66.5291041,36.0945716 66.052757,34.3675471 C63.9528977,26.5565166 58.5311651,20.0500882 51.2110521,16.5579281 C45.2277088,13.708905 38.4201508,13.0807991 32.0139935,14.787362 C20.0972386,17.9606689 12.080125,28.4308458 11.4516467,40.0878975 C8.89519896,41.5989591 6.81539026,43.132034 5.25504707,44.6647209 C4.36688466,45.5283786 3.67377731,46.4132738 3.15324114,47.3201823 C2.63358097,48.2269938 2.33009709,49.1979057 2.33009709,50.1911217 C2.33009709,50.5794089 2.37350755,50.9684719 2.48183903,51.3351337 L2.48183903,51.3563711 C3.45672502,54.9182561 8.70014389,56.4724715 15.8936267,56.5805015 C17.9011171,59.6491725 20.491826,62.296682 23.5201435,64.3736886 C28.1442334,67.5348736 33.6203751,69.2281509 39.2287922,69.2307692 C41.6339847,69.2307692 44.0604931,68.9284987 46.4218858,68.2810949 C58.338738,65.107788 66.3770701,54.6163735 66.9838432,42.9376964 C73.1375191,39.2677815 76.907221,35.2955961 75.9757454,31.7337111 C75.9544296,31.7132494 75.9544296,31.691624 75.9544296,31.691624 Z M5.29845753,50.5805726 C5.29845753,50.5589472 5.29845753,50.5589472 5.29845753,50.5805726 C5.25699373,50.4476201 5.2352885,50.3097219 5.23343917,50.1702722 C5.23343917,49.8032225 5.36337855,49.3282398 5.68808099,48.7239898 C6.27285686,47.6879108 7.5082056,46.3711868 9.28491975,44.9896835 C9.99437902,44.4506975 10.7243755,43.9392523 11.4733519,43.4567056 C11.6033886,45.1840211 11.88507,46.9322831 12.3615143,48.680836 C12.8166428,50.4077635 13.4447318,52.0483834 14.2248547,53.6246121 C8.93812275,53.3435791 5.75309935,52.1779418 5.29845753,50.5805726 Z M45.6425415,65.4328475 C38.6258151,67.3121225 31.1349804,66.0339944 25.1456024,61.9356447 C22.9536662,60.4378687 21.0153795,58.6014566 19.4036446,56.4956485 C26.3154461,56.193378 34.4842043,54.8334032 42.2191499,52.7609544 C49.9760927,50.6888935 57.7326462,47.8174692 63.8643248,44.6226339 C62.6293654,54.3151697 55.6742508,62.7557608 45.6425415,65.4328475 Z M41.4822428,49.9546971 C31.8839568,52.523463 23.6935907,53.6030837 17.5620094,53.6893913 C16.5438103,51.8760592 15.7418848,49.9546971 15.2001301,47.9254991 C11.6467018,34.7353725 19.5336813,21.113805 32.7938244,17.5734484 C34.892905,17.0155523 37.0559333,16.7321919 39.2287922,16.7314161 C42.9491464,16.7321919 46.6219048,17.5654965 49.9757034,19.1705267 C56.5407079,22.3006798 61.3727981,28.1077257 63.2574544,35.1024222 C63.8209144,37.1529547 64.0809878,39.2254035 64.102693,41.2762269 C58.7296268,44.2555842 51.0810154,47.3856403 41.4822428,49.9546971 Z" id="Fill-1"></path>
                <path d="M34.2475214,23.5475761 C28.1154579,25.088039 23.1795849,29.5997077 21.0702808,35.5649208 C20.8092796,36.3239951 21.2007814,37.1700853 21.9616117,37.4304507 C22.113895,37.495542 22.2878632,37.5168819 22.4400488,37.5168819 C23.0651038,37.5199026 23.6233455,37.1281851 23.8316972,36.5409013 C25.6150427,31.4864799 29.7897924,27.6908161 34.964884,26.3890865 C35.7478877,26.1938124 36.2259341,25.3913764 36.0301832,24.6103776 C35.8352137,23.8300609 35.030525,23.3526918 34.2475214,23.5475761 Z M22.9403663,42.3977588 C22.9185836,41.5953228 22.2230037,40.944799 21.418315,40.9878685 C20.6139194,41.0092083 19.983199,41.7034836 20.0049817,42.5062119 C20.0263736,43.1783678 20.0916239,43.8726431 20.2003419,44.5452862 C20.3052503,45.2673325 20.9257143,45.8028745 21.6571429,45.8032643 C21.7223932,45.8032643 21.8093284,45.8032643 21.8745788,45.7815347 C22.6789744,45.6730816 23.2226618,44.9141048 23.1139438,44.1113764 C23.0242735,43.5437759 22.9662515,42.9716931 22.9403663,42.3977588 Z M66.7773382,11.2490134 C63.6462027,11.2490134 61.0802442,13.7866017 61.0802442,16.9318392 C61.0802442,20.0769793 63.62442,22.6150548 66.7773382,22.6150548 C69.9301587,22.6150548 72.4744322,20.0769793 72.4744322,16.9318392 C72.4744322,13.7866017 69.9301587,11.2490134 66.7773382,11.2490134 Z M66.7773382,20.0340073 C65.0599267,20.0340073 63.6679853,18.6458465 63.6679853,16.9318392 C63.6679853,15.2182217 65.0591453,13.8300609 66.7773382,13.8300609 C67.6022466,13.8296711 68.3932601,14.1565895 68.9763126,14.7382217 C69.5596581,15.3198538 69.8870818,16.1092326 69.8870818,16.9318392 C69.9084737,18.6458465 68.4951404,20.0340073 66.7773382,20.0340073 Z" id="Fill-2"></path>
                <path d="M24.4406349,72.5361267 L23.1360195,72.1022168 L22.7010501,70.8004872 C22.5923321,70.4971498 22.3313309,70.3018758 22.0054701,70.3018758 C21.6792186,70.3018758 21.418315,70.4971498 21.3094994,70.8004872 L20.8745299,72.1022168 L19.5700122,72.5361267 C19.2654457,72.6446772 19.0697924,72.9049452 19.0697924,73.2300122 C19.0697924,73.5554689 19.2654457,73.8154446 19.5700122,73.9242875 L20.8745299,74.357905 L21.3094994,75.6596346 C21.418315,75.9633618 21.6792186,76.1586358 22.0054701,76.1586358 C22.3313309,76.1586358 22.5923321,75.9633618 22.7010501,75.6596346 L23.1360195,74.357905 L24.4406349,73.9242875 C24.7451038,73.8154446 24.9408547,73.5554689 24.9408547,73.2300122 C24.9408547,72.9049452 24.7451038,72.6446772 24.4406349,72.5361267 Z M37.182906,3.62250914 L38.4879121,4.056419 L38.9224908,5.35775883 C39.0315995,5.66158343 39.29221,5.85676005 39.6184615,5.85676005 C39.9443223,5.85676005 40.2053236,5.66158343 40.3140415,5.35775883 L40.749011,4.056419 L42.0535287,3.62250914 C42.3580952,3.51395859 42.5538462,3.25369062 42.5538462,2.92823386 C42.5538462,2.60316687 42.3580952,2.34280146 42.0535287,2.23434836 L40.749011,1.80043849 L40.3140415,0.499001218 C40.2053236,0.195274056 39.9443223,1.42108547e-14 39.6184615,1.42108547e-14 C39.29221,1.42108547e-14 39.0315995,0.195274056 38.9224908,0.499001218 L38.4879121,1.80043849 L37.182906,2.23434836 C36.8784371,2.34280146 36.6826862,2.60316687 36.6826862,2.92823386 C36.6826862,3.25369062 36.8784371,3.51395859 37.182906,3.62250914 Z M2.95746032,33.1878197 C3.06627595,33.4915469 3.32717949,33.686821 3.65343101,33.686821 C3.97929182,33.686821 4.24029304,33.4915469 4.34901099,33.1878197 L4.9580464,31.3440195 L6.80634921,30.7365652 C7.11081807,30.6276248 7.30656899,30.3676492 7.30656899,30.0422899 C7.30656899,29.7172229 7.11081807,29.4568575 6.80634921,29.3483069 L4.9580464,28.7408526 L4.34901099,26.8966626 C4.24029304,26.5929354 3.97929182,26.3980512 3.65343101,26.3980512 C3.32717949,26.3980512 3.06627595,26.5929354 2.95746032,26.8966626 L2.34852259,28.7408526 L0.50021978,29.3483069 C0.195750916,29.4568575 -9.23705556e-14,29.7172229 -9.23705556e-14,30.0422899 C-9.23705556e-14,30.3676492 0.195750916,30.6276248 0.50021978,30.7365652 L2.34852259,31.3440195 L2.95746032,33.1878197 Z M16.8520635,9.52272838 C16.8517705,10.0495006 17.1332845,10.5367113 17.5908181,10.8004872 C18.0483516,11.0638733 18.6118681,11.0642631 19.0694017,10.800877 C19.5268376,10.5374909 19.80884,10.0506699 19.8092308,9.52380024 L19.8092308,9.52272838 C19.8092308,8.99585871 19.527619,8.50864799 19.0704762,8.24487211 C18.6130403,7.98148599 18.0494261,7.98109622 17.5919902,8.24448234 C17.1344567,8.50757613 16.8520635,8.99439708 16.8520635,9.52155907 L16.8520635,9.52272838 Z M37.4008303,78.3492326 C37.4004396,79.1637515 38.0620269,79.8245067 38.8786325,79.8248965 C39.6951404,79.8252862 40.3575092,79.1649208 40.3578999,78.3503045 L40.3578999,78.3492326 C40.3578999,77.822363 40.0762882,77.3351523 39.6188523,77.0717661 C39.1617094,76.8079903 38.5980952,76.8076005 38.1402686,77.0709866 C37.682735,77.3344702 37.4008303,77.8212911 37.4008303,78.3480633 L37.4008303,78.3492326 Z M77.0405861,44.6624117 C77.0405861,45.4773203 77.7025641,46.1380755 78.5195604,46.1380755 C79.3364591,46.1380755 79.9984371,45.4773203 79.9984371,44.6624117 C79.9984371,43.8477954 79.3364591,43.1870402 78.5195604,43.1870402 C77.7025641,43.1870402 77.0405861,43.8477954 77.0405861,44.6624117 Z M50.6211477,9.52272838 C50.6211477,10.3372473 51.2832234,10.9976127 52.0997314,10.9976127 C52.9162393,10.9976127 53.578315,10.3372473 53.5787057,9.52272838 C53.578315,8.70811206 52.9162393,8.04774665 52.0997314,8.04774665 C51.2832234,8.04774665 50.6211477,8.70811206 50.6211477,9.52272838 Z M74.365812,60.0848721 L72.5175092,59.4774178 L71.9085714,57.6336175 C71.7998535,57.3298904 71.5388523,57.1346163 71.2129915,57.1346163 C70.8867399,57.1346163 70.6257387,57.3298904 70.5170208,57.6336175 L69.908083,59.4774178 L68.0597802,60.0848721 C67.7553114,60.193715 67.5595604,60.4536906 67.5595604,60.7791474 C67.5595604,61.1042144 67.7553114,61.3645798 68.0597802,61.4730329 L69.908083,62.0805847 L70.5170208,63.9246772 C70.6257387,64.2285018 70.8867399,64.4233861 71.2129915,64.4233861 C71.5388523,64.4233861 71.7998535,64.2285018 71.9085714,63.9246772 L72.5175092,62.0805847 L74.365812,61.4730329 C74.6703785,61.3645798 74.8660317,61.1042144 74.8660317,60.7791474 C74.8660317,60.4536906 74.6485958,60.193715 74.365812,60.0848721 Z" id="Fill-4" opacity="0.399018787"></path>
                <ellipse id="椭圆形" opacity="0.3" cx="46.2135922" cy="48.8461538" rx="22.1359223" ry="21.9230769"></ellipse>
                <ellipse id="椭圆形-copy" opacity="0.3" cx="67.961165" cy="18.0769231" rx="2.7184466" ry="2.69230769"></ellipse>
            </g>
        </g>
    </g>
</svg>