<?xml version="1.0" encoding="UTF-8"?>
<svg width="18px" height="18px" viewBox="0 0 18 18" version="1.1" xmlns="http://www.w3.org/2000/svg" xmlns:xlink="http://www.w3.org/1999/xlink">
    <!-- Generator: Sketch 52.4 (67378) - http://www.bohemiancoding.com/sketch -->
    <title>menu</title>
    <desc>Created with Sketch.</desc>
    <g id="系统-icon" stroke="none" stroke-width="1" fill="none" fill-rule="evenodd">
        <g id="网页端-icon-切图" transform="translate(-83.000000, -243.000000)">
            <g id="menu" transform="translate(83.000000, 243.000000)">
                <rect x="0" y="0" width="18" height="18"></rect>
                <path d="M3,5 C2.44771525,5 2,4.55228475 2,4 C2,3.44771525 2.44771525,3 3,3 L15,3 C15.5522847,3 16,3.44771525 16,4 C16,4.55228475 15.5522847,5 15,5 L3,5 Z M3,10 C2.44771525,10 2,9.55228475 2,9 C2,8.44771525 2.44771525,8 3,8 L15,8 C15.5522847,8 16,8.44771525 16,9 C16,9.55228475 15.5522847,10 15,10 L3,10 Z M3,15 C2.44771525,15 2,14.5522847 2,14 C2,13.4477153 2.44771525,13 3,13 L15,13 C15.5522847,13 16,13.4477153 16,14 C16,14.5522847 15.5522847,15 15,15 L3,15 Z" fill="#1B1E30" fill-rule="nonzero"></path>
            </g>
        </g>
    </g>
</svg>