<?xml version="1.0" encoding="UTF-8"?>
<svg width="12px" height="12px" viewBox="0 0 12 12" version="1.1" xmlns="http://www.w3.org/2000/svg" xmlns:xlink="http://www.w3.org/1999/xlink">
    <!-- Generator: Sketch 53.2 (72643) - https://sketchapp.com -->
    <title>sort_ascend</title>
    <desc>Created with Sketch.</desc>
    <g id="sort_ascend" stroke="none" stroke-width="1" fill="none" fill-rule="evenodd">
        <g id="分组-2-copy" transform="translate(-1.000000, -1.000000)" fill-rule="nonzero">
            <rect id="矩形" x="0" y="0" width="14" height="14"></rect>
            <g id="分组-4" transform="translate(1.000000, 1.000000)">
                <path d="M10.2254789,6.9019828 C10.5748368,6.46096878 11.2048013,6.39545384 11.6325439,6.75565109 C12.0602866,7.11584834 12.12383,7.76535841 11.7744721,8.20637243 L9.12938855,11.5454095 C8.90148617,11.8331034 8.56027144,12 8.19999265,12 C7.53725501,12 7,11.4460758 7,10.7627757 L7,1.03102022 C7,0.461603476 7.44771251,0 7.99999388,0 C8.55227524,0 8.99998775,0.461603476 8.99998775,1.03102022 L8.99998775,8.44898893 L10.2254789,6.9019828 Z" id="路径-4" fill="#D7D8E0"></path>
                <path d="M3.22547892,6.9019828 C3.5748368,6.46096878 4.20480126,6.39545384 4.63254391,6.75565109 C5.06028656,7.11584834 5.12382997,7.76535841 4.77447208,8.20637243 L2.12938855,11.5454095 C1.90148617,11.8331034 1.56027144,12 1.19999265,12 C0.53725501,12 0,11.4460758 0,10.7627757 L0,1.03102022 C0,0.461603476 0.447712508,0 0.999993875,0 C1.55227524,0 1.99998775,0.461603476 1.99998775,1.03102022 L1.99998775,8.44898893 L3.22547892,6.9019828 Z" id="路径-4" fill="#099DFF" transform="translate(2.500000, 6.000000) scale(-1, -1) translate(-2.500000, -6.000000) "></path>
            </g>
        </g>
    </g>
</svg>