<?xml version="1.0" encoding="UTF-8"?>
<svg width="40px" height="40px" viewBox="0 0 40 40" version="1.1" xmlns="http://www.w3.org/2000/svg" xmlns:xlink="http://www.w3.org/1999/xlink">
    <!-- Generator: Sketch 53.2 (72643) - https://sketchapp.com -->
    <title>year</title>
    <desc>Created with Sketch.</desc>
    <defs>
        <linearGradient x1="0.189943502%" y1="99.8049366%" x2="100%" y2="0.00513940188%" id="linearGradient-1">
            <stop stop-color="#0084FF" offset="0.0950168919%"></stop>
            <stop stop-color="#099DFF" offset="100%"></stop>
        </linearGradient>
    </defs>
    <g id="对比" stroke="none" stroke-width="1" fill="none" fill-rule="evenodd">
        <g id="实时监测-集控" transform="translate(-32.000000, -409.000000)">
            <g id="Group" transform="translate(16.000000, 212.000000)">
                <g id="year" transform="translate(16.000000, 197.000000)">
                    <rect id="矩形" fill="#0084FF" opacity="0.08" x="0" y="0" width="40" height="40" rx="20"></rect>
                    <path d="M20,23.5260461 L13.8683086,23.5260461 C13.388755,23.5260461 13,23.1372911 13,22.6577376 C13,22.178184 13.388755,21.789429 13.8683086,21.789429 L15.6250251,21.789429 C15.6250084,21.7872005 15.625,21.78497 15.625,21.7827376 L15.625,18.7570403 C15.6250084,18.7548117 15.625,18.7525813 15.625,18.7503489 C15.625,18.2707953 16.013755,17.8820403 16.4933086,17.8820403 L20,17.8820403 L20,16.2358976 L16.4933086,16.2358976 C16.4622673,16.2358976 16.4316065,16.2342688 16.401407,16.2310919 C15.9428495,17.0258422 15.3216244,17.7048831 14.5408394,18.260951 C14.1479938,18.540732 13.6014255,18.4517756 13.3200448,18.0622615 C13.0386641,17.6727473 13.1290241,17.1301764 13.5218697,16.8503954 C14.5762831,16.099452 15.2240312,15.0661018 15.4840495,13.7060886 C15.5741544,13.2347994 16.0320565,12.924729 16.5068026,13.0135271 C16.9815487,13.1023251 17.293362,13.5563656 17.2032571,14.0276549 C17.1726398,14.1877972 17.1376196,14.3450163 17.09821,14.4992805 L25.2566914,14.4992805 C25.736245,14.4992805 26.125,14.8880355 26.125,15.367589 C26.125,15.8471426 25.736245,16.2358976 25.2566914,16.2358976 L21.75,16.2358976 L21.75,17.8820403 L25.2566914,17.8820403 C25.736245,17.8820403 26.125,18.2707953 26.125,18.7503489 C26.125,19.2299025 25.736245,19.6186575 25.2566914,19.6186575 L21.75,19.6186575 L21.75,21.789429 L26.1316914,21.789429 C26.611245,21.789429 27,22.178184 27,22.6577376 C27,23.1372911 26.611245,23.5260461 26.1316914,23.5260461 L21.75,23.5260461 L21.75,26.1242805 C21.75,26.6075296 21.3582492,26.9992805 20.875,26.9992805 C20.3917508,26.9992805 20,26.6075296 20,26.1242805 L20,23.5260461 Z M20,21.789429 L20,19.6186575 L17.375,19.6186575 L17.375,21.7827376 C17.375,21.78497 17.3749916,21.7872005 17.3749749,21.789429 L20,21.789429 Z" id="形状结合备份-3" fill="url(#linearGradient-1)" fill-rule="nonzero"></path>
                </g>
            </g>
        </g>
    </g>
</svg>