<?xml version="1.0" encoding="UTF-8"?>
<svg width="30px" height="30px" viewBox="0 0 30 30" version="1.1" xmlns="http://www.w3.org/2000/svg" xmlns:xlink="http://www.w3.org/1999/xlink">
    <!-- Generator: Sketch 53.2 (72643) - https://sketchapp.com -->
    <title>任务完全情况icon</title>
    <desc>Created with Sketch.</desc>
    <g id="台帐" stroke="none" stroke-width="1" fill="none" fill-rule="evenodd">
        <g id="台帐-设备详情-展开前" transform="translate(-28.000000, -794.000000)">
            <g id="Group-2" transform="translate(16.000000, 784.000000)">
                <g id="蓝icon/技术参数" transform="translate(12.000000, 10.000000)">
                    <g id="任务完全情况icon">
                        <circle id="Oval" fill-opacity="0.08" fill="#0084FF" cx="15" cy="15" r="15"></circle>
                        <g id="adjust" transform="translate(8.000000, 8.000000)">
                            <rect x="0" y="0" width="14" height="14"></rect>
                            <path d="M3.88888889,10.8888889 L12.7222222,10.8888889 C12.9983646,10.8888889 13.2222222,11.1127465 13.2222222,11.3888889 L13.2222222,11.9444444 C13.2222222,12.2205868 12.9983646,12.4444444 12.7222222,12.4444444 L3.88888889,12.4444444 L3.88888889,12.7222222 C3.88888889,12.9983646 3.66503126,13.2222222 3.38888889,13.2222222 L1.27777778,13.2222222 C1.0016354,13.2222222 0.777777778,12.9983646 0.777777778,12.7222222 L0.777777778,10.6111111 C0.777777778,10.3349687 1.0016354,10.1111111 1.27777778,10.1111111 L3.38888889,10.1111111 C3.66503126,10.1111111 3.88888889,10.3349687 3.88888889,10.6111111 L3.88888889,10.8888889 Z M5.44444444,6.22222222 L5.44444444,5.94444444 C5.44444444,5.66830207 5.66830207,5.44444444 5.94444444,5.44444444 L8.05555556,5.44444444 C8.33169793,5.44444444 8.55555556,5.66830207 8.55555556,5.94444444 L8.55555556,6.22222222 L12.7222222,6.22222222 C12.9983646,6.22222222 13.2222222,6.44607985 13.2222222,6.72222222 L13.2222222,7.27777778 C13.2222222,7.55392015 12.9983646,7.77777778 12.7222222,7.77777778 L8.55555556,7.77777778 L8.55555556,8.05555556 C8.55555556,8.33169793 8.33169793,8.55555556 8.05555556,8.55555556 L5.94444444,8.55555556 C5.66830207,8.55555556 5.44444444,8.33169793 5.44444444,8.05555556 L5.44444444,7.77777778 L1.27777778,7.77777778 C1.0016354,7.77777778 0.777777778,7.55392015 0.777777778,7.27777778 L0.777777778,6.72222222 C0.777777778,6.44607985 1.0016354,6.22222222 1.27777778,6.22222222 L5.44444444,6.22222222 Z M10.1111111,1.55555556 L10.1111111,1.27777778 C10.1111111,1.0016354 10.3349687,0.777777778 10.6111111,0.777777778 L12.7222222,0.777777778 C12.9983646,0.777777778 13.2222222,1.0016354 13.2222222,1.27777778 L13.2222222,3.38888889 C13.2222222,3.66503126 12.9983646,3.88888889 12.7222222,3.88888889 L10.6111111,3.88888889 C10.3349687,3.88888889 10.1111111,3.66503126 10.1111111,3.38888889 L10.1111111,3.11111111 L1.27777778,3.11111111 C1.0016354,3.11111111 0.777777778,2.88725349 0.777777778,2.61111111 L0.777777778,2.05555556 C0.777777778,1.77941318 1.0016354,1.55555556 1.27777778,1.55555556 L10.1111111,1.55555556 Z" id="形状结合" fill="#099DFF"></path>
                        </g>
                    </g>
                </g>
            </g>
        </g>
    </g>
</svg>