<?xml version="1.0" encoding="UTF-8"?>
<svg width="12px" height="12px" viewBox="0 0 12 12" version="1.1" xmlns="http://www.w3.org/2000/svg" xmlns:xlink="http://www.w3.org/1999/xlink">
    <!-- Generator: Sketch 53.2 (72643) - https://sketchapp.com -->
    <title>clock</title>
    <desc>Created with Sketch.</desc>
    <g id="任务" stroke="none" stroke-width="1" fill="none" fill-rule="evenodd">
        <g id="搜索-历史记录" transform="translate(-24.000000, -131.000000)" fill="#FFFFFF" fill-rule="nonzero">
            <g id="分组-3" transform="translate(16.000000, 123.000000)">
                <g id="clock" transform="translate(8.000000, 8.000000)">
                    <path d="M6,6 L6,3 C6,2.44771525 5.55228475,2 5,2 C4.44771525,2 4,2.44771525 4,3 L4,7 C4,7.55228475 4.44771525,8 5,8 L8,8 C8.55228475,8 9,7.55228475 9,7 C9,6.44771525 8.55228475,6 8,6 L6,6 Z M6,12 C2.6862915,12 0,9.3137085 0,6 C0,2.6862915 2.6862915,0 6,0 C9.3137085,0 12,2.6862915 12,6 C12,9.3137085 9.3137085,12 6,12 Z" id="合并形状"></path>
                </g>
            </g>
        </g>
    </g>
</svg>