<?xml version="1.0" encoding="UTF-8"?>
<svg width="16px" height="16px" viewBox="0 0 16 16" version="1.1" xmlns="http://www.w3.org/2000/svg" xmlns:xlink="http://www.w3.org/1999/xlink">
    <!-- Generator: Sketch 53.2 (72643) - https://sketchapp.com -->
    <title>icon/close</title>
    <desc>Created with Sketch.</desc>
    <g id="待办工作" stroke="none" stroke-width="1" fill="none" fill-rule="evenodd">
        <g id="切换场站-1" transform="translate(-22.000000, -34.000000)">
            <g id="头部/整体">
                <g id="分组">
                    <g id="头部" transform="translate(0.000000, 20.000000)">
                        <g id="icon/16*16/close" transform="translate(20.000000, 12.000000)">
                            <g id="分组">
                                <rect id="back" x="0" y="0" width="20" height="20"></rect>
                                <path d="M10.0785674,8.35008418 L9.92143258,8.35008418 L4.11900753,2.54765913 C3.68509165,2.11374325 2.98157501,2.11374325 2.54765913,2.54765913 C2.11374325,2.98157501 2.11374325,3.68509165 2.54765913,4.11900753 L8.35008418,9.92143258 L8.35008418,10.0785674 L2.54765913,15.8809925 C2.11374325,16.3149083 2.11374325,17.018425 2.54765913,17.4523409 C2.98157501,17.8862567 3.68509165,17.8862567 4.11900753,17.4523409 L9.92143258,11.6499158 L10.0785674,11.6499158 L15.8809925,17.4523409 C16.3149083,17.8862567 17.018425,17.8862567 17.4523409,17.4523409 C17.8862567,17.018425 17.8862567,16.3149083 17.4523409,15.8809925 L11.6499158,10.0785674 L11.6499158,9.92143258 L17.4523409,4.11900753 C17.8862567,3.68509165 17.8862567,2.98157501 17.4523409,2.54765913 C17.018425,2.11374325 16.3149083,2.11374325 15.8809925,2.54765913 L10.0785674,8.35008418 Z" id="路径" fill="#26272E" fill-rule="nonzero"></path>
                            </g>
                        </g>
                    </g>
                </g>
            </g>
        </g>
    </g>
</svg>