<?xml version="1.0" encoding="UTF-8"?>
<svg width="62px" height="62px" viewBox="0 0 62 62" version="1.1" xmlns="http://www.w3.org/2000/svg" xmlns:xlink="http://www.w3.org/1999/xlink">
    <!-- Generator: Sketch 53.2 (72643) - https://sketchapp.com -->
    <title>Combined Shape</title>
    <desc>Created with Sketch.</desc>
    <g id="任务" stroke="none" stroke-width="1" fill="none" fill-rule="evenodd">
        <g id="录入结果-定量2" transform="translate(-255.000000, -320.000000)" fill="#C5C5D1">
            <g id="Group-3-Copy-7" transform="translate(0.000000, 274.000000)">
                <g id="Group-8-Copy-6" transform="translate(255.000000, 46.000000)">
                    <g id="add">
                        <path d="M30,30 L30,17 C30,16.4477153 30.4477153,16 31,16 C31.5522847,16 32,16.4477153 32,17 L32,30 L45,30 C45.5522847,30 46,30.4477153 46,31 C46,31.5522847 45.5522847,32 45,32 L32,32 L32,45 C32,45.5522847 31.5522847,46 31,46 C30.4477153,46 30,45.5522847 30,45 L30,32 L17,32 C16.4477153,32 16,31.5522847 16,31 C16,30.4477153 16.4477153,30 17,30 L30,30 Z M3,1 C1.8954305,1 1,1.8954305 1,3 L1,59 C1,60.1045695 1.8954305,61 3,61 L59,61 C60.1045695,61 61,60.1045695 61,59 L61,3 C61,1.8954305 60.1045695,1 59,1 L3,1 Z M3,0 L59,0 C60.6568542,-2.22044605e-16 62,1.34314575 62,3 L62,59 C62,60.6568542 60.6568542,62 59,62 L3,62 C1.34314575,62 2.22044605e-16,60.6568542 0,59 L0,3 C-2.22044605e-16,1.34314575 1.34314575,3.33066907e-16 3,0 Z" id="Combined-Shape"></path>
                    </g>
                </g>
            </g>
        </g>
    </g>
</svg>