<?xml version="1.0" encoding="UTF-8"?>
<svg width="30px" height="30px" viewBox="0 0 30 30" version="1.1" xmlns="http://www.w3.org/2000/svg" xmlns:xlink="http://www.w3.org/1999/xlink">
    <!-- Generator: Sketch 53.2 (72643) - https://sketchapp.com -->
    <title>任务完全情况icon</title>
    <desc>Created with Sketch.</desc>
    <g id="台帐" stroke="none" stroke-width="1" fill="none" fill-rule="evenodd">
        <g id="台帐-设备详情-展开前" transform="translate(-28.000000, -860.000000)">
            <g id="Group-2-Copy" transform="translate(16.000000, 850.000000)">
                <g id="蓝icon/附属设备" transform="translate(12.000000, 10.000000)">
                    <g id="任务完全情况icon">
                        <circle id="Oval" fill-opacity="0.08" fill="#0084FF" cx="15" cy="15" r="15"></circle>
                        <g id="assettree" transform="translate(8.000000, 8.000000)">
                            <rect x="0" y="0" width="14" height="14"></rect>
                            <path d="M10.8888889,10.1111111 L10.8888889,8.55555556 L7.77777778,8.55555556 L7.77777778,10.1111111 L8.05555556,10.1111111 C8.33169793,10.1111111 8.55555556,10.3349687 8.55555556,10.6111111 L8.55555556,12.7222222 C8.55555556,12.9983646 8.33169793,13.2222222 8.05555556,13.2222222 L5.94444444,13.2222222 C5.66830207,13.2222222 5.44444444,12.9983646 5.44444444,12.7222222 L5.44444444,10.6111111 C5.44444444,10.3349687 5.66830207,10.1111111 5.94444444,10.1111111 L6.22222222,10.1111111 L6.22222222,8.55555556 L3.11111111,8.55555556 L3.11111111,10.1111111 L3.38888889,10.1111111 C3.66503126,10.1111111 3.88888889,10.3349687 3.88888889,10.6111111 L3.88888889,12.7222222 C3.88888889,12.9983646 3.66503126,13.2222222 3.38888889,13.2222222 L1.27777778,13.2222222 C1.0016354,13.2222222 0.777777778,12.9983646 0.777777778,12.7222222 L0.777777778,10.6111111 C0.777777778,10.3349687 1.0016354,10.1111111 1.27777778,10.1111111 L1.55555556,10.1111111 L1.55555556,7.5 C1.55555556,7.22385763 1.77941318,7 2.05555556,7 L6.22222222,7 L6.22222222,5.44444444 L3.61111111,5.44444444 C3.33496874,5.44444444 3.11111111,5.22058682 3.11111111,4.94444444 L3.11111111,1.27777778 C3.11111111,1.0016354 3.33496874,0.777777778 3.61111111,0.777777778 L10.3888889,0.777777778 C10.6650313,0.777777778 10.8888889,1.0016354 10.8888889,1.27777778 L10.8888889,4.94444444 C10.8888889,5.22058682 10.6650313,5.44444444 10.3888889,5.44444444 L7.77777778,5.44444444 L7.77777778,7 L11.9444444,7 C12.2205868,7 12.4444444,7.22385763 12.4444444,7.5 L12.4444444,10.1111111 L12.7222222,10.1111111 C12.9983646,10.1111111 13.2222222,10.3349687 13.2222222,10.6111111 L13.2222222,12.7222222 C13.2222222,12.9983646 12.9983646,13.2222222 12.7222222,13.2222222 L10.6111111,13.2222222 C10.3349687,13.2222222 10.1111111,12.9983646 10.1111111,12.7222222 L10.1111111,10.6111111 C10.1111111,10.3349687 10.3349687,10.1111111 10.6111111,10.1111111 L10.8888889,10.1111111 Z M9.33333333,2.33333333 L4.66666667,2.33333333 L4.66666667,3.88888889 L9.33333333,3.88888889 L9.33333333,2.33333333 Z" id="形状结合" fill="#099DFF"></path>
                        </g>
                    </g>
                </g>
            </g>
        </g>
    </g>
</svg>