<?xml version="1.0" encoding="UTF-8"?>
<svg width="16px" height="16px" viewBox="0 0 16 16" version="1.1" xmlns="http://www.w3.org/2000/svg" xmlns:xlink="http://www.w3.org/1999/xlink">
    <!-- Generator: Sketch 53.2 (72643) - https://sketchapp.com -->
    <title>icon/18/plus</title>
    <desc>Created with Sketch.</desc>
    <g id="缺陷" stroke="none" stroke-width="1" fill="none" fill-rule="evenodd">
        <g id="缺陷列表-1" transform="translate(-338.000000, -34.000000)">
            <g id="Group-3">
                <g id="icon/18/plus" transform="translate(336.000000, 32.000000)">
                    <g id="plus">
                        <rect x="0" y="0" width="20" height="20"></rect>
                        <path d="M8.88888889,8.88888889 L8.88888889,3.33333333 C8.88888889,2.71968361 9.38635028,2.22222222 10,2.22222222 C10.6136497,2.22222222 11.1111111,2.71968361 11.1111111,3.33333333 L11.1111111,8.88888889 L16.6666667,8.88888889 C17.2803164,8.88888889 17.7777778,9.38635028 17.7777778,10 C17.7777778,10.6136497 17.2803164,11.1111111 16.6666667,11.1111111 L11.1111111,11.1111111 L11.1111111,16.6666667 C11.1111111,17.2803164 10.6136497,17.7777778 10,17.7777778 C9.38635028,17.7777778 8.88888889,17.2803164 8.88888889,16.6666667 L8.88888889,11.1111111 L3.33333333,11.1111111 C2.71968361,11.1111111 2.22222222,10.6136497 2.22222222,10 C2.22222222,9.38635028 2.71968361,8.88888889 3.33333333,8.88888889 L8.88888889,8.88888889 Z" fill="#101015"></path>
                    </g>
                </g>
            </g>
        </g>
    </g>
</svg>