<?xml version="1.0" encoding="UTF-8"?>
<svg width="11px" height="11px" viewBox="0 0 11 11" version="1.1" xmlns="http://www.w3.org/2000/svg" xmlns:xlink="http://www.w3.org/1999/xlink">
    <!-- Generator: Sketch 53.2 (72643) - https://sketchapp.com -->
    <title>reset</title>
    <desc>Created with Sketch.</desc>
    <g id="任务" stroke="none" stroke-width="1" fill="none" fill-rule="evenodd">
        <g id="操作步骤-有设备有复杂WI-1" transform="translate(-204.000000, -273.000000)">
            <g id="编组-6" transform="translate(203.000000, 266.000000)">
                <g id="Group-7">
                    <g id="icon/18/reset" transform="translate(0.000000, 6.000000)">
                        <g id="reset">
                            <rect x="0" y="0" width="12" height="12"></rect>
                            <path d="M2.56209717,2.6429774 L2.60253728,2.60253728 C4.55515874,0.649915823 7.72098363,0.649915823 9.67360509,2.60253728 C11.6262266,4.55515874 11.6262266,7.72098363 9.67360509,9.67360509 C7.72098363,11.6262266 4.55515874,11.6262266 2.60253728,9.67360509 C1.92509116,8.99615898 1.46605679,8.15447408 1.26022664,7.23907937 C1.17945441,6.87985855 1.40518159,6.5231737 1.76440241,6.44240147 C2.12362323,6.36162923 2.48030808,6.58735641 2.56108031,6.94657723 C2.71193071,7.6174588 3.04772968,8.23317941 3.54534632,8.73079605 C4.97726873,10.1627185 7.29887365,10.1627185 8.73079605,8.73079605 C10.1627185,7.29887365 10.1627185,4.97726873 8.73079605,3.54534632 C7.29887365,2.11342392 4.97726873,2.11342392 3.54534632,3.54534632 L3.50490621,3.58578644 L3.78104858,3.58578644 C4.14923842,3.58578644 4.44771525,3.88426327 4.44771525,4.2524531 C4.44771525,4.62064294 4.14923842,4.91911977 3.78104858,4.91911977 L1.8954305,4.91911977 C1.52724067,4.91911977 1.22876383,4.62064294 1.22876383,4.2524531 L1.22876383,2.36683502 C1.22876383,1.99864519 1.52724067,1.70016835 1.8954305,1.70016835 C2.26362033,1.70016835 2.56209717,1.99864519 2.56209717,2.36683502 L2.56209717,2.6429774 Z" fill="#A4A5B3"></path>
                        </g>
                    </g>
                </g>
            </g>
        </g>
    </g>
</svg>