<?xml version="1.0" encoding="UTF-8"?>
<svg width="19px" height="18px" viewBox="0 0 19 18" version="1.1" xmlns="http://www.w3.org/2000/svg" xmlns:xlink="http://www.w3.org/1999/xlink">
    <!-- Generator: Sketch 53.2 (72643) - https://sketchapp.com -->
    <title>solar_blue</title>
    <desc>Created with Sketch.</desc>
    <g id="待办工作" stroke="none" stroke-width="1" fill="none" fill-rule="evenodd">
        <g id="切换场站-2" transform="translate(-52.000000, -283.000000)">
            <g id="solar_blue" transform="translate(50.000000, 281.000000)">
                <g id="分组-24-copy-3">
                    <rect id="Rectangle-5-Copy-12" x="0" y="0" width="22" height="22"></rect>
                </g>
                <path d="M9.075,17.6 L9.075,16.5 L3.3,16.5 C2.69248678,16.5 2.2,15.9828889 2.2,15.345 L2.2,6.655 C2.2,6.01711111 2.69248678,5.5 3.3,5.5 L16.5,5.5 C17.1075132,5.5 17.6,6.01711111 17.6,6.655 L17.6,15.345 C17.6,15.9828889 17.1075132,16.5 16.5,16.5 L10.725,16.5 L10.725,17.6 L13.58,17.6 C13.977645,17.6 14.3,17.922355 14.3,18.32 L14.3,18.53 C14.3,18.927645 13.977645,19.25 13.58,19.25 L6.22,19.25 C5.82235498,19.25 5.5,18.927645 5.5,18.53 L5.5,18.32 C5.5,17.922355 5.82235498,17.6 6.22,17.6 L9.075,17.6 Z M3.85,7.15 L3.85,14.85 L15.95,14.85 L15.95,7.15 L3.85,7.15 Z M5.43,8.25 L8.87,8.25 C9.13509668,8.25 9.35,8.46490332 9.35,8.73 L9.35,9.97 C9.35,10.2350967 9.13509668,10.45 8.87,10.45 L5.43,10.45 C5.16490332,10.45 4.95,10.2350967 4.95,9.97 L4.95,8.73 C4.95,8.46490332 5.16490332,8.25 5.43,8.25 Z M5.43,11.55 L8.87,11.55 C9.13509668,11.55 9.35,11.7649033 9.35,12.03 L9.35,13.27 C9.35,13.5350967 9.13509668,13.75 8.87,13.75 L5.43,13.75 C5.16490332,13.75 4.95,13.5350967 4.95,13.27 L4.95,12.03 C4.95,11.7649033 5.16490332,11.55 5.43,11.55 Z M10.93,11.55 L14.37,11.55 C14.6350967,11.55 14.85,11.7649033 14.85,12.03 L14.85,13.27 C14.85,13.5350967 14.6350967,13.75 14.37,13.75 L10.93,13.75 C10.6649033,13.75 10.45,13.5350967 10.45,13.27 L10.45,12.03 C10.45,11.7649033 10.6649033,11.55 10.93,11.55 Z M10.93,8.25 L14.37,8.25 C14.6350967,8.25 14.85,8.46490332 14.85,8.73 L14.85,9.97 C14.85,10.2350967 14.6350967,10.45 14.37,10.45 L10.93,10.45 C10.6649033,10.45 10.45,10.2350967 10.45,9.97 L10.45,8.73 C10.45,8.46490332 10.6649033,8.25 10.93,8.25 Z M18.7,13.75 L18.7,4.4 L4.95,4.4 L4.95,3.905 C4.95,3.26711111 5.44248678,2.75 6.05,2.75 L19.25,2.75 C19.8575132,2.75 20.35,3.26711111 20.35,3.905 L20.35,12.595 C20.35,13.2328889 19.8575132,13.75 19.25,13.75 L18.7,13.75 Z" id="合并形状" fill="#099DFF" fill-rule="nonzero"></path>
            </g>
        </g>
    </g>
</svg>