<?xml version="1.0" encoding="UTF-8"?>
<svg width="22px" height="19px" viewBox="0 0 22 19" version="1.1" xmlns="http://www.w3.org/2000/svg" xmlns:xlink="http://www.w3.org/1999/xlink">
    <!-- Generator: Sketch 53.2 (72643) - https://sketchapp.com -->
    <title>wind_blue</title>
    <desc>Created with Sketch.</desc>
    <g id="待办工作" stroke="none" stroke-width="1" fill="none" fill-rule="evenodd">
        <g id="切换场站-2" transform="translate(-50.000000, -430.000000)">
            <g id="wind_blue" transform="translate(50.000000, 429.000000)">
                <rect id="Rectangle-5-Copy-12" x="0" y="0" width="22" height="22"></rect>
                <path d="M11.5715938,9.97438678 C11.7843422,9.38819784 12.2391575,8.91810144 12.8152202,8.68491719 L12.8152202,2.475 C12.8152202,2.01936508 13.1845853,1.65 13.6402202,1.65 C14.0958551,1.65 14.4652202,2.01936508 14.4652202,2.475 L14.4652202,8.68491719 C15.2100812,8.98642923 15.7522284,9.68403522 15.8304735,10.5165468 L20.6815578,13.3983818 C21.0732843,13.6310909 21.2021934,14.1372959 20.9694844,14.5290225 C20.7367753,14.920749 20.2305703,15.0496581 19.8388437,14.8169491 L15.327449,12.13691 C15.3146111,12.1522349 15.3015684,12.1673823 15.2883249,12.182348 L13.7443779,11.2651509 C13.9983294,11.2164726 14.1902202,10.9931455 14.1902202,10.725 C14.1902202,10.4212434 13.9439768,10.175 13.6402202,10.175 C13.3364636,10.175 13.0902202,10.4212434 13.0902202,10.725 C13.0902202,10.7831661 13.0992495,10.8392234 13.1159829,10.8918465 L11.5715938,9.97438678 Z M14.4652202,16.0104473 L14.4652202,18.15 L16.3902202,18.15 C16.8458551,18.15 17.2152202,18.5193651 17.2152202,18.975 C17.2152202,19.4306349 16.8458551,19.8 16.3902202,19.8 L12.6299716,19.8 C12.7487552,19.5499548 12.8152202,19.2702393 12.8152202,18.975 C12.8152202,18.6797607 12.7487552,18.4000452 12.6299716,18.15 L12.8152202,18.15 L12.8152202,15.1912853 L13.7770344,15.7626606 C13.9953063,15.8923272 14.2288109,15.9738763 14.4652202,16.0104473 Z M7.31522022,12.7650828 C6.95239058,12.6182131 6.63766019,12.3773595 6.40121719,12.0727102 L1.78355836,14.703698 C1.38767336,14.9292601 0.883890976,14.7911861 0.65832892,14.3953011 C0.432766864,13.9994161 0.570840895,13.4956337 0.966725901,13.2700716 L5.96053597,10.4247654 C6.06858171,9.6329879 6.59790099,8.97528063 7.31522022,8.68491719 L7.31522022,2.475 C7.31522022,2.01936508 7.6845853,1.65 8.14022022,1.65 C8.59585514,1.65 8.96522022,2.01936508 8.96522022,2.475 L8.96522022,8.68491719 C9.71008116,8.98642923 10.2522284,9.68403522 10.3304735,10.5165468 L15.1815578,13.3983818 C15.5732843,13.6310909 15.7021934,14.1372959 15.4694844,14.5290225 C15.2367753,14.920749 14.7305703,15.0496581 14.3388437,14.8169491 L9.82744897,12.13691 C9.59764138,12.4112376 9.30217224,12.6286881 8.96522022,12.7650828 L8.96522022,18.15 L10.8902202,18.15 C11.3458551,18.15 11.7152202,18.5193651 11.7152202,18.975 C11.7152202,19.4306349 11.3458551,19.8 10.8902202,19.8 L5.39022022,19.8 C4.9345853,19.8 4.56522022,19.4306349 4.56522022,18.975 C4.56522022,18.5193651 4.9345853,18.15 5.39022022,18.15 L7.31522022,18.15 L7.31522022,12.7650828 Z M8.14022022,11.275 C8.44397683,11.275 8.69022022,11.0287566 8.69022022,10.725 C8.69022022,10.4212434 8.44397683,10.175 8.14022022,10.175 C7.83646361,10.175 7.59022022,10.4212434 7.59022022,10.725 C7.59022022,11.0287566 7.83646361,11.275 8.14022022,11.275 Z" id="合并形状" fill="#099DFF" fill-rule="nonzero"></path>
            </g>
        </g>
    </g>
</svg>