<?xml version="1.0" encoding="UTF-8"?>
<svg width="40px" height="40px" viewBox="0 0 40 40" version="1.1" xmlns="http://www.w3.org/2000/svg" xmlns:xlink="http://www.w3.org/1999/xlink">
    <!-- Generator: Sketch 53.2 (72643) - https://sketchapp.com -->
    <title>Y</title>
    <desc>Created with Sketch.</desc>
    <defs>
        <linearGradient x1="85.653302%" y1="15.6054688%" x2="14.346698%" y2="100%" id="linearGradient-1">
            <stop stop-color="#44B0FF" offset="0%"></stop>
            <stop stop-color="#046AFF" offset="100%"></stop>
        </linearGradient>
        <path d="M15.1661721,13.875 L15.7738519,13.875 C16.1643353,13.875 16.5268903,14.0774842 16.7316952,14.4099482 L19.6807189,19.1971594 C19.7893444,19.3734934 20.0203499,19.4283821 20.1966839,19.3197565 C20.2465653,19.2890286 20.2885531,19.2470407 20.3192811,19.1971594 L23.2683048,14.4099482 C23.4731097,14.0774842 23.8356647,13.875 24.2261481,13.875 L24.8338279,13.875 C25.2538354,13.875 25.5943187,14.2154834 25.5943187,14.6354908 C25.5943187,14.7817205 25.55216,14.9248496 25.472893,15.0477312 L21.2261334,21.6311627 C21.1349311,21.7725469 21.0864243,21.9372273 21.0864243,22.1054752 L21.0864243,26.0385757 C21.0864243,26.6385913 20.6000156,27.125 20,27.125 C19.3999844,27.125 18.9135757,26.6385913 18.9135757,26.0385757 L18.9135757,22.1054752 C18.9135757,21.9372273 18.8650689,21.7725469 18.7738666,21.6311627 L14.527107,15.0477312 C14.2994329,14.6947853 14.4009859,14.2240998 14.7539318,13.9964257 C14.8768133,13.9171588 15.0199424,13.875 15.1661721,13.875 Z" id="path-2"></path>
        <filter x="-321.8%" y="-226.4%" width="743.5%" height="643.4%" filterUnits="objectBoundingBox" id="filter-3">
            <feMorphology radius="1" operator="dilate" in="SourceAlpha" result="shadowSpreadOuter1"></feMorphology>
            <feOffset dx="0" dy="6" in="shadowSpreadOuter1" result="shadowOffsetOuter1"></feOffset>
            <feGaussianBlur stdDeviation="10" in="shadowOffsetOuter1" result="shadowBlurOuter1"></feGaussianBlur>
            <feColorMatrix values="0 0 0 0 0.184313725   0 0 0 0 0.203921569   0 0 0 0 0.729411765  0 0 0 0.06 0" type="matrix" in="shadowBlurOuter1"></feColorMatrix>
        </filter>
    </defs>
    <g id="页面1" stroke="none" stroke-width="1" fill="none" fill-rule="evenodd">
        <g id="编组-10备份-2" transform="translate(-180.000000, -131.000000)">
            <g id="Y" transform="translate(180.000000, 131.000000)">
                <g id="编组-9">
                    <circle id="椭圆形备份-6" fill="#0084FF" opacity="0.08" cx="20" cy="20" r="20"></circle>
                    <g id="Y" fill-rule="nonzero">
                        <use fill="black" fill-opacity="1" filter="url(#filter-3)" xlink:href="#path-2"></use>
                        <use fill="#000000" xlink:href="#path-2"></use>
                        <use fill="url(#linearGradient-1)" xlink:href="#path-2"></use>
                    </g>
                </g>
            </g>
        </g>
    </g>
</svg>