<?xml version="1.0" encoding="UTF-8"?>
<svg width="33px" height="30px" viewBox="0 0 33 30" version="1.1" xmlns="http://www.w3.org/2000/svg" xmlns:xlink="http://www.w3.org/1999/xlink">
    <!-- Generator: Sketch 53.2 (72643) - https://sketchapp.com -->
    <title>solar</title>
    <desc>Created with Sketch.</desc>
    <g id="对比" stroke="none" stroke-width="1" fill="none" fill-rule="evenodd">
        <g id="实时监测-集控" transform="translate(-36.000000, -137.000000)">
            <g id="Group-5" transform="translate(0.000000, 109.000000)">
                <g id="Group-11" transform="translate(16.000000, 8.000000)">
                    <g id="solar" transform="translate(16.000000, 15.000000)">
                        <g id="分组-24-copy-3">
                            <rect id="Rectangle-5-Copy-12" x="0" y="0" width="40" height="40"></rect>
                        </g>
                        <path d="M16.5,32 L16.5,30 L6,30 C4.8954305,30 4,29.059798 4,27.9 L4,12.1 C4,10.940202 4.8954305,10 6,10 L30,10 C31.1045695,10 32,10.940202 32,12.1 L32,27.9 C32,29.059798 31.1045695,30 30,30 L19.5,30 L19.5,32 L24.5,32 C25.3284271,32 26,32.6715729 26,33.5 C26,34.3284271 25.3284271,35 24.5,35 L11.5,35 C10.6715729,35 10,34.3284271 10,33.5 C10,32.6715729 10.6715729,32 11.5,32 L16.5,32 Z M7,13 L7,27 L29,27 L29,13 L7,13 Z M10,15 L16,15 C16.5522847,15 17,15.4477153 17,16 L17,18 C17,18.5522847 16.5522847,19 16,19 L10,19 C9.44771525,19 9,18.5522847 9,18 L9,16 C9,15.4477153 9.44771525,15 10,15 Z M10,21 L16,21 C16.5522847,21 17,21.4477153 17,22 L17,24 C17,24.5522847 16.5522847,25 16,25 L10,25 C9.44771525,25 9,24.5522847 9,24 L9,22 C9,21.4477153 9.44771525,21 10,21 Z M20,21 L26,21 C26.5522847,21 27,21.4477153 27,22 L27,24 C27,24.5522847 26.5522847,25 26,25 L20,25 C19.4477153,25 19,24.5522847 19,24 L19,22 C19,21.4477153 19.4477153,21 20,21 Z M20,15 L26,15 C26.5522847,15 27,15.4477153 27,16 L27,18 C27,18.5522847 26.5522847,19 26,19 L20,19 C19.4477153,19 19,18.5522847 19,18 L19,16 C19,15.4477153 19.4477153,15 20,15 Z M34,25 L34,8 L9,8 L9,7.1 C9,5.94020203 9.8954305,5 11,5 L35,5 C36.1045695,5 37,5.94020203 37,7.1 L37,22.9 C37,24.059798 36.1045695,25 35,25 L34,25 Z" id="合并形状" fill="#099DFF" fill-rule="nonzero"></path>
                    </g>
                </g>
            </g>
        </g>
    </g>
</svg>