<?xml version="1.0" encoding="UTF-8"?>
<svg width="40px" height="40px" viewBox="0 0 40 40" version="1.1" xmlns="http://www.w3.org/2000/svg" xmlns:xlink="http://www.w3.org/1999/xlink">
    <!-- Generator: Sketch 53.2 (72643) - https://sketchapp.com -->
    <title>T</title>
    <desc>Created with Sketch.</desc>
    <defs>
        <linearGradient x1="100%" y1="15.6054688%" x2="14.3120338%" y2="100%" id="linearGradient-1">
            <stop stop-color="#44B0FF" offset="0%"></stop>
            <stop stop-color="#046AFF" offset="100%"></stop>
        </linearGradient>
        <path d="M21.1,16.2 L21.1,26.9 C21.1,27.5075132 20.6075132,28 20,28 C19.3924868,28 18.9,27.5075132 18.9,26.9 L18.9,16.2 L14.1,16.2 C13.4924868,16.2 13,15.7075132 13,15.1 C13,14.4924868 13.4924868,14 14.1,14 L25.9,14 C26.5075132,14 27,14.4924868 27,15.1 C27,15.7075132 26.5075132,16.2 25.9,16.2 L21.1,16.2 Z" id="path-2"></path>
        <filter x="-257.1%" y="-214.3%" width="614.3%" height="614.3%" filterUnits="objectBoundingBox" id="filter-3">
            <feMorphology radius="1" operator="dilate" in="SourceAlpha" result="shadowSpreadOuter1"></feMorphology>
            <feOffset dx="0" dy="6" in="shadowSpreadOuter1" result="shadowOffsetOuter1"></feOffset>
            <feGaussianBlur stdDeviation="10" in="shadowOffsetOuter1" result="shadowBlurOuter1"></feGaussianBlur>
            <feColorMatrix values="0 0 0 0 0.184313725   0 0 0 0 0.203921569   0 0 0 0 0.729411765  0 0 0 0.06 0" type="matrix" in="shadowBlurOuter1"></feColorMatrix>
        </filter>
    </defs>
    <g id="对比" stroke="none" stroke-width="1" fill="none" fill-rule="evenodd">
        <g id="编组-10备份-2-copy" transform="translate(-180.000000, -131.000000)">
            <g id="Y-Copy" transform="translate(180.000000, 131.000000)">
                <g id="编组-9">
                    <circle id="椭圆形备份-6" fill="#0084FF" opacity="0.08" cx="20" cy="20" r="20"></circle>
                    <g id="Combined-Shape" fill-rule="nonzero">
                        <use fill="black" fill-opacity="1" filter="url(#filter-3)" xlink:href="#path-2"></use>
                        <use fill="#000000" xlink:href="#path-2"></use>
                        <use fill="url(#linearGradient-1)" xlink:href="#path-2"></use>
                    </g>
                </g>
            </g>
        </g>
    </g>
</svg>