<?xml version="1.0" encoding="UTF-8"?>
<svg width="40px" height="40px" viewBox="0 0 40 40" version="1.1" xmlns="http://www.w3.org/2000/svg" xmlns:xlink="http://www.w3.org/1999/xlink">
    <!-- Generator: Sketch 53.2 (72643) - https://sketchapp.com -->
    <title>all</title>
    <desc>Created with Sketch.</desc>
    <defs>
        <linearGradient x1="0.637349718%" y1="99.8100565%" x2="99.5508877%" y2="0%" id="linearGradient-1">
            <stop stop-color="#0084FF" offset="0.0950168919%"></stop>
            <stop stop-color="#099DFF" offset="100%"></stop>
        </linearGradient>
    </defs>
    <g id="对比" stroke="none" stroke-width="1" fill="none" fill-rule="evenodd">
        <g id="实时监测-集控" transform="translate(-188.000000, -409.000000)">
            <g id="Group" transform="translate(16.000000, 212.000000)">
                <g id="all" transform="translate(172.000000, 197.000000)">
                    <rect id="矩形" fill="#0084FF" opacity="0.08" x="0" y="0" width="40" height="40" rx="20"></rect>
                    <path d="M25.4187996,20.4179647 C25.418943,20.4244861 25.4190151,20.4310251 25.4190151,20.437581 C25.4190151,20.9208242 25.0272691,21.3125702 24.5440259,21.3125702 L15.3180624,21.3125702 C14.8348192,21.3125702 14.4430732,20.9208242 14.4430732,20.437581 C14.4430732,20.4310251 14.4431453,20.4244861 14.4432887,20.4179647 C14.4431452,20.4112966 14.4430732,20.4046109 14.4430732,20.3979083 L14.4430732,16.5398022 C14.4430732,16.5330996 14.4431452,16.5264139 14.4432887,16.5197458 C14.4431453,16.5132244 14.4430732,16.5066854 14.4430732,16.5001295 C14.4430732,16.0168863 14.8348192,15.6251403 15.3180624,15.6251403 L16.8081933,15.6251403 L15.6256332,14.4938727 C15.2684356,14.1521682 15.2684356,13.5981557 15.6256332,13.2564511 C15.9828309,12.9147466 16.5619627,12.9147466 16.9191604,13.2564511 L19.3952476,15.6251403 L20.5107073,15.6251403 C20.5831394,15.5048541 20.6866248,15.3993533 20.8182671,15.3206456 L20.9230625,15.2524907 C21.3469038,14.9550371 21.8257139,14.3595074 22.325306,13.4634023 C22.5630254,13.0370112 23.1170657,12.8757041 23.5627896,13.1031126 C24.0085136,13.3305212 24.1771345,13.8605305 23.9394151,14.2869215 C23.6533593,14.8000123 23.362966,15.2461647 23.0649754,15.6251403 L24.5440259,15.6251403 C25.0272691,15.6251403 25.4190151,16.0168863 25.4190151,16.5001295 C25.4190151,16.5066854 25.418943,16.5132244 25.4187996,16.5197458 C25.418943,16.5264139 25.4190151,16.5330996 25.4190151,16.5398022 L25.4190151,20.3979083 C25.4190151,20.4046109 25.418943,20.4112966 25.4187996,20.4179647 Z M23.5896915,19.5625918 L23.5896915,17.3751187 L19.0163826,17.3751187 C19.0163824,17.3751187 19.0163823,17.3751187 19.0163821,17.3751187 L16.2723968,17.3751187 L16.2723968,19.5625918 L23.5896915,19.5625918 Z M14.0875733,22.306134 C14.1714522,21.8264878 14.6420906,21.494486 15.1387736,21.5645873 C15.6354566,21.6346886 15.9701004,22.080347 15.8862215,22.5599932 C15.6133019,24.1206337 15.2045352,25.251541 14.6105664,25.976152 C14.2952571,26.360813 13.7212027,26.4335174 13.32838,26.1385417 C12.9355573,25.8435661 12.8727203,25.2926118 13.1880297,24.9079508 C13.545591,24.4717446 13.8618905,23.5966601 14.0875733,22.306134 Z M19.4193744,23.1339701 C19.097024,22.764812 19.1289845,22.1875102 19.4907603,21.8445303 C19.852536,21.5015505 20.4071298,21.5227721 20.7294802,21.8919302 C21.1731014,22.3999686 21.4564598,22.8961432 21.560474,23.4045545 C21.6608615,23.8952391 21.3579564,24.3859486 20.8839165,24.5005848 C20.4098766,24.615221 19.9442112,24.3103735 19.8438237,23.8196889 L19.8271273,23.7581761 C19.7766579,23.6058101 19.6450012,23.3923596 19.4193744,23.1339701 Z M24.1361537,23.021879 C23.8138033,22.6527209 23.8457638,22.075419 24.2075395,21.7324392 C24.5693153,21.3894593 25.123909,21.410681 25.4462595,21.7798391 C26.2406209,22.6895478 26.7332199,23.5521129 26.9049748,24.3916348 C27.0053623,24.8823195 26.7024572,25.373029 26.2284174,25.4876652 C25.7543775,25.6023014 25.2887121,25.2974539 25.1883246,24.8067692 L25.1551752,24.6716088 C25.0243211,24.2114361 24.6894259,23.6554905 24.1361537,23.021879 Z M22.6750296,24.3750324 C22.6750296,23.8917892 23.0845377,23.5000432 23.5896915,23.5000432 C24.0948452,23.5000432 24.5043533,23.8917892 24.5043533,24.3750324 L24.5043533,25.2500216 C24.5043533,26.216508 23.6853372,27 22.6750296,27 L18.1017205,27 C17.0914129,27 16.2723968,26.216508 16.2723968,25.2500216 L16.2723968,22.625054 C16.2723968,22.1418108 16.6819049,21.7500648 17.1870586,21.7500648 C17.6922124,21.7500648 18.1017205,22.1418108 18.1017205,22.625054 L18.1017205,25.2500216 L22.6750296,25.2500216 L22.6750296,24.3750324 Z" id="形状结合备份-4" fill="url(#linearGradient-1)" fill-rule="nonzero"></path>
                </g>
            </g>
        </g>
    </g>
</svg>