<?xml version="1.0" encoding="UTF-8"?>
<svg width="40px" height="40px" viewBox="0 0 40 40" version="1.1" xmlns="http://www.w3.org/2000/svg" xmlns:xlink="http://www.w3.org/1999/xlink">
    <!-- Generator: Sketch 53.2 (72643) - https://sketchapp.com -->
    <title>Time</title>
    <desc>Created with Sketch.</desc>
    <defs>
        <linearGradient x1="0.189943502%" y1="74.4069234%" x2="100%" y2="25.5000043%" id="linearGradient-1">
            <stop stop-color="#0084FF" offset="0.0950168919%"></stop>
            <stop stop-color="#099DFF" offset="100%"></stop>
        </linearGradient>
    </defs>
    <g id="对比" stroke="none" stroke-width="1" fill="none" fill-rule="evenodd">
        <g id="实时监测-集控" transform="translate(-32.000000, -275.000000)">
            <g id="Group" transform="translate(16.000000, 212.000000)">
                <g id="Time" transform="translate(16.000000, 63.000000)">
                    <g id="编组-4">
                        <circle id="椭圆形" fill="#0084FF" opacity="0.08" cx="20" cy="20" r="20"></circle>
                        <path d="M15.9089839,21.4668856 C15.758087,21.8043941 15.3946253,22.0254695 14.9906374,22.0254695 L11.8999999,22.0254695 C11.4029437,22.0254695 11,21.6625675 11,21.2149052 C11,20.7672429 11.4029437,20.404341 11.8999999,20.404341 L14.4435939,20.404341 L17.057072,14.5588204 C17.2612976,14.1020326 17.8380129,13.8808384 18.3452016,14.0647696 C18.6172623,14.1634319 18.8267467,14.3656583 18.9171804,14.6169311 L22.122139,23.5220047 L23.1879821,21.0229871 C23.3332372,20.6824164 23.6942136,20.455904 24.099266,20.4511572 L28.0882886,20.4044096 C28.5853027,20.398585 28.993455,20.7567346 28.9999222,21.2043589 C29.0063894,21.6519833 28.6087226,22.0195763 28.1117084,22.0254009 L24.6714799,22.0657171 L22.9816097,26.0278529 C22.8744477,26.279109 22.6469969,26.4733215 22.3627057,26.5563139 C21.8425849,26.7081514 21.2842737,26.4514986 21.1156829,25.9830637 L17.8931055,17.0290356 L15.9089839,21.4668856 Z" id="路径-2" fill="url(#linearGradient-1)" fill-rule="nonzero"></path>
                    </g>
                </g>
            </g>
        </g>
    </g>
</svg>