<?xml version="1.0" encoding="UTF-8"?>
<svg width="40px" height="40px" viewBox="0 0 40 40" version="1.1" xmlns="http://www.w3.org/2000/svg" xmlns:xlink="http://www.w3.org/1999/xlink">
    <!-- Generator: Sketch 53.2 (72643) - https://sketchapp.com -->
    <title>month</title>
    <desc>Created with Sketch.</desc>
    <defs>
        <linearGradient x1="13.4048565%" y1="99.8100565%" x2="86.7346939%" y2="0%" id="linearGradient-1">
            <stop stop-color="#0084FF" offset="0.0950168919%"></stop>
            <stop stop-color="#099DFF" offset="100%"></stop>
        </linearGradient>
    </defs>
    <g id="对比" stroke="none" stroke-width="1" fill="none" fill-rule="evenodd">
        <g id="实时监测-集控" transform="translate(-188.000000, -342.000000)">
            <g id="Group" transform="translate(16.000000, 212.000000)">
                <g id="month" transform="translate(172.000000, 130.000000)">
                    <rect id="矩形" fill="#0084FF" opacity="0.08" x="0" y="0" width="40" height="40" rx="20"></rect>
                    <path d="M24.1538462,18.6875 L17.6923077,18.6875 L17.6923077,20 C17.6923077,20.2996761 17.6860619,20.5913494 17.6735024,20.875 L24.1538462,20.875 L24.1538462,18.6875 Z M24.1538462,16.9375 L24.1538462,14.75 L17.6923077,14.75 L17.6923077,16.9375 L24.1538462,16.9375 Z M25.9996848,13.8987167 C25.9998945,13.9068113 26,13.9149318 26,13.9230769 L26,26.0769231 C26,26.0850682 25.9998945,26.0931887 25.9996848,26.1012833 C25.9998945,26.1091634 26,26.1170694 26,26.125 C26,26.6082492 25.6082492,27 25.125,27 L23.1826923,27 C22.6994432,27 22.3076923,26.6082492 22.3076923,26.125 C22.3076923,25.6417508 22.6994432,25.25 23.1826923,25.25 L24.1538462,25.25 L24.1538462,22.625 L17.4990944,22.625 C17.2053339,24.4232075 16.5728222,25.7986158 15.5757909,26.7437184 C15.2153069,27.0854272 14.6308469,27.0854272 14.270363,26.7437184 C13.909879,26.4020097 13.909879,25.8479903 14.270363,25.5062816 C15.2951891,24.5348318 15.8461538,22.7068914 15.8461538,20 L15.8461538,13.875 C15.8461538,13.8626706 15.8464229,13.8504008 15.8469556,13.8381955 C15.8662087,13.3720108 16.2502374,13 16.7211538,13 L25.125,13 C25.6082492,13 26,13.3917508 26,13.875 C26,13.8829306 25.9998945,13.8908366 25.9996848,13.8987167 Z" id="形状结合" fill="url(#linearGradient-1)" fill-rule="nonzero"></path>
                </g>
            </g>
        </g>
    </g>
</svg>