<?xml version="1.0" encoding="UTF-8"?>
<svg width="40px" height="40px" viewBox="0 0 40 40" version="1.1" xmlns="http://www.w3.org/2000/svg" xmlns:xlink="http://www.w3.org/1999/xlink">
    <!-- Generator: Sketch 53.2 (72643) - https://sketchapp.com -->
    <title>day</title>
    <desc>Created with Sketch.</desc>
    <defs>
        <linearGradient x1="21.9818432%" y1="99.8100565%" x2="78.125%" y2="0%" id="linearGradient-1">
            <stop stop-color="#0084FF" offset="0.0950168919%"></stop>
            <stop stop-color="#099DFF" offset="100%"></stop>
        </linearGradient>
    </defs>
    <g id="对比" stroke="none" stroke-width="1" fill="none" fill-rule="evenodd">
        <g id="实时监测-集控" transform="translate(-32.000000, -342.000000)">
            <g id="Group" transform="translate(16.000000, 212.000000)">
                <g id="day" transform="translate(16.000000, 130.000000)">
                    <rect id="矩形" fill="#0084FF" opacity="0.08" x="0" y="0" width="40" height="40" rx="20"></rect>
                    <path d="M16.75,24.375 L23.75,24.375 L23.75,20.4375 L16.75,20.4375 L16.75,24.375 Z M16.75,26.125 C16.75,26.6082492 16.3582492,27 15.875,27 C15.3917508,27 15,26.6082492 15,26.125 L15,13.875 C15,13.3917508 15.3917508,13 15.875,13 L24.625,13 C25.1082492,13 25.5,13.3917508 25.5,13.875 L25.5,26.125 C25.5,26.6082492 25.1082492,27 24.625,27 C24.1417508,27 23.75,26.6082492 23.75,26.125 L16.75,26.125 Z M16.75,18.6875 L23.75,18.6875 L23.75,14.75 L16.75,14.75 L16.75,18.6875 Z" id="形状结合备份-5" fill="url(#linearGradient-1)" fill-rule="nonzero"></path>
                </g>
            </g>
        </g>
    </g>
</svg>