<?xml version="1.0" encoding="UTF-8"?>
<svg width="40px" height="40px" viewBox="0 0 40 40" version="1.1" xmlns="http://www.w3.org/2000/svg" xmlns:xlink="http://www.w3.org/1999/xlink">
    <!-- Generator: Sketch 53.2 (72643) - https://sketchapp.com -->
    <title>averagePR</title>
    <desc>Created with Sketch.</desc>
    <defs>
        <linearGradient x1="0.189943502%" y1="96.7455706%" x2="100%" y2="3.07617188%" id="linearGradient-1">
            <stop stop-color="#0084FF" offset="0.0950168919%"></stop>
            <stop stop-color="#099DFF" offset="100%"></stop>
        </linearGradient>
    </defs>
    <g id="对比" stroke="none" stroke-width="1" fill="none" fill-rule="evenodd">
        <g id="实时监测-集控" transform="translate(-188.000000, -275.000000)">
            <g id="Group" transform="translate(16.000000, 212.000000)">
                <g id="averagePR" transform="translate(172.000000, 63.000000)">
                    <g id="编组-5">
                        <circle id="椭圆形-copy-3" fill="#0084FF" opacity="0.08" cx="20" cy="20" r="20"></circle>
                        <path d="M24.3055949,14.950779 C24.6779569,14.642759 25.2295154,14.6949185 25.5375354,15.0672805 C25.8455554,15.4396424 25.793396,15.991201 25.421034,16.299221 L15.3077195,24.6650142 C14.9353576,24.9730342 14.383799,24.9208747 14.075779,24.5485127 C13.767759,24.1761508 13.8199185,23.6245922 14.1922805,23.3165722 L24.3055949,14.950779 Z M16.0625,17.3299632 C16.790253,17.3299632 17.375,16.7495159 17.375,16.0399816 C17.375,15.3304473 16.790253,14.75 16.0625,14.75 C15.334747,14.75 14.75,15.3304473 14.75,16.0399816 C14.75,16.7495159 15.334747,17.3299632 16.0625,17.3299632 Z M16.0625,19.0799632 C14.371128,19.0799632 13,17.7189171 13,16.0399816 C13,14.3610461 14.371128,13 16.0625,13 C17.753872,13 19.125,14.3610461 19.125,16.0399816 C19.125,17.7189171 17.753872,19.0799632 16.0625,19.0799632 Z M23.9375,24.8125 C24.6623737,24.8125 25.25,24.2248737 25.25,23.5 C25.25,22.7751263 24.6623737,22.1875 23.9375,22.1875 C23.2126263,22.1875 22.625,22.7751263 22.625,23.5 C22.625,24.2248737 23.2126263,24.8125 23.9375,24.8125 Z M23.9375,26.5625 C22.246128,26.5625 20.875,25.191372 20.875,23.5 C20.875,21.808628 22.246128,20.4375 23.9375,20.4375 C25.628872,20.4375 27,21.808628 27,23.5 C27,25.191372 25.628872,26.5625 23.9375,26.5625 Z" id="合并形状" fill="url(#linearGradient-1)" fill-rule="nonzero"></path>
                    </g>
                </g>
            </g>
        </g>
    </g>
</svg>