<?xml version="1.0" encoding="UTF-8"?>
<svg width="24px" height="16px" viewBox="0 0 24 16" version="1.1" xmlns="http://www.w3.org/2000/svg" xmlns:xlink="http://www.w3.org/1999/xlink">
    <!-- Generator: Sketch 48.2 (47327) - http://www.bohemiancoding.com/sketch -->
    <title>美国国旗@2x</title>
    <desc>Created with Sketch.</desc>
    <defs></defs>
    <g id="0-2-1.选择环境（默认）" stroke="none" stroke-width="1" fill="none" fill-rule="evenodd" transform="translate(-18.000000, -135.000000)">
        <g id="Group-Copy-7" transform="translate(0.000000, 64.000000)">
            <g id="美国国旗" transform="translate(18.000000, 71.000000)">
                <path d="M0,11.0766 L0,9.8456 L23.999,9.8456 L23.999,11.0766 L0,11.0766 Z M0,15.9996 L0,14.7676 L23.999,14.7676 L23.999,15.9996 L0,15.9996 Z M0,13.5376 L0,12.3076 L23.999,12.3076 L23.999,13.5376 L0,13.5376 Z M0,6.1516 L0,4.9216 L23.999,4.9216 L23.999,6.1516 L0,6.1516 Z M0,3.6916 L0,2.4606 L23.999,2.4606 L23.999,3.6916 L0,3.6916 Z M0,8.6146 L0,7.3836 L23.999,7.3836 L23.999,8.6146 L0,8.6146 Z M0,1.2296 L0,0.0006 L23.999,0.0006 L23.999,1.2296 L0,1.2296 Z" id="Combined-Shape" fill="#BF0A30"></path>
                <path d="M0,12.3066 L0,11.0766 L23.999,11.0766 L23.999,12.3066 L0,12.3066 Z M0,14.7676 L0,13.5376 L23.999,13.5376 L23.999,14.7676 L0,14.7676 Z M0,9.8456 L0,8.6146 L23.999,8.6146 L23.999,9.8456 L0,9.8456 Z M0,2.4596 L0,1.2296 L23.999,1.2296 L23.999,2.4596 L0,2.4596 Z M0,4.9216 L0,3.6916 L23.999,3.6916 L23.999,4.9216 L0,4.9216 Z M0,7.3826 L0,6.1516 L23.999,6.1516 L23.999,7.3826 L0,7.3826 Z" id="Combined-Shape" fill="#FFFFFF"></path>
                <polygon id="Fill-14" fill="#002868" points="0 8.6246 9.6 8.6246 9.6 -0.0004 0 -0.0004"></polygon>
                <path d="M7.1433,0.6645 L7.2113,0.4605 L7.2763,0.6645 L7.4903,0.6645 L7.3173,0.7905 L7.3833,0.9945 L7.2113,0.8685 L7.0363,0.9945 L7.1023,0.7905 L6.9293,0.6645 L7.1433,0.6645 Z M7.1433,2.4564 L7.2113,2.2524 L7.2763,2.4564 L7.4903,2.4564 L7.3173,2.5824 L7.3833,2.7864 L7.2113,2.6614 L7.0363,2.7864 L7.1023,2.5824 L6.9293,2.4564 L7.1433,2.4564 Z M7.1433,4.2492 L7.2113,4.0452 L7.2763,4.2492 L7.4903,4.2492 L7.3173,4.3762 L7.3833,4.5792 L7.2113,4.4522 L7.0363,4.5792 L7.1023,4.3762 L6.9293,4.2492 L7.1433,4.2492 Z M7.1433,6.0834 L7.2113,5.8784 L7.2763,6.0834 L7.4903,6.0834 L7.3173,6.2084 L7.3833,6.4134 L7.2113,6.2864 L7.0363,6.4134 L7.1023,6.2084 L6.9293,6.0834 L7.1433,6.0834 Z M7.1433,7.833 L7.2113,7.629 L7.2763,7.833 L7.4903,7.833 L7.3173,7.959 L7.3833,8.163 L7.2113,8.036 L7.0363,8.163 L7.1023,7.959 L6.9293,7.833 L7.1433,7.833 Z M5.5368,0.6645 L5.6038,0.4605 L5.6698,0.6645 L5.8838,0.6645 L5.7108,0.7905 L5.7768,0.9945 L5.6038,0.8685 L5.4298,0.9945 L5.4958,0.7905 L5.3218,0.6645 L5.5368,0.6645 Z M5.5368,2.4564 L5.6038,2.2524 L5.6698,2.4564 L5.8838,2.4564 L5.7108,2.5824 L5.7768,2.7864 L5.6038,2.6614 L5.4298,2.7864 L5.4958,2.5824 L5.3218,2.4564 L5.5368,2.4564 Z M5.5368,4.2492 L5.6038,4.0452 L5.6698,4.2492 L5.8838,4.2492 L5.7108,4.3762 L5.7768,4.5792 L5.6038,4.4522 L5.4298,4.5792 L5.4958,4.3762 L5.3218,4.2492 L5.5368,4.2492 Z M5.5368,6.0834 L5.6038,5.8784 L5.6698,6.0834 L5.8838,6.0834 L5.7108,6.2084 L5.7768,6.4134 L5.6038,6.2864 L5.4298,6.4134 L5.4958,6.2084 L5.3218,6.0834 L5.5368,6.0834 Z M5.5368,7.833 L5.6038,7.629 L5.6698,7.833 L5.8838,7.833 L5.7108,7.959 L5.7768,8.163 L5.6038,8.036 L5.4298,8.163 L5.4958,7.959 L5.3218,7.833 L5.5368,7.833 Z M3.9294,0.6645 L3.9974,0.4605 L4.0634,0.6645 L4.2764,0.6645 L4.1044,0.7905 L4.1704,0.9945 L3.9974,0.8685 L3.8234,0.9945 L3.8894,0.7905 L3.7154,0.6645 L3.9294,0.6645 Z M3.9294,2.4564 L3.9974,2.2524 L4.0634,2.4564 L4.2764,2.4564 L4.1044,2.5824 L4.1704,2.7864 L3.9974,2.6614 L3.8234,2.7864 L3.8894,2.5824 L3.7154,2.4564 L3.9294,2.4564 Z M3.9294,4.2492 L3.9974,4.0452 L4.0634,4.2492 L4.2764,4.2492 L4.1044,4.3762 L4.1704,4.5792 L3.9974,4.4522 L3.8234,4.5792 L3.8894,4.3762 L3.7154,4.2492 L3.9294,4.2492 Z M3.9294,6.0834 L3.9974,5.8784 L4.0634,6.0834 L4.2764,6.0834 L4.1044,6.2084 L4.1704,6.4134 L3.9974,6.2864 L3.8234,6.4134 L3.8894,6.2084 L3.7154,6.0834 L3.9294,6.0834 Z M3.9294,7.833 L3.9974,7.629 L4.0634,7.833 L4.2764,7.833 L4.1044,7.959 L4.1704,8.163 L3.9974,8.036 L3.8234,8.163 L3.8894,7.959 L3.7154,7.833 L3.9294,7.833 Z M2.3229,0.6645 L2.3899,0.4605 L2.4559,0.6645 L2.6699,0.6645 L2.4969,0.7905 L2.5629,0.9945 L2.3899,0.8685 L2.2159,0.9945 L2.2819,0.7905 L2.1079,0.6645 L2.3229,0.6645 Z M2.3229,2.4564 L2.3899,2.2524 L2.4559,2.4564 L2.6699,2.4564 L2.4969,2.5824 L2.5629,2.7864 L2.3899,2.6614 L2.2159,2.7864 L2.2819,2.5824 L2.1079,2.4564 L2.3229,2.4564 Z M2.3229,4.2492 L2.3899,4.0452 L2.4559,4.2492 L2.6699,4.2492 L2.4969,4.3762 L2.5629,4.5792 L2.3899,4.4522 L2.2159,4.5792 L2.2819,4.3762 L2.1079,4.2492 L2.3229,4.2492 Z M2.3229,6.0834 L2.3899,5.8784 L2.4559,6.0834 L2.6699,6.0834 L2.4969,6.2084 L2.5629,6.4134 L2.3899,6.2864 L2.2159,6.4134 L2.2819,6.2084 L2.1079,6.0834 L2.3229,6.0834 Z M2.3229,7.833 L2.3899,7.629 L2.4559,7.833 L2.6699,7.833 L2.4969,7.959 L2.5629,8.163 L2.3899,8.036 L2.2159,8.163 L2.2819,7.959 L2.1079,7.833 L2.3229,7.833 Z M0.7164,0.6645 L0.7834,0.4605 L0.8494,0.6645 L1.0624,0.6645 L0.8904,0.7905 L0.9554,0.9945 L0.7834,0.8685 L0.6094,0.9945 L0.6744,0.7905 L0.5014,0.6645 L0.7164,0.6645 Z M0.7164,2.4564 L0.7834,2.2524 L0.8494,2.4564 L1.0624,2.4564 L0.8904,2.5824 L0.9554,2.7864 L0.7834,2.6614 L0.6094,2.7864 L0.6744,2.5824 L0.5014,2.4564 L0.7164,2.4564 Z M0.7164,4.2492 L0.7834,4.0452 L0.8494,4.2492 L1.0624,4.2492 L0.8904,4.3762 L0.9554,4.5792 L0.7834,4.4522 L0.6094,4.5792 L0.6744,4.3762 L0.5014,4.2492 L0.7164,4.2492 Z M0.7164,6.0834 L0.7834,5.8784 L0.8494,6.0834 L1.0624,6.0834 L0.8904,6.2084 L0.9554,6.4134 L0.7834,6.2864 L0.6094,6.4134 L0.6744,6.2084 L0.5014,6.0834 L0.7164,6.0834 Z M0.7164,7.833 L0.7834,7.629 L0.8494,7.833 L1.0624,7.833 L0.8904,7.959 L0.9554,8.163 L0.7834,8.036 L0.6094,8.163 L0.6744,7.959 L0.5014,7.833 L0.7164,7.833 Z M7.9623,1.5609 L8.0303,1.3559 L8.0953,1.5609 L8.3113,1.5609 L8.1373,1.6859 L8.2023,1.8909 L8.0303,1.7649 L7.8553,1.8909 L7.9223,1.6859 L7.7493,1.5609 L7.9623,1.5609 Z M7.9623,3.4104 L8.0303,3.2064 L8.0953,3.4104 L8.3113,3.4104 L8.1373,3.5364 L8.2023,3.7404 L8.0303,3.6134 L7.8553,3.7404 L7.9223,3.5364 L7.7493,3.4104 L7.9623,3.4104 Z M7.947,5.223 L8.014,5.02 L8.08,5.223 L8.294,5.223 L8.121,5.349 L8.187,5.553 L8.014,5.427 L7.84,5.553 L7.906,5.349 L7.732,5.223 L7.947,5.223 Z M7.9317,7.0149 L7.9977,6.8109 L8.0627,7.0149 L8.2787,7.0149 L8.1047,7.1419 L8.1717,7.3449 L7.9977,7.2179 L7.8237,7.3449 L7.8907,7.1419 L7.7167,7.0149 L7.9317,7.0149 Z M6.3558,1.5609 L6.4228,1.3559 L6.4888,1.5609 L6.7038,1.5609 L6.5308,1.6859 L6.5958,1.8909 L6.4228,1.7649 L6.2488,1.8909 L6.3158,1.6859 L6.1418,1.5609 L6.3558,1.5609 Z M6.3558,3.4104 L6.4228,3.2064 L6.4888,3.4104 L6.7038,3.4104 L6.5308,3.5364 L6.5958,3.7404 L6.4228,3.6134 L6.2488,3.7404 L6.3158,3.5364 L6.1418,3.4104 L6.3558,3.4104 Z M6.3396,5.223 L6.4076,5.02 L6.4726,5.223 L6.6876,5.223 L6.5146,5.349 L6.5806,5.553 L6.4076,5.427 L6.2336,5.553 L6.2996,5.349 L6.1256,5.223 L6.3396,5.223 Z M6.3243,7.0149 L6.3903,6.8109 L6.4563,7.0149 L6.6713,7.0149 L6.4983,7.1419 L6.5643,7.3449 L6.3903,7.2179 L6.2163,7.3449 L6.2833,7.1419 L6.1093,7.0149 L6.3243,7.0149 Z M4.7484,1.4961 L4.8154,1.2931 L4.8814,1.4961 L5.0964,1.4961 L4.9234,1.6221 L4.9894,1.8271 L4.8154,1.7001 L4.6414,1.8271 L4.7084,1.6221 L4.5354,1.4961 L4.7484,1.4961 Z M4.7484,3.3456 L4.8154,3.1426 L4.8814,3.3456 L5.0964,3.3456 L4.9234,3.4716 L4.9894,3.6756 L4.8154,3.5506 L4.6414,3.6756 L4.7084,3.4716 L4.5354,3.3456 L4.7484,3.3456 Z M4.7331,5.1582 L4.8001,4.9552 L4.8661,5.1582 L5.0801,5.1582 L4.9071,5.2852 L4.9731,5.4892 L4.8001,5.3622 L4.6261,5.4892 L4.6921,5.2852 L4.5181,5.1582 L4.7331,5.1582 Z M4.7169,6.9519 L4.7839,6.7479 L4.8489,6.9519 L5.0649,6.9519 L4.8919,7.0769 L4.9579,7.2819 L4.7839,7.1549 L4.6099,7.2819 L4.6769,7.0769 L4.5029,6.9519 L4.7169,6.9519 Z M3.1437,1.479 L3.2087,1.276 L3.2747,1.479 L3.4897,1.479 L3.3167,1.605 L3.3817,1.809 L3.2087,1.683 L3.0347,1.809 L3.1027,1.605 L2.9277,1.479 L3.1437,1.479 Z M3.1437,3.3276 L3.2087,3.1246 L3.2747,3.3276 L3.4897,3.3276 L3.3167,3.4546 L3.3817,3.6586 L3.2087,3.5316 L3.0347,3.6586 L3.1027,3.4546 L2.9277,3.3276 L3.1437,3.3276 Z M3.1266,5.1411 L3.1936,4.9371 L3.2586,5.1411 L3.4736,5.1411 L3.3006,5.2671 L3.3666,5.4711 L3.1936,5.3451 L3.0196,5.4711 L3.0866,5.2671 L2.9116,5.1411 L3.1266,5.1411 Z M3.1113,6.933 L3.1763,6.729 L3.2433,6.933 L3.4573,6.933 L3.2843,7.059 L3.3503,7.263 L3.1763,7.136 L3.0033,7.263 L3.0703,7.059 L2.8953,6.933 L3.1113,6.933 Z M1.5345,1.4457 L1.6025,1.2427 L1.6675,1.4457 L1.8835,1.4457 L1.7095,1.5727 L1.7745,1.7767 L1.6025,1.6497 L1.4275,1.7767 L1.4945,1.5727 L1.3215,1.4457 L1.5345,1.4457 Z M1.5345,3.2952 L1.6025,3.0912 L1.6675,3.2952 L1.8835,3.2952 L1.7095,3.4222 L1.7745,3.6252 L1.6025,3.5002 L1.4275,3.6252 L1.4945,3.4222 L1.3215,3.2952 L1.5345,3.2952 Z M1.5192,5.1096 L1.5862,4.9056 L1.6522,5.1096 L1.8662,5.1096 L1.6932,5.2356 L1.7592,5.4396 L1.5862,5.3126 L1.4122,5.4396 L1.4782,5.2356 L1.3042,5.1096 L1.5192,5.1096 Z M1.5039,6.9015 L1.5699,6.6975 L1.6349,6.9015 L1.8509,6.9015 L1.6769,7.0275 L1.7439,7.2315 L1.5699,7.1045 L1.3949,7.2315 L1.4629,7.0275 L1.2889,6.9015 L1.5039,6.9015 Z M8.7507,0.6645 L8.8177,0.4605 L8.8817,0.6645 L9.0967,0.6645 L8.9247,0.7905 L8.9907,0.9945 L8.8177,0.8685 L8.6437,0.9945 L8.7097,0.7905 L8.5357,0.6645 L8.7507,0.6645 Z M8.7507,2.4564 L8.8177,2.2524 L8.8817,2.4564 L9.0967,2.4564 L8.9247,2.5824 L8.9907,2.7864 L8.8177,2.6614 L8.6437,2.7864 L8.7097,2.5824 L8.5357,2.4564 L8.7507,2.4564 Z M8.7507,4.2492 L8.8177,4.0452 L8.8817,4.2492 L9.0967,4.2492 L8.9247,4.3762 L8.9907,4.5792 L8.8177,4.4522 L8.6437,4.5792 L8.7097,4.3762 L8.5357,4.2492 L8.7507,4.2492 Z M8.7507,6.0834 L8.8177,5.8784 L8.8817,6.0834 L9.0967,6.0834 L8.9247,6.2084 L8.9907,6.4134 L8.8177,6.2864 L8.6437,6.4134 L8.7097,6.2084 L8.5357,6.0834 L8.7507,6.0834 Z M8.7507,7.833 L8.8177,7.629 L8.8817,7.833 L9.0967,7.833 L8.9247,7.959 L8.9907,8.163 L8.8177,8.036 L8.6437,8.163 L8.7097,7.959 L8.5357,7.833 L8.7507,7.833 Z" id="Combined-Shape" fill="#FFFFFF"></path>
            </g>
        </g>
    </g>
</svg>