<?xml version="1.0" encoding="UTF-8"?>
<svg width="60px" height="60px" viewBox="0 0 60 60" version="1.1" xmlns="http://www.w3.org/2000/svg" xmlns:xlink="http://www.w3.org/1999/xlink">
    <!-- Generator: Sketch 53.2 (72643) - https://sketchapp.com -->
    <title>分组</title>
    <desc>Created with Sketch.</desc>
    <g id="待办工作" stroke="none" stroke-width="1" fill="none" fill-rule="evenodd">
        <g id="待办工作-暂无数据" transform="translate(-158.000000, -323.000000)" fill="#D7D8E0">
            <g id="分组" transform="translate(158.000000, 323.000000)">
                <path d="M56.9658222,23.768718 C56.5595061,22.2306004 55.113237,21.1293787 52.6757057,20.4819263 C52.3994021,20.4006857 52.1071115,20.3361732 51.7982499,20.2711515 C51.1968788,20.1415447 50.6282845,20.5305107 50.4982722,21.1290877 C50.3796477,21.7231555 50.7639909,22.3013678 51.359157,22.4243561 C51.6194738,22.4729405 51.8792795,22.5377439 52.1068195,22.6024746 C53.6831739,23.023515 54.6418053,23.638602 54.8531393,24.3350024 L54.8531393,24.3511487 C55.1782067,25.5492483 53.5530885,27.5081154 50.2056896,29.6776117 C50.108162,28.3823434 49.896828,27.0709287 49.5395678,25.7756603 C47.9646733,19.9173874 43.8983738,15.0375662 38.4082891,12.4184461 C33.9207816,10.2816788 28.8151131,9.81059936 24.0104951,11.0905215 C15.0729289,13.4705016 9.06009377,21.3231343 8.58873503,30.0659231 C6.67139922,31.1992193 5.11154269,32.3490255 3.9412853,33.4985407 C3.27516349,34.146284 2.75533299,34.8099554 2.36493086,35.4901367 C1.97518572,36.1702454 1.74757282,36.8984293 1.74757282,37.6433413 C1.74757282,37.9345567 1.78013066,38.2263539 1.86137927,38.5013502 L1.86137927,38.5172784 C2.59254377,41.1886921 6.52510792,42.3543536 11.9202201,42.4353761 C13.4258378,44.7368794 15.3688695,46.7225115 17.6401076,48.2802664 C21.108175,50.6511552 25.2152813,51.9211132 29.4215942,51.9230769 C31.2254885,51.9230769 33.0453698,51.696374 34.8164143,51.2108211 C43.7540535,48.830841 49.7828026,40.9622801 50.2378824,32.2032723 C54.8531393,29.4508361 57.6804157,26.471697 56.9818091,23.8002833 C56.9658222,23.784937 56.9658222,23.768718 56.9658222,23.768718 Z M3.97384315,37.9354295 C3.97384315,37.9192104 3.97384315,37.9192104 3.97384315,37.9354295 C3.94274529,37.8357151 3.92646637,37.7322915 3.92507938,37.6277041 C3.92507938,37.3524169 4.02253391,36.9961799 4.26606074,36.5429923 C4.70464264,35.7659331 5.6311542,34.7783901 6.96368982,33.7422627 C7.49578427,33.3380231 8.04328164,32.9544392 8.60501395,32.5925292 C8.70254148,33.8880158 8.91380247,35.1992123 9.27113576,36.510627 C9.61248212,37.8058226 10.0835489,39.0362876 10.6686411,40.2184591 C6.70359206,40.0076843 4.31482451,39.1334563 3.97384315,37.9354295 Z M34.2319061,49.0746357 C28.9693613,50.4840919 23.3512353,49.5254958 18.8592018,46.4517336 C17.2152497,45.3284015 15.7615346,43.9510925 14.5527334,42.3717364 C19.7365846,42.1450335 25.8631532,41.1250524 31.6643624,39.5707158 C37.4820695,38.0166701 43.2994847,35.8631019 47.8982436,33.4669754 C46.9720241,40.7363773 41.7556881,47.0668206 34.2319061,49.0746357 Z M31.1116821,37.4660229 C23.9129676,39.3925973 17.770193,40.2023128 13.1715071,40.2670434 C12.4078577,38.9070444 11.8064136,37.4660229 11.4000976,35.9441243 C8.73502633,26.0515294 14.650261,15.8353538 24.5953683,13.1800863 C26.1696788,12.7616642 27.79195,12.5491439 29.4215942,12.5485621 C32.2118598,12.5491439 34.9664286,13.1741224 37.4817775,14.377895 C42.4055309,16.7255098 46.0295986,21.0807943 47.4430908,26.3268167 C47.8656858,27.864716 48.0607408,29.4190526 48.0770198,30.9571702 C44.0472201,33.1916881 38.3107616,35.5392302 31.1116821,37.4660229 Z" id="Fill-1"></path>
                <path d="M25.685641,17.6606821 C21.0865934,18.8160292 17.3846886,22.1997808 15.8027106,26.6736906 C15.6069597,27.2429963 15.9005861,27.8775639 16.4712088,28.072838 C16.5854212,28.1216565 16.7158974,28.1376614 16.8300366,28.1376614 C17.2988278,28.1399269 17.7175092,27.8461389 17.8737729,27.405676 C19.2112821,23.6148599 22.3423443,20.7681121 26.223663,19.7918149 C26.8109158,19.6453593 27.1694505,19.0435323 27.0226374,18.4577832 C26.8764103,17.8725457 26.2728938,17.5145189 25.685641,17.6606821 Z M17.2052747,31.7983191 C17.1889377,31.1964921 16.6672527,30.7085993 16.0637363,30.7409013 C15.4604396,30.7569062 14.9873993,31.2776127 15.0037363,31.879659 C15.0197802,32.3837759 15.0687179,32.9044823 15.1502564,33.4089647 C15.2289377,33.9504994 15.6942857,34.3521559 16.2428571,34.3524482 C16.2917949,34.3524482 16.3569963,34.3524482 16.4059341,34.336151 C17.0092308,34.2548112 17.4169963,33.6855786 17.3354579,33.0835323 C17.2682051,32.6578319 17.2246886,32.2287698 17.2052747,31.7983191 Z M50.0830037,8.43676005 C47.734652,8.43676005 45.8101832,10.3399513 45.8101832,12.6988794 C45.8101832,15.0577345 47.718315,16.9612911 50.0830037,16.9612911 C52.447619,16.9612911 54.3558242,15.0577345 54.3558242,12.6988794 C54.3558242,10.3399513 52.447619,8.43676005 50.0830037,8.43676005 Z M50.0830037,15.0255055 C48.7949451,15.0255055 47.750989,13.9843849 47.750989,12.6988794 C47.750989,11.4136663 48.794359,10.3725457 50.0830037,10.3725457 C50.701685,10.3722533 51.2949451,10.6174421 51.7322344,11.0536663 C52.1697436,11.4898904 52.4153114,12.0819245 52.4153114,12.6988794 C52.4313553,13.9843849 51.3713553,15.0255055 50.0830037,15.0255055 Z" id="Fill-2"></path>
                <path d="M18.3304762,54.402095 L17.3520147,54.0766626 L17.0257875,53.1003654 C16.9442491,52.8728624 16.7484982,52.7264068 16.5041026,52.7264068 C16.2594139,52.7264068 16.0637363,52.8728624 15.9821245,53.1003654 L15.6558974,54.0766626 L14.6775092,54.402095 C14.4490842,54.4835079 14.3023443,54.6787089 14.3023443,54.9225091 C14.3023443,55.1666017 14.4490842,55.3615834 14.6775092,55.4432156 L15.6558974,55.7684287 L15.9821245,56.7447259 C16.0637363,56.9725213 16.2594139,57.1189769 16.5041026,57.1189769 C16.7484982,57.1189769 16.9442491,56.9725213 17.0257875,56.7447259 L17.3520147,55.7684287 L18.3304762,55.4432156 C18.5588278,55.3615834 18.705641,55.1666017 18.705641,54.9225091 C18.705641,54.6787089 18.5588278,54.4835079 18.3304762,54.402095 Z M27.8871795,2.71688185 L28.8659341,3.04231425 L29.1918681,4.01831912 C29.2736996,4.24618758 29.4691575,4.39257004 29.7138462,4.39257004 C29.9582418,4.39257004 30.1539927,4.24618758 30.2355311,4.01831912 L30.5617582,3.04231425 L31.5401465,2.71688185 C31.7685714,2.63546894 31.9153846,2.44026797 31.9153846,2.1961754 C31.9153846,1.95237515 31.7685714,1.7571011 31.5401465,1.67576127 L30.5617582,1.35032887 L30.2355311,0.374250914 C30.1539927,0.146455542 29.9582418,1.42108547e-14 29.7138462,1.42108547e-14 C29.4691575,1.42108547e-14 29.2736996,0.146455542 29.1918681,0.374250914 L28.8659341,1.35032887 L27.8871795,1.67576127 C27.6588278,1.7571011 27.5120147,1.95237515 27.5120147,2.1961754 C27.5120147,2.44026797 27.6588278,2.63546894 27.8871795,2.71688185 Z M2.21809524,24.8908648 C2.29970696,25.1186602 2.49538462,25.2651157 2.74007326,25.2651157 C2.98446886,25.2651157 3.18021978,25.1186602 3.26175824,24.8908648 L3.7185348,23.5080146 L5.1047619,23.0524239 C5.33311355,22.9707186 5.47992674,22.7757369 5.47992674,22.5317174 C5.47992674,22.2879172 5.33311355,22.0926431 5.1047619,22.0112302 L3.7185348,21.5556395 L3.26175824,20.172497 C3.18021978,19.9447016 2.98446886,19.7985384 2.74007326,19.7985384 C2.49538462,19.7985384 2.29970696,19.9447016 2.21809524,20.172497 L1.76139194,21.5556395 L0.375164835,22.0112302 C0.146813187,22.0926431 -9.23705556e-14,22.2879172 -9.23705556e-14,22.5317174 C-9.23705556e-14,22.7757369 0.146813187,22.9707186 0.375164835,23.0524239 L1.76139194,23.5080146 L2.21809524,24.8908648 Z M12.6390476,7.14204629 C12.6388278,7.53712546 12.8499634,7.9025335 13.1931136,8.10036541 C13.5362637,8.29790499 13.9589011,8.29819732 14.3020513,8.10065773 C14.6451282,7.90311815 14.85663,7.53800244 14.8569231,7.14285018 L14.8569231,7.14204629 C14.8569231,6.74689403 14.6457143,6.38148599 14.3028571,6.18365408 C13.9597802,5.98611449 13.5370696,5.98582217 13.1939927,6.18336175 C12.8508425,6.3806821 12.6390476,6.74579781 12.6390476,7.14116931 L12.6390476,7.14204629 Z M28.0506227,58.7619245 C28.0503297,59.3728136 28.5465201,59.86838 29.1589744,59.8686724 C29.7713553,59.8689647 30.2681319,59.3736906 30.2684249,58.7627284 L30.2684249,58.7619245 C30.2684249,58.3667722 30.0572161,58.0013642 29.7141392,57.8038246 C29.3712821,57.6059927 28.9485714,57.6057004 28.6052015,57.80324 C28.2620513,58.0008526 28.0506227,58.3659683 28.0506227,58.7610475 L28.0506227,58.7619245 Z M57.7804396,33.4968088 C57.7804396,34.1079903 58.2769231,34.6035566 58.8896703,34.6035566 C59.5023443,34.6035566 59.9988278,34.1079903 59.9988278,33.4968088 C59.9988278,32.8858465 59.5023443,32.3902801 58.8896703,32.3902801 C58.2769231,32.3902801 57.7804396,32.8858465 57.7804396,33.4968088 Z M37.9658608,7.14204629 C37.9658608,7.75293544 38.4624176,8.2482095 39.0747985,8.2482095 C39.6871795,8.2482095 40.1837363,7.75293544 40.1840293,7.14204629 C40.1837363,6.53108404 39.6871795,6.03580999 39.0747985,6.03580999 C38.4624176,6.03580999 37.9658608,6.53108404 37.9658608,7.14204629 Z M55.774359,45.0636541 L54.3881319,44.6080633 L53.9314286,43.2252132 C53.8498901,42.9974178 53.6541392,42.8509622 53.4097436,42.8509622 C53.1650549,42.8509622 52.969304,42.9974178 52.8877656,43.2252132 L52.4310623,44.6080633 L51.0448352,45.0636541 C50.8164835,45.1452862 50.6696703,45.340268 50.6696703,45.5843605 C50.6696703,45.8281608 50.8164835,46.0234348 51.0448352,46.1047747 L52.4310623,46.5604385 L52.8877656,47.9435079 C52.969304,48.1713764 53.1650549,48.3175396 53.4097436,48.3175396 C53.6541392,48.3175396 53.8498901,48.1713764 53.9314286,47.9435079 L54.3881319,46.5604385 L55.774359,46.1047747 C56.0027839,46.0234348 56.1495238,45.8281608 56.1495238,45.5843605 C56.1495238,45.340268 55.9864469,45.1452862 55.774359,45.0636541 Z" id="Fill-4" opacity="0.399018787"></path>
                <ellipse id="椭圆形" opacity="0.3" cx="34.6601942" cy="36.6346154" rx="16.6019417" ry="16.4423077"></ellipse>
                <ellipse id="椭圆形-copy" opacity="0.3" cx="50.9708738" cy="13.5576923" rx="2.03883495" ry="2.01923077"></ellipse>
            </g>
        </g>
    </g>
</svg>