<?xml version="1.0" encoding="UTF-8"?>
<svg width="30px" height="30px" viewBox="0 0 30 30" version="1.1" xmlns="http://www.w3.org/2000/svg" xmlns:xlink="http://www.w3.org/1999/xlink">
    <!-- Generator: Sketch 53.2 (72643) - https://sketchapp.com -->
    <title>任务完全情况icon</title>
    <desc>Created with Sketch.</desc>
    <g id="任务" stroke="none" stroke-width="1" fill="none" fill-rule="evenodd">
        <g id="任务-任务详情-基本信息" transform="translate(-28.000000, -890.000000)">
            <g id="Group-2" transform="translate(16.000000, 880.000000)">
                <g id="任务完全情况icon" transform="translate(12.000000, 10.000000)">
                    <g>
                        <circle id="Oval" fill-opacity="0.08" fill="#0084FF" cx="15" cy="15" r="15"></circle>
                        <g id="完成" transform="translate(8.000000, 8.000000)" fill="#099DFF" fill-rule="nonzero" stroke="#099DFF" stroke-width="0.5">
                            <path d="M5.23725515,6.35961731 C5.24956052,6.35348924 5.2618659,6.35348924 5.27417127,6.35961731 C5.55719488,6.36574537 5.77869161,6.60473987 5.76638624,6.88663082 C5.76023355,7.16852176 5.52027875,7.38913207 5.23725515,7.37687594 L3.32376946,7.37687594 C3.05920392,7.37074787 2.84385987,7.15626563 2.8315545,6.88663082 C2.81924912,6.60473987 3.04074586,6.37187344 3.32376946,6.35961731 L5.23725515,6.35961731 Z M12.1036539,7.16852176 C12.7558388,7.81809655 13.125,8.70053777 13.125,9.62587544 C13.125,10.5512131 12.7558388,11.4336543 12.1036539,12.0832291 C10.7377574,13.4375313 8.52894274,13.4436593 7.1691989,12.0832291 C5.80945505,10.7227989 5.80330236,8.52282391 7.1691989,7.16852176 C8.53509543,5.81421961 10.7439101,5.81421961 12.1036539,7.16852176 Z M11.5376067,11.5194472 C12.0482798,11.016946 12.3313034,10.3306028 12.3251507,9.61974737 C12.3251507,8.90889195 12.0421271,8.22867684 11.5376067,7.72617559 C10.4854972,6.67827664 8.78120291,6.67827664 7.72909342,7.72617559 C6.67698393,8.77407454 6.67698393,10.4715483 7.72909342,11.5194472 C8.78120291,12.5673462 10.4854972,12.5673462 11.5376067,11.5194472 Z M4.92346811,12.2854552 C5.13265947,12.2977114 5.29878202,12.4631691 5.31724008,12.6715233 C5.32954545,12.9043897 5.15727022,13.1066158 4.92346811,13.125 L2.43778252,13.125 C1.57640633,13.125 0.875,12.3712481 0.875,11.4459105 L0.875,2.55408954 C0.875,1.62875188 1.57025364,0.875 2.43162983,0.875 L10.6946886,0.875 C11.5560648,0.875 12.2574711,1.62875188 12.2574711,2.55408954 L12.2574711,4.87049775 C12.2451657,5.08497999 12.0544324,5.24430965 11.8390884,5.23205353 C11.6237443,5.2197974 11.4637745,5.02982741 11.4760799,4.81534517 L11.4760799,2.55408954 C11.4760799,2.09448474 11.1253767,1.72067284 10.7008413,1.72067284 L2.43162983,1.72067284 C2.00094174,1.72067284 1.65639126,2.09448474 1.65639126,2.55408954 L1.65639126,11.4520385 C1.65639126,11.9116433 2.00709442,12.2854552 2.43162983,12.2854552 L4.92346811,12.2854552 Z M8.17208689,4.42927714 L3.31761678,4.42927714 C3.03459317,4.41702101 2.81309643,4.18415458 2.82540181,3.90226363 C2.83770718,3.63262881 3.05305123,3.41814657 3.31761678,3.41201851 L8.17208689,3.41201851 C8.4551105,3.42427464 8.67660723,3.65714107 8.66430186,3.93903202 C8.65814917,4.20253877 8.44280512,4.41702101 8.17208689,4.42927714 Z M11.6237443,8.8659955 L11.5929809,8.8659955 C11.5745229,8.92727614 11.5437594,8.97630065 11.4945379,9.02532516 L9.25495982,11.2436843 L8.82427172,10.8147199 L7.8336891,9.83422961 C7.75985686,9.75456478 7.72294073,9.65038769 7.72909342,9.54621061 C7.73524611,9.44203352 7.77831492,9.34398449 7.85829985,9.27044772 C8.01211703,9.12950225 8.25822451,9.13563032 8.405889,9.28270385 L9.24265445,10.1222486 L10.9407961,8.46154327 C11.0946133,8.30834167 11.3407207,8.30834167 11.4945379,8.46154327 C11.5745229,8.5412081 11.611439,8.63925713 11.611439,8.74343422 L11.6237443,8.8659955 Z" id="Combined-Shape"></path>
                        </g>
                    </g>
                </g>
            </g>
        </g>
    </g>
</svg>