<?xml version="1.0" encoding="UTF-8"?>
<svg width="16px" height="16px" viewBox="0 0 16 16" version="1.1" xmlns="http://www.w3.org/2000/svg" xmlns:xlink="http://www.w3.org/1999/xlink">
    <!-- Generator: Sketch 50.2 (55047) - http://www.bohemiancoding.com/sketch -->
    <title>Spinner</title>
    <desc>Created with Sketch.</desc>
    <defs></defs>
    <g id="Page-1" stroke="none" stroke-width="1" fill="#00A1E3" fill-rule="evenodd">
        <g id="Route3-2发送中" transform="translate(-179.000000, -326.000000)" fill="">
            <g id="Group-3" transform="translate(169.000000, 315.000000)">
                <path d="M18,11 C18.4331645,11 18.7843137,11.3511492 18.7843137,11.7843137 L18.7843137,14.2156863 C18.7843137,14.6488508 18.4331645,15 18,15 C17.5668355,15 17.2156863,14.6488508 17.2156863,14.2156863 L17.2156863,11.7843137 C17.2156863,11.3511492 17.5668355,11 18,11 Z M22.1372549,12.1910261 C22.5123864,12.4076084 22.6409159,12.8872871 22.4243337,13.2624186 L21.2086474,15.368049 C20.9920651,15.7431805 20.5123864,15.87171 20.1372549,15.6551277 C19.7621234,15.4385455 19.6335939,14.9588667 19.8501762,14.5837353 L21.0658624,12.4781049 C21.2824447,12.1029734 21.7621234,11.9744439 22.1372549,12.1910261 Z M24.7516587,15.0769231 C24.9682409,15.4520545 24.8397114,15.9317333 24.4645799,16.1483156 L22.3589495,17.3640018 C21.983818,17.5805841 21.5041393,17.4520545 21.287557,17.0769231 C21.0709748,16.7017916 21.1995043,16.2221129 21.5746358,16.0055306 L23.6802662,14.7898443 C24.0553976,14.5732621 24.5350764,14.7017916 24.7516587,15.0769231 Z M25.9607843,18.8461538 C25.9607843,19.2793184 25.6096351,19.6304676 25.1764706,19.6304676 L22.745098,19.6304676 C22.3119335,19.6304676 21.9607843,19.2793184 21.9607843,18.8461538 C21.9607843,18.4129893 22.3119335,18.0618401 22.745098,18.0618401 L25.1764706,18.0618401 C25.6096351,18.0618401 25.9607843,18.4129893 25.9607843,18.8461538 Z M24.7516587,22.9230769 C24.5350764,23.2982084 24.0553976,23.4267379 23.6802662,23.2101557 L21.5746358,21.9944694 C21.1995043,21.7778871 21.0709748,21.2982084 21.287557,20.9230769 C21.5041393,20.5479455 21.983818,20.4194159 22.3589495,20.6359982 L24.4645799,21.8516844 C24.8397114,22.0682667 24.9682409,22.5479455 24.7516587,22.9230769 Z M22.1372549,26.1166662 C21.7621234,26.3332484 21.2824447,26.2047189 21.0658624,25.8295874 L19.8501762,23.7239571 C19.6335939,23.3488256 19.7621234,22.8691468 20.1372549,22.6525646 C20.5123864,22.4359823 20.9920651,22.5645119 21.2086474,22.9396433 L22.4243337,25.0452737 C22.6409159,25.4204052 22.5123864,25.9000839 22.1372549,26.1166662 Z M18,27 C17.5668355,27 17.2156863,26.6488508 17.2156863,26.2156863 L17.2156863,23.7843137 C17.2156863,23.3511492 17.5668355,23 18,23 C18.4331645,23 18.7843137,23.3511492 18.7843137,23.7843137 L18.7843137,26.2156863 C18.7843137,26.6488508 18.4331645,27 18,27 Z M13.8627451,26.1166662 C13.4876136,25.9000839 13.3590841,25.4204052 13.5756663,25.0452737 L14.7913526,22.9396433 C15.0079349,22.5645119 15.4876136,22.4359823 15.8627451,22.6525646 C16.2378766,22.8691468 16.3664061,23.3488256 16.1498238,23.7239571 L14.9341376,25.8295874 C14.7175553,26.2047189 14.2378766,26.3332484 13.8627451,26.1166662 Z M10.9346159,22.9230769 C10.7180336,22.5479455 10.8465631,22.0682667 11.2216946,21.8516844 L13.327325,20.6359982 C13.7024565,20.4194159 14.1821352,20.5479455 14.3987175,20.9230769 C14.6152997,21.2982084 14.4867702,21.7778871 14.1116387,21.9944694 L12.0060083,23.2101557 C11.6308769,23.4267379 11.1511981,23.2982084 10.9346159,22.9230769 Z M10.0392157,18.8461538 C10.0392157,18.4129893 10.3903649,18.0618401 10.8235294,18.0618401 L13.254902,18.0618401 C13.6880665,18.0618401 14.0392157,18.4129893 14.0392157,18.8461538 C14.0392157,19.2793184 13.6880665,19.6304676 13.254902,19.6304676 L10.8235294,19.6304676 C10.3903649,19.6304676 10.0392157,19.2793184 10.0392157,18.8461538 Z M10.9346159,15.0769231 C11.1511981,14.7017916 11.6308769,14.5732621 12.0060083,14.7898443 L14.1116387,16.0055306 C14.4867702,16.2221129 14.6152997,16.7017916 14.3987175,17.0769231 C14.1821352,17.4520545 13.7024565,17.5805841 13.327325,17.3640018 L11.2216946,16.1483156 C10.8465631,15.9317333 10.7180336,15.4520545 10.9346159,15.0769231 Z M13.8627451,12.1910261 C14.2378766,11.9744439 14.7175553,12.1029734 14.9341376,12.4781049 L16.1498238,14.5837353 C16.3664061,14.9588667 16.2378766,15.4385455 15.8627451,15.6551277 C15.4876136,15.87171 15.0079349,15.7431805 14.7913526,15.368049 L13.5756663,13.2624186 C13.3590841,12.8872871 13.4876136,12.4076084 13.8627451,12.1910261 Z" id="Spinner"></path>
            </g>
        </g>
    </g>
</svg>