<?xml version="1.0" encoding="UTF-8"?>
<svg width="20px" height="20px" viewBox="0 0 20 20" version="1.1" xmlns="http://www.w3.org/2000/svg" xmlns:xlink="http://www.w3.org/1999/xlink">
    <!-- Generator: Sketch 53.2 (72643) - https://sketchapp.com -->
    <title>loading</title>
    <desc>Created with Sketch.</desc>
    <g id="待办工作" stroke="none" stroke-width="1" fill="none" fill-rule="evenodd">
        <g id="下拉刷新-待办工作" transform="translate(-178.000000, -167.000000)" fill="#C5C5D1" fill-rule="nonzero">
            <g id="loading" transform="translate(178.000000, 167.000000)">
                <path d="M10,0 C10.5414556,-9.94637869e-17 10.9803922,0.43893652 10.9803922,0.980392157 L10.9803922,4.01960784 C10.9803922,4.56106348 10.5414556,5 10,5 C9.45854436,5 9.01960784,4.56106348 9.01960784,4.01960784 L9.01960784,0.980392157 C9.01960784,0.43893652 9.45854436,9.94637869e-17 10,0 Z" id="Spinner-path"></path>
                <path d="M15.1715686,1.48878264 C15.640483,1.75951046 15.8011449,2.3591089 15.5304171,2.82802324 L14.0108092,5.46006123 C13.7400814,5.92897556 13.140483,6.08963748 12.6715686,5.81890966 C12.2026543,5.54818184 12.0419924,4.94858341 12.3127202,4.47966907 L13.832328,1.84763108 C14.1030559,1.37871674 14.7026543,1.21805483 15.1715686,1.48878264 Z" id="Spinner-path"></path>
                <path d="M18.4395733,5.09615385 C18.7103011,5.56506818 18.5496392,6.16466662 18.0807249,6.43539444 L15.4486869,7.95500228 C14.9797725,8.2257301 14.3801741,8.06506818 14.1094463,7.59615385 C13.8387185,7.12723951 13.9993804,6.52764107 14.4682947,6.25691325 L17.1003327,4.73730541 C17.5692471,4.46657759 18.1688455,4.62723951 18.4395733,5.09615385 Z" id="Spinner-path"></path>
                <path d="M19.9509804,9.80769231 C19.9509804,10.3491479 19.5120439,10.7880845 18.9705882,10.7880845 L15.9313725,10.7880845 C15.3899169,10.7880845 14.9509804,10.3491479 14.9509804,9.80769231 C14.9509804,9.26623667 15.3899169,8.82730015 15.9313725,8.82730015 L18.9705882,8.82730015 C19.5120439,8.82730015 19.9509804,9.26623667 19.9509804,9.80769231 Z" id="Spinner-path"></path>
                <path d="M18.4395733,14.9038462 C18.1688455,15.3727605 17.5692471,15.5334224 17.1003327,15.2626946 L14.4682947,13.7430867 C13.9993804,13.4723589 13.8387185,12.8727605 14.1094463,12.4038462 C14.3801741,11.9349318 14.9797725,11.7742699 15.4486869,12.0449977 L18.0807249,13.5646056 C18.5496392,13.8353334 18.7103011,14.4349318 18.4395733,14.9038462 Z" id="Spinner-path"></path>
                <path d="M15.1715686,18.8958327 C14.7026543,19.1665606 14.1030559,19.0058986 13.832328,18.5369843 L12.3127202,15.9049463 C12.0419924,15.436032 12.2026543,14.8364335 12.6715686,14.5657057 C13.140483,14.2949779 13.7400814,14.4556398 14.0108092,14.9245542 L15.5304171,17.5565921 C15.8011449,18.0255065 15.640483,18.6251049 15.1715686,18.8958327 Z" id="Spinner-path"></path>
                <path d="M10,20 C9.45854436,20 9.01960784,19.5610635 9.01960784,19.0196078 L9.01960784,15.9803922 C9.01960784,15.4389365 9.45854436,15 10,15 C10.5414556,15 10.9803922,15.4389365 10.9803922,15.9803922 L10.9803922,19.0196078 C10.9803922,19.5610635 10.5414556,20 10,20 Z" id="Spinner-path"></path>
                <path d="M4.82843137,18.8958327 C4.35951704,18.6251049 4.19885512,18.0255065 4.46958294,17.5565921 L5.98919078,14.9245542 C6.2599186,14.4556398 6.85951704,14.2949779 7.32843137,14.5657057 C7.79734571,14.8364335 7.95800763,15.436032 7.68727981,15.9049463 L6.16767196,18.5369843 C5.89694415,19.0058986 5.29734571,19.1665606 4.82843137,18.8958327 Z" id="Spinner-path"></path>
                <path d="M1.16826982,14.9038462 C0.897542005,14.4349318 1.05820392,13.8353334 1.52711826,13.5646056 L4.15915625,12.0449977 C4.62807059,11.7742699 5.22766902,11.9349318 5.49839684,12.4038462 C5.76912466,12.8727605 5.60846274,13.4723589 5.13954841,13.7430867 L2.50751042,15.2626946 C2.03859608,15.5334224 1.43899764,15.3727605 1.16826982,14.9038462 Z" id="Spinner-path"></path>
                <path d="M0.0490196078,9.80769231 C0.0490196078,9.26623667 0.487956128,8.82730015 1.02941176,8.82730015 L4.06862745,8.82730015 C4.61008309,8.82730015 5.04901961,9.26623667 5.04901961,9.80769231 C5.04901961,10.3491479 4.61008309,10.7880845 4.06862745,10.7880845 L1.02941176,10.7880845 C0.487956128,10.7880845 0.0490196078,10.3491479 0.0490196078,9.80769231 Z" id="Spinner-path"></path>
                <path d="M1.16826982,5.09615385 C1.43899764,4.62723951 2.03859608,4.46657759 2.50751042,4.73730541 L5.13954841,6.25691325 C5.60846274,6.52764107 5.76912466,7.12723951 5.49839684,7.59615385 C5.22766902,8.06506818 4.62807059,8.2257301 4.15915625,7.95500228 L1.52711826,6.43539444 C1.05820392,6.16466662 0.897542005,5.56506818 1.16826982,5.09615385 Z" id="Spinner-path"></path>
                <path d="M4.82843137,1.48878264 C5.29734571,1.21805483 5.89694415,1.37871674 6.16767196,1.84763108 L7.68727981,4.47966907 C7.95800763,4.94858341 7.79734571,5.54818184 7.32843137,5.81890966 C6.85951704,6.08963748 6.2599186,5.92897556 5.98919078,5.46006123 L4.46958294,2.82802324 C4.19885512,2.3591089 4.35951704,1.75951046 4.82843137,1.48878264 Z" id="Spinner-path"></path>
            </g>
        </g>
    </g>
</svg>