<?xml version="1.0" encoding="UTF-8"?>
<svg width="14px" height="14px" viewBox="0 0 14 14" version="1.1" xmlns="http://www.w3.org/2000/svg" xmlns:xlink="http://www.w3.org/1999/xlink">
    <!-- Generator: Sketch 53.2 (72643) - https://sketchapp.com -->
    <title>right_circle_so</title>
    <desc>Created with Sketch.</desc>
    <g id="任务" stroke="none" stroke-width="1" fill="none" fill-rule="evenodd">
        <g id="操作步骤-已完成7" transform="translate(-36.000000, -341.000000)">
            <g id="Group-2-Copy-5" transform="translate(16.000000, 296.000000)">
                <g id="Group-4" transform="translate(20.000000, 42.000000)">
                    <g id="right_circle_so" transform="translate(0.000000, 3.000000)">
                        <rect x="0" y="0" width="14" height="14"></rect>
                        <path d="M7,13.2222222 C3.56356156,13.2222222 0.777777778,10.4364384 0.777777778,7 C0.777777778,3.56356156 3.56356156,0.777777778 7,0.777777778 C10.4364384,0.777777778 13.2222222,3.56356156 13.2222222,7 C13.2222222,10.4364384 10.4364384,13.2222222 7,13.2222222 Z M8.78336139,4.8944725 L6.22222222,7.45561167 L5.21663861,6.45002806 C4.91289749,6.14628694 4.42043584,6.14628694 4.11669473,6.45002806 C3.81295361,6.75376917 3.81295361,7.24623083 4.11669473,7.54997194 L5.67225028,9.1055275 C5.9759914,9.40926861 6.46845305,9.40926861 6.77219416,9.1055275 L9.88330527,5.99441639 C10.1870464,5.69067527 10.1870464,5.19821362 9.88330527,4.8944725 C9.57956416,4.59073139 9.08710251,4.59073139 8.78336139,4.8944725 Z" fill="#00B8B4"></path>
                    </g>
                </g>
            </g>
        </g>
    </g>
</svg>