<?xml version="1.0" encoding="UTF-8"?>
<svg width="16px" height="16px" viewBox="0 0 16 16" version="1.1" xmlns="http://www.w3.org/2000/svg" xmlns:xlink="http://www.w3.org/1999/xlink">
    <!-- Generator: Sketch 53.2 (72643) - https://sketchapp.com -->
    <title>scan</title>
    <desc>Created with Sketch.</desc>
    <g id="任务" stroke="none" stroke-width="1" fill="none" fill-rule="evenodd">
        <g id="任务-设备完成情况1" transform="translate(-130.000000, -776.000000)">
            <g id="button/扫码录入结果" transform="translate(0.000000, 756.000000)">
                <g id="Group" transform="translate(16.000000, 8.000000)">
                    <g id="scan" transform="translate(113.000000, 11.000000)">
                        <rect x="0" y="0" width="18" height="18"></rect>
                        <path d="M3,3 L3,5.5 C3,5.77614237 2.77614237,6 2.5,6 L1.5,6 C1.22385763,6 1,5.77614237 1,5.5 L1,1.5 C1,1.22385763 1.22385763,1 1.5,1 L5.5,1 C5.77614237,1 6,1.22385763 6,1.5 L6,2.5 C6,2.77614237 5.77614237,3 5.5,3 L3,3 Z M3,15 L5.5,15 C5.77614237,15 6,15.2238576 6,15.5 L6,16.5 C6,16.7761424 5.77614237,17 5.5,17 L1.5,17 C1.22385763,17 1,16.7761424 1,16.5 L1,12.5 C1,12.2238576 1.22385763,12 1.5,12 L2.5,12 C2.77614237,12 3,12.2238576 3,12.5 L3,15 Z M15,15 L15,12.5 C15,12.2238576 15.2238576,12 15.5,12 L16.5,12 C16.7761424,12 17,12.2238576 17,12.5 L17,16.5 C17,16.7761424 16.7761424,17 16.5,17 L12.5,17 C12.2238576,17 12,16.7761424 12,16.5 L12,15.5 C12,15.2238576 12.2238576,15 12.5,15 L15,15 Z M15,3 L12.5,3 C12.2238576,3 12,2.77614237 12,2.5 L12,1.5 C12,1.22385763 12.2238576,1 12.5,1 L16.5,1 C16.7761424,1 17,1.22385763 17,1.5 L17,5.5 C17,5.77614237 16.7761424,6 16.5,6 L15.5,6 C15.2238576,6 15,5.77614237 15,5.5 L15,3 Z M1.5,10 C1.22385763,10 1,9.77614237 1,9.5 L1,8.5 C1,8.22385763 1.22385763,8 1.5,8 L16.5,8 C16.7761424,8 17,8.22385763 17,8.5 L17,9.5 C17,9.77614237 16.7761424,10 16.5,10 L1.5,10 Z" id="形状结合" fill="#FFFFFF" fill-rule="nonzero"></path>
                    </g>
                </g>
            </g>
        </g>
    </g>
</svg>