<?xml version="1.0" encoding="UTF-8"?>
<svg width="18px" height="18px" viewBox="0 0 18 18" version="1.1" xmlns="http://www.w3.org/2000/svg" xmlns:xlink="http://www.w3.org/1999/xlink">
    <!-- Generator: Sketch 53.2 (72643) - https://sketchapp.com -->
    <title>icon/close copy</title>
    <desc>Created with Sketch.</desc>
    <g id="待办工作" stroke="none" stroke-width="1" fill="none" fill-rule="evenodd">
        <g id="切换场站-1" transform="translate(-336.000000, -33.000000)">
            <g id="头部/整体">
                <g id="分组">
                    <g id="头部" transform="translate(0.000000, 20.000000)">
                        <g id="icon/16*16/search" transform="translate(335.000000, 12.000000)">
                            <g id="search_o">
                                <rect x="0" y="0" width="20" height="20"></rect>
                                <path d="M15.1115592,13.5557173 C15.1527693,13.5867323 15.1923137,13.6209916 15.2298437,13.6584954 L18.5655105,16.9918287 C18.9995781,17.4255928 18.9998243,18.1291094 18.5660603,18.563177 C18.1322962,18.9972447 17.4287796,18.9974909 16.994712,18.5637268 L13.6590452,15.2303935 C13.6213265,15.1927012 13.5868836,15.1529721 13.5557165,15.1115598 C12.2557726,16.0880381 10.6399037,16.6666667 8.88888889,16.6666667 C4.59334083,16.6666667 1.11111111,13.1844369 1.11111111,8.88888889 C1.11111111,4.59334083 4.59334083,1.11111111 8.88888889,1.11111111 C13.1844369,1.11111111 16.6666667,4.59334083 16.6666667,8.88888889 C16.6666667,10.6399041 16.0880378,12.2557732 15.1115592,13.5557173 Z M8.88888889,14.4444444 C11.9571375,14.4444444 14.4444444,11.9571375 14.4444444,8.88888889 C14.4444444,5.82064028 11.9571375,3.33333333 8.88888889,3.33333333 C5.82064028,3.33333333 3.33333333,5.82064028 3.33333333,8.88888889 C3.33333333,11.9571375 5.82064028,14.4444444 8.88888889,14.4444444 Z" fill="#26272E" fill-rule="nonzero"></path>
                            </g>
                        </g>
                    </g>
                </g>
            </g>
        </g>
    </g>
</svg>