<?xml version="1.0" encoding="UTF-8"?>
<svg width="16px" height="16px" viewBox="0 0 16 16" version="1.1" xmlns="http://www.w3.org/2000/svg" xmlns:xlink="http://www.w3.org/1999/xlink">
    <!-- Generator: Sketch 53.2 (72643) - https://sketchapp.com -->
    <title>icon/18/search</title>
    <desc>Created with Sketch.</desc>
    <g id="任务" stroke="none" stroke-width="1" fill="none" fill-rule="evenodd">
        <g id="任务-设备完成情况1" transform="translate(-27.000000, -80.000000)">
            <g id="Group-3">
                <g id="头部/整体">
                    <g id="分组" transform="translate(0.000000, 20.000000)">
                        <g id="搜索" transform="translate(0.000000, 44.000000)">
                            <g id="Group" transform="translate(16.000000, 7.000000)">
                                <g id="icon/18/search" transform="translate(10.000000, 8.000000)">
                                    <g id="search">
                                        <rect x="0" y="0" width="18" height="18"></rect>
                                        <path d="M13.6004033,12.2001456 C13.6374924,12.2280591 13.6730823,12.2588924 13.7068593,12.2926459 L16.7089594,15.2926459 C17.0996203,15.6830335 17.0998419,16.3161984 16.7094542,16.7068593 C16.3190666,17.0975202 15.6859017,17.0977418 15.2952408,16.7073541 L12.2931407,13.7073541 C12.2591939,13.6734311 12.2281952,13.6376749 12.2001449,13.6004038 C11.0301953,14.4792343 9.57591333,15 8,15 C4.13400675,15 1,11.8659932 1,8 C1,4.13400675 4.13400675,1 8,1 C11.8659932,1 15,4.13400675 15,8 C15,9.57591365 14.4792341,11.0301959 13.6004033,12.2001456 Z M8,13 C10.7614237,13 13,10.7614237 13,8 C13,5.23857625 10.7614237,3 8,3 C5.23857625,3 3,5.23857625 3,8 C3,10.7614237 5.23857625,13 8,13 Z" fill="#A4A5B3"></path>
                                    </g>
                                </g>
                            </g>
                        </g>
                    </g>
                </g>
            </g>
        </g>
    </g>
</svg>