<?xml version="1.0" encoding="UTF-8"?>
<svg width="30px" height="39px" viewBox="0 0 30 39" version="1.1" xmlns="http://www.w3.org/2000/svg" xmlns:xlink="http://www.w3.org/1999/xlink">
    <!-- Generator: Sketch 53.2 (72643) - https://sketchapp.com -->
    <title>定位</title>
    <desc>Created with Sketch.</desc>
    <g id="工单" stroke="none" stroke-width="1" fill="none" fill-rule="evenodd">
        <g id="工作定位-工作轨迹-3" transform="translate(-112.000000, -315.000000)">
            <g id="定位" transform="translate(112.000000, 315.000000)">
                <g id="编组">
                    <g id="编组-5" transform="translate(0.333333, 0.000000)">
                        <path d="M14.6667728,38.1717364 C14.2106418,38.1717364 13.9588886,38.1170321 13.798571,37.9291878 C13.7021623,37.8162457 4.00876957,26.3109366 1.42567087,20.7392555 C0.492469594,18.7433774 0,16.5761884 0,14.4613045 C0,6.48560059 6.57921735,0 14.6667728,0 C22.7543281,0 29.3335455,6.53044591 29.3335455,14.5552266 C29.3335455,16.9796653 28.8790723,18.8115178 27.7651811,20.877325 C24.6851631,26.5850687 15.6385375,37.7944337 15.5481925,37.9062853 C15.4402235,38.0412574 15.2474061,38.17178 14.6893699,38.17178 L14.6667728,38.17178 L14.6667728,38.1717364 Z M14.6667727,8.88190196 C11.5564799,8.88190196 9.02568618,11.412652 9.02568618,14.5229885 C9.02568618,17.633325 11.5564799,20.1640751 14.6667727,20.1640751 C17.7770656,20.1640751 20.3078593,17.633325 20.3078593,14.5229885 C20.3078593,11.412652 17.7770656,8.88190196 14.6667727,8.88190196 Z" id="形状" fill="#00B8B4" fill-rule="nonzero"></path>
                        <circle id="椭圆形" fill="#FFFFFF" cx="14.6633333" cy="14.6666667" r="9.91666667"></circle>
                        <text id="起" font-family="PingFangSC-Medium, PingFang SC" font-size="12" font-weight="400" fill="#00B8B4">
                            <tspan x="8.66666667" y="19.0833333">起</tspan>
                        </text>
                    </g>
                </g>
            </g>
        </g>
    </g>
</svg>