<?xml version="1.0" encoding="UTF-8"?>
<svg width="24px" height="24px" viewBox="0 0 24 24" version="1.1" xmlns="http://www.w3.org/2000/svg" xmlns:xlink="http://www.w3.org/1999/xlink">
    <!-- Generator: Sketch 50.2 (55047) - http://www.bohemiancoding.com/sketch -->
    <title>Group 9@2x</title>
    <desc>Created with Sketch.</desc>
    <defs></defs>
    <g id="Page-1" stroke="none" stroke-width="1" fill="none" fill-rule="evenodd">
        <g id="0.首页-健康" transform="translate(-47.000000, -710.000000)">
            <g id="电站管家" transform="translate(0.000000, 640.000000)">
                <g id="场站集控" transform="translate(17.000000, 47.000000)">
                    <g id="Group-9" transform="translate(30.000000, 23.000000)">
                        <path d="M12,0 C11.852,0 11.705,0.006 11.558,0.011 L11.558,5.357 L12.824,5.357 L12.824,1.118 C18.459,1.54 22.917,6.258 22.917,12 C22.917,18.02 18.02,22.917 12,22.917 C5.98,22.917 1.083,18.02 1.083,12 C1.083,8.888 2.394,6.078 4.491,4.087 L3.816,3.235 C1.471,5.427 0,8.544 0,12 C0,18.617 5.383,24 12,24 C18.617,24 24,18.617 24,12 C24,5.383 18.617,0 12,0" id="Fill-1" fill="#8F99A3"></path>
                        <path d="M13.3511,11.1787 L13.3541,11.1757 L13.2601,11.1037 C13.2381,11.0867 13.2181,11.0687 13.1951,11.0537 L6.8661,6.2117 L6.8661,6.2127 C6.7971,6.1417 6.7021,6.0977 6.5961,6.0977 C6.4971,6.0977 6.4011,6.1377 6.3301,6.2077 C6.2601,6.2787 6.2201,6.3747 6.2201,6.4747 C6.2201,6.5727 6.2591,6.6587 6.3201,6.7257 L6.3201,6.7267 L6.3261,6.7337 C6.3281,6.7367 6.3301,6.7397 6.3321,6.7417 L11.3291,12.9687 L11.3301,12.9677 C11.5761,13.3217 11.9831,13.5537 12.4471,13.5537 C13.2001,13.5537 13.8091,12.9437 13.8091,12.1917 C13.8091,11.7867 13.6301,11.4287 13.3511,11.1787" id="Fill-3" fill="#0088EB"></path>
                    </g>
                </g>
            </g>
        </g>
    </g>
</svg>