<?xml version="1.0" encoding="UTF-8"?>
<svg width="24px" height="16px" viewBox="0 0 24 16" version="1.1" xmlns="http://www.w3.org/2000/svg" xmlns:xlink="http://www.w3.org/1999/xlink">
    <!-- Generator: Sketch 48.2 (47327) - http://www.bohemiancoding.com/sketch -->
    <title>中国国旗@2x</title>
    <desc>Created with Sketch.</desc>
    <defs></defs>
    <g id="0-2-1.选择环境（默认）" stroke="none" stroke-width="1" fill="none" fill-rule="evenodd" transform="translate(-18.000000, -82.000000)">
        <g id="Group-Copy-7" transform="translate(0.000000, 64.000000)">
            <g id="中国国旗" transform="translate(18.000000, 18.000000)">
                <polygon id="Fill-1" fill="#DE2910" points="0 16.0002 24 16.0002 24 0.0002 0 0.0002"></polygon>
                <path d="M4.0195,1.8065 L4.5255,3.3655 L6.1655,3.3655 L4.8385,4.3295 L5.3445,5.8895 L4.0195,4.9245 L2.6935,5.8895 L3.1995,4.3295 L1.8735,3.3655 L3.5115,3.3655 L4.0195,1.8065 Z M8.292,0.992 L8.258,1.531 L8.759,1.73 L8.236,1.863 L8.201,2.402 L7.912,1.946 L7.39,2.079 L7.734,1.664 L7.447,1.209 L7.947,1.408 L8.292,0.992 Z M10.1328,2.7391 L9.8868,3.2191 L10.2688,3.6021 L9.7368,3.5151 L9.4878,3.9961 L9.4058,3.4631 L8.8728,3.3781 L9.3538,3.1341 L9.2718,2.6011 L9.6518,2.9841 L10.1328,2.7391 Z M9.58,4.9261 L9.745,5.4391 L10.285,5.4401 L9.849,5.7561 L10.015,6.2701 L9.579,5.9521 L9.142,6.2691 L9.309,5.7561 L8.873,5.4391 L9.412,5.4401 L9.58,4.9261 Z M8.289,6.5726 L8.254,7.1116 L8.755,7.3106 L8.231,7.4436 L8.197,7.9826 L7.909,7.5266 L7.385,7.6596 L7.729,7.2446 L7.442,6.7876 L7.944,6.9886 L8.289,6.5726 Z" id="Combined-Shape" fill="#FFDE00"></path>
            </g>
        </g>
    </g>
</svg>