<?xml version="1.0" encoding="UTF-8"?>
<svg width="24px" height="16px" viewBox="0 0 24 16" version="1.1" xmlns="http://www.w3.org/2000/svg" xmlns:xlink="http://www.w3.org/1999/xlink">
    <!-- Generator: Sketch 48.2 (47327) - http://www.bohemiancoding.com/sketch -->
    <title>Page 1@2x</title>
    <desc>Created with Sketch.</desc>
    <defs></defs>
    <g id="0-2-1.选择环境（默认）" stroke="none" stroke-width="1" fill="none" fill-rule="evenodd" transform="translate(-18.000000, -188.000000)">
        <g id="Group-Copy-7" transform="translate(0.000000, 64.000000)">
            <g id="Page-1" transform="translate(18.000000, 124.000000)">
                <polygon id="Fill-1" fill="#003399" points="0 16.0002 23.999 16.0002 23.999 0.0002 0 0.0002"></polygon>
                <path d="M11.9998,1.9522 L12.1788,2.5012 L12.7558,2.5012 L12.2888,2.8402 L12.4668,3.3892 L11.9998,3.0512 L11.5318,3.3892 L11.7108,2.8402 L11.2438,2.5012 L11.8218,2.5012 L11.9998,1.9522 Z M9.3045,2.67 L9.4835,3.22 L10.0605,3.218 L9.5945,3.558 L9.7725,4.108 L9.3055,3.769 L8.8385,4.109 L9.0165,3.56 L8.5485,3.22 L9.1265,3.22 L9.3045,2.67 Z M7.3338,4.6402 L7.5128,5.1882 L8.0908,5.1882 L7.6228,5.5282 L7.8028,6.0772 L7.3348,5.7382 L6.8678,6.0772 L7.0458,5.5292 L6.5778,5.1892 L7.1548,5.1892 L7.3338,4.6402 Z M14.6892,2.6793 L14.8702,3.2283 L15.4462,3.2273 L14.9802,3.5683 L15.1602,4.1173 L14.6922,3.7793 L14.2252,4.1173 L14.4032,3.5693 L13.9342,3.2293 L14.5122,3.2293 L14.6892,2.6793 Z M17.3367,5.1466 L16.8687,5.4876 L17.0487,6.0366 L16.5807,5.6966 L16.1137,6.0366 L16.2917,5.4876 L15.8237,5.1476 L16.4007,5.1476 L16.5797,4.5976 L16.7587,5.1476 L17.3367,5.1466 Z M18.0798,7.8507 L17.6108,8.1887 L17.7868,8.7377 L17.3208,8.3967 L16.8518,8.7347 L17.0328,8.1857 L16.5668,7.8447 L17.1438,7.8467 L17.3258,7.2987 L17.5018,7.8487 L18.0798,7.8507 Z M17.0935,11.3336 L16.6255,10.9946 L16.1585,11.3346 L16.3365,10.7856 L15.8685,10.4456 L16.4465,10.4456 L16.6245,9.8956 L16.8035,10.4456 L17.3815,10.4436 L16.9135,10.7846 L17.0935,11.3336 Z M11.5808,14.043 L11.7578,13.494 L11.2908,13.155 L11.8678,13.154 L12.0448,12.604 L12.2258,13.152 L12.8018,13.151 L12.3358,13.492 L12.5168,14.041 L12.0478,13.703 L11.5808,14.043 Z M8.8826,13.3297 L9.0606,12.7807 L8.5926,12.4407 L9.1696,12.4407 L9.3476,11.8907 L9.5266,12.4397 L10.1046,12.4387 L9.6376,12.7787 L9.8176,13.3287 L9.3496,12.9887 L8.8826,13.3297 Z M15.1218,13.3165 L14.6548,12.9755 L14.1858,13.3135 L14.3678,12.7645 L13.9008,12.4225 L14.4778,12.4245 L14.6588,11.8765 L14.8358,12.4265 L15.4138,12.4285 L14.9448,12.7665 L15.1218,13.3165 Z M5.9207,7.8614 L6.4977,7.8604 L6.6747,7.3104 L6.8557,7.8584 L7.4327,7.8564 L6.9667,8.1984 L7.1467,8.7464 L6.6787,8.4084 L6.2117,8.7494 L6.3897,8.2004 L5.9207,7.8614 Z M6.9099,11.3311 L7.0879,10.7821 L6.6199,10.4431 L7.1979,10.4421 L7.3759,9.8921 L7.5549,10.4411 L8.1319,10.4411 L7.6649,10.7811 L7.8449,11.3301 L7.3769,10.9911 L6.9099,11.3311 Z" id="Combined-Shape" fill="#FFCC00"></path>
            </g>
        </g>
    </g>
</svg>